Hind_1.ufo
<glyph name="exclam" format="1">
  <advance width="289"/>
  <unicode hex="0021"/>
  <outline>
    <contour>
      <point x="75" y="236" type="line"/>
      <point x="214" y="236" type="line"/>
      <point x="214" y="674" type="line"/>
      <point x="75" y="674" type="line"/>
    </contour>
    <contour>
      <point x="52" y="83" type="curve" smooth="yes"/>
      <point x="52" y="32"/>
      <point x="92" y="-8"/>
      <point x="143" y="-8" type="curve" smooth="yes"/>
      <point x="194" y="-8"/>
      <point x="234" y="32"/>
      <point x="234" y="83" type="curve" smooth="yes"/>
      <point x="234" y="134"/>
      <point x="194" y="174"/>
      <point x="143" y="174" type="curve" smooth="yes"/>
      <point x="92" y="174"/>
      <point x="52" y="134"/>
    </contour>
  </outline>
</glyph>
<glyph name="numbersign" format="1">
  <advance width="757"/>
  <unicode hex="0023"/>
  <outline>
    <contour>
      <point x="79" y="400" type="line"/>
      <point x="712" y="400" type="line"/>
      <point x="712" y="516" type="line"/>
      <point x="79" y="516" type="line"/>
    </contour>
    <contour>
      <point x="373" y="0" type="line"/>
      <point x="496" y="0" type="line"/>
      <point x="639" y="673" type="line"/>
      <point x="515" y="673" type="line"/>
    </contour>
    <contour>
      <point x="113" y="0" type="line"/>
      <point x="236" y="0" type="line"/>
      <point x="379" y="673" type="line"/>
      <point x="255" y="673" type="line"/>
    </contour>
    <contour>
      <point x="45" y="154" type="line"/>
      <point x="678" y="154" type="line"/>
      <point x="678" y="265" type="line"/>
      <point x="45" y="265" type="line"/>
    </contour>
  </outline>
</glyph>
<glyph name="ampersand" format="1">
  <advance width="742"/>
  <unicode hex="0026"/>
  <outline>
    <contour>
      <point x="737" y="0" type="line"/>
      <point x="388" y="345" type="line" smooth="yes"/>
      <point x="340" y="393"/>
      <point x="272" y="448"/>
      <point x="272" y="504" type="curve" smooth="yes"/>
      <point x="272" y="548"/>
      <point x="303" y="569"/>
      <point x="339" y="569" type="curve" smooth="yes"/>
      <point x="386" y="569"/>
      <point x="416" y="542"/>
      <point x="416" y="492" type="curve" smooth="yes"/>
      <point x="416" y="461"/>
      <point x="401" y="419"/>
      <point x="324" y="382" type="curve"/>
      <point x="414" y="309" type="line"/>
      <point x="522" y="361"/>
      <point x="563" y="422"/>
      <point x="563" y="500" type="curve" smooth="yes"/>
      <point x="563" y="619"/>
      <point x="478" y="688"/>
      <point x="339" y="688" type="curve" smooth="yes"/>
      <point x="221" y="688"/>
      <point x="124" y="626"/>
      <point x="124" y="502" type="curve" smooth="yes"/>
      <point x="124" y="389"/>
      <point x="242" y="309"/>
      <point x="298" y="254" type="curve" smooth="yes"/>
      <point x="558" y="0" type="line"/>
    </contour>
    <contour>
      <point x="222" y="362" type="line"/>
      <point x="94" y="330"/>
      <point x="50" y="269"/>
      <point x="50" y="184" type="curve" smooth="yes"/>
      <point x="50" y="82"/>
      <point x="152" y="-8"/>
      <point x="335" y="-8" type="curve" smooth="yes"/>
      <point x="532" y="-8"/>
      <point x="668" y="126"/>
      <point x="668" y="301" type="curve"/>
      <point x="537" y="301" type="line"/>
      <point x="537" y="168"/>
      <point x="429" y="112"/>
      <point x="336" y="112" type="curve" smooth="yes"/>
      <point x="257" y="112"/>
      <point x="199" y="144"/>
      <point x="199" y="189" type="curve" smooth="yes"/>
      <point x="199" y="229"/>
      <point x="219" y="261"/>
      <point x="321" y="285" type="curve"/>
    </contour>
  </outline>
</glyph>
<glyph name="asterisk" format="1">
  <advance width="508"/>
  <unicode hex="002A"/>
  <outline>
    <contour>
      <point x="196" y="576" type="line"/>
      <point x="196" y="489"/>
      <point x="255" y="455"/>
      <point x="255" y="455" type="curve"/>
      <point x="255" y="455"/>
      <point x="314" y="490"/>
      <point x="314" y="576" type="curve" smooth="yes"/>
      <point x="314" y="674" type="line"/>
      <point x="196" y="674" type="line"/>
    </contour>
    <contour>
      <point x="122" y="436" type="line"/>
      <point x="140" y="430"/>
      <point x="157" y="427"/>
      <point x="173" y="427" type="curve" smooth="yes"/>
      <point x="224" y="427"/>
      <point x="255" y="455"/>
      <point x="255" y="455" type="curve"/>
      <point x="254" y="454"/>
      <point x="238" y="523"/>
      <point x="158" y="549" type="curve" smooth="yes"/>
      <point x="65" y="579" type="line"/>
      <point x="28" y="467" type="line"/>
    </contour>
    <contour>
      <point x="232" y="323" type="line"/>
      <point x="256" y="355"/>
      <point x="263" y="382"/>
      <point x="263" y="411" type="curve" smooth="yes"/>
      <point x="263" y="453"/>
      <point x="255" y="455"/>
      <point x="255" y="455" type="curve" smooth="yes"/>
      <point x="208" y="455"/>
      <point x="163" y="429"/>
      <point x="136" y="392" type="curve" smooth="yes"/>
      <point x="78" y="313" type="line"/>
      <point x="173" y="243" type="line"/>
    </contour>
    <contour>
      <point x="373" y="392" type="line"/>
      <point x="329" y="452"/>
      <point x="271" y="455"/>
      <point x="255" y="455" type="curve" smooth="yes"/>
      <point x="255" y="455"/>
      <point x="248" y="452"/>
      <point x="248" y="412" type="curve" smooth="yes"/>
      <point x="248" y="388"/>
      <point x="254" y="355"/>
      <point x="278" y="322" type="curve" smooth="yes"/>
      <point x="335" y="243" type="line"/>
      <point x="431" y="312" type="line"/>
    </contour>
    <contour>
      <point x="351" y="548" type="line"/>
      <point x="270" y="522"/>
      <point x="255" y="455"/>
      <point x="255" y="455" type="curve"/>
      <point x="255" y="455"/>
      <point x="286" y="428"/>
      <point x="339" y="428" type="curve" smooth="yes"/>
      <point x="354" y="428"/>
      <point x="370" y="430"/>
      <point x="389" y="436" type="curve" smooth="yes"/>
      <point x="481" y="466" type="line"/>
      <point x="445" y="578" type="line"/>
    </contour>
  </outline>
</glyph>
<glyph name="comma" format="1">
  <advance width="294"/>
  <unicode hex="002C"/>
  <outline>
    <contour>
      <point x="-7" y="-127" type="line"/>
      <point x="119" y="-127" type="line"/>
      <point x="255" y="134" type="line"/>
      <point x="94" y="134" type="line"/>
    </contour>
  </outline>
</glyph>
<glyph name="hyphen" format="1">
  <advance width="357"/>
  <unicode hex="002D"/>
  <outline>
    <contour>
      <point x="45" y="202" type="line"/>
      <point x="312" y="202" type="line"/>
      <point x="312" y="322" type="line"/>
      <point x="45" y="322" type="line"/>
    </contour>
  </outline>
</glyph>
<glyph name="slash" format="1">
  <advance width="464"/>
  <unicode hex="002F"/>
  <outline>
    <contour>
      <point x="-2" y="-103" type="line"/>
      <point x="149" y="-103" type="line"/>
      <point x="509" y="707" type="line"/>
      <point x="357" y="707" type="line"/>
    </contour>
  </outline>
</glyph>
<glyph name="zero" format="1">
  <advance width="547"/>
  <unicode hex="0030"/>
  <outline>
    <contour>
      <point x="35" y="330" type="curve" smooth="yes"/>
      <point x="35" y="132"/>
      <point x="111" y="-8"/>
      <point x="273" y="-8" type="curve" smooth="yes"/>
      <point x="435" y="-8"/>
      <point x="512" y="132"/>
      <point x="512" y="330" type="curve" smooth="yes"/>
      <point x="512" y="531"/>
      <point x="435" y="668"/>
      <point x="273" y="668" type="curve" smooth="yes"/>
      <point x="111" y="668"/>
      <point x="35" y="531"/>
    </contour>
    <contour>
      <point x="184" y="330" type="curve" smooth="yes"/>
      <point x="184" y="467"/>
      <point x="212" y="538"/>
      <point x="273" y="538" type="curve" smooth="yes"/>
      <point x="333" y="538"/>
      <point x="363" y="467"/>
      <point x="363" y="330" type="curve" smooth="yes"/>
      <point x="363" y="195"/>
      <point x="333" y="122"/>
      <point x="273" y="122" type="curve" smooth="yes"/>
      <point x="212" y="122"/>
      <point x="184" y="195"/>
    </contour>
  </outline>
</glyph>
<glyph name="one" format="1">
  <advance width="380"/>
  <unicode hex="0031"/>
  <outline>
    <contour>
      <point x="10" y="398" type="line"/>
      <point x="175" y="497" type="line"/>
      <point x="175" y="0" type="line"/>
      <point x="320" y="0" type="line"/>
      <point x="320" y="654" type="line"/>
      <point x="194" y="654" type="line"/>
      <point x="10" y="547" type="line"/>
    </contour>
  </outline>
</glyph>
<glyph name="two" format="1">
  <advance width="501"/>
  <unicode hex="0032"/>
  <outline>
    <contour>
      <point x="80" y="26" type="line"/>
      <point x="318" y="157"/>
      <point x="454" y="306"/>
      <point x="454" y="460" type="curve" smooth="yes"/>
      <point x="454" y="591"/>
      <point x="364" y="663"/>
      <point x="231" y="663" type="curve" smooth="yes"/>
      <point x="160" y="663"/>
      <point x="83" y="636"/>
      <point x="41" y="605" type="curve"/>
      <point x="41" y="464" type="line"/>
      <point x="82" y="498"/>
      <point x="145" y="527"/>
      <point x="202" y="527" type="curve" smooth="yes"/>
      <point x="272" y="527"/>
      <point x="303" y="490"/>
      <point x="303" y="436" type="curve" smooth="yes"/>
      <point x="303" y="335"/>
      <point x="153" y="197"/>
      <point x="30" y="113" type="curve"/>
    </contour>
    <contour>
      <point x="30" y="0" type="line"/>
      <point x="466" y="0" type="line"/>
      <point x="466" y="124" type="line"/>
      <point x="224" y="124" type="line"/>
      <point x="30" y="113" type="line"/>
    </contour>
  </outline>
</glyph>
<glyph name="eight" format="1">
  <advance width="545"/>
  <unicode hex="0038"/>
  <outline>
    <contour>
      <point x="45" y="471" type="curve" smooth="yes"/>
      <point x="45" y="361"/>
      <point x="144" y="297"/>
      <point x="270" y="297" type="curve" smooth="yes"/>
      <point x="398" y="297"/>
      <point x="499" y="361"/>
      <point x="499" y="471" type="curve" smooth="yes"/>
      <point x="499" y="607"/>
      <point x="398" y="666"/>
      <point x="270" y="666" type="curve" smooth="yes"/>
      <point x="144" y="666"/>
      <point x="45" y="597"/>
    </contour>
    <contour>
      <point x="270" y="550" type="curve" smooth="yes"/>
      <point x="340" y="550"/>
      <point x="353" y="511"/>
      <point x="353" y="473" type="curve" smooth="yes"/>
      <point x="353" y="419"/>
      <point x="315" y="393"/>
      <point x="273" y="393" type="curve" smooth="yes"/>
      <point x="229" y="393"/>
      <point x="192" y="420"/>
      <point x="192" y="473" type="curve" smooth="yes"/>
      <point x="192" y="511"/>
      <point x="212" y="550"/>
    </contour>
    <contour>
      <point x="35" y="177" type="curve" smooth="yes"/>
      <point x="35" y="62"/>
      <point x="126" y="-10"/>
      <point x="270" y="-10" type="curve" smooth="yes"/>
      <point x="412" y="-10"/>
      <point x="510" y="67"/>
      <point x="510" y="182" type="curve" smooth="yes"/>
      <point x="510" y="319"/>
      <point x="398" y="359"/>
      <point x="270" y="359" type="curve" smooth="yes"/>
      <point x="144" y="359"/>
      <point x="35" y="305"/>
    </contour>
    <contour>
      <point x="271" y="265" type="curve" smooth="yes"/>
      <point x="332" y="265"/>
      <point x="364" y="229"/>
      <point x="364" y="183" type="curve" smooth="yes"/>
      <point x="364" y="145"/>
      <point x="337" y="106"/>
      <point x="271" y="106" type="curve" smooth="yes"/>
      <point x="204" y="106"/>
      <point x="181" y="144"/>
      <point x="181" y="181" type="curve" smooth="yes"/>
      <point x="181" y="222"/>
      <point x="207" y="265"/>
    </contour>
  </outline>
</glyph>
<glyph name="semicolon" format="1">
  <advance width="294"/>
  <unicode hex="003B"/>
  <outline>
    <contour>
      <point x="73" y="419" type="curve" smooth="yes"/>
      <point x="73" y="370"/>
      <point x="112" y="331"/>
      <point x="161" y="331" type="curve" smooth="yes"/>
      <point x="210" y="331"/>
      <point x="249" y="370"/>
      <point x="249" y="419" type="curve" smooth="yes"/>
      <point x="249" y="468"/>
      <point x="210" y="507"/>
      <point x="161" y="507" type="curve" smooth="yes"/>
      <point x="112" y="507"/>
      <point x="73" y="468"/>
    </contour>
    <contour>
      <point x="-7" y="-127" type="line"/>
      <point x="119" y="-127" type="line"/>
      <point x="255" y="134" type="line"/>
      <point x="94" y="134" type="line"/>
    </contour>
  </outline>
</glyph>
<glyph name="equal" format="1">
  <advance width="589"/>
  <unicode hex="003D"/>
  <outline>
    <contour>
      <point x="45" y="394" type="line"/>
      <point x="544" y="394" type="line"/>
      <point x="544" y="514" type="line"/>
      <point x="45" y="514" type="line"/>
    </contour>
    <contour>
      <point x="45" y="166" type="line"/>
      <point x="544" y="166" type="line"/>
      <point x="544" y="286" type="line"/>
      <point x="45" y="286" type="line"/>
    </contour>
  </outline>
</glyph>
<glyph name="question" format="1">
  <advance width="458"/>
  <unicode hex="003F"/>
  <outline>
    <contour>
      <point x="65" y="517" type="line"/>
      <point x="106" y="544"/>
      <point x="150" y="560"/>
      <point x="195" y="560" type="curve" smooth="yes"/>
      <point x="253" y="560"/>
      <point x="280" y="527"/>
      <point x="280" y="481" type="curve" smooth="yes"/>
      <point x="280" y="421"/>
      <point x="238" y="387"/>
      <point x="126" y="387" type="curve"/>
      <point x="129" y="236" type="line"/>
      <point x="262" y="236" type="line"/>
      <point x="265" y="318" type="line"/>
      <point x="315" y="319"/>
      <point x="428" y="371"/>
      <point x="428" y="499" type="curve" smooth="yes"/>
      <point x="428" y="613"/>
      <point x="341" y="682"/>
      <point x="218" y="682" type="curve" smooth="yes"/>
      <point x="156" y="682"/>
      <point x="106" y="673"/>
      <point x="65" y="654" type="curve"/>
    </contour>
    <contour>
      <point x="103" y="83" type="curve" smooth="yes"/>
      <point x="103" y="32"/>
      <point x="143" y="-8"/>
      <point x="194" y="-8" type="curve" smooth="yes"/>
      <point x="245" y="-8"/>
      <point x="285" y="32"/>
      <point x="285" y="83" type="curve" smooth="yes"/>
      <point x="285" y="134"/>
      <point x="245" y="174"/>
      <point x="194" y="174" type="curve" smooth="yes"/>
      <point x="143" y="174"/>
      <point x="103" y="134"/>
    </contour>
  </outline>
</glyph>
<glyph name="B" format="1">
  <advance width="605"/>
  <unicode hex="0042"/>
  <outline>
    <contour>
      <point x="554" y="488" type="curve" smooth="yes"/>
      <point x="554" y="589"/>
      <point x="483" y="674"/>
      <point x="327" y="674" type="curve"/>
      <point x="65" y="674" type="line"/>
      <point x="65" y="551" type="line"/>
      <point x="301" y="551" type="line"/>
      <point x="368" y="551"/>
      <point x="397" y="525"/>
      <point x="397" y="480" type="curve" smooth="yes"/>
      <point x="397" y="435"/>
      <point x="359" y="400"/>
      <point x="276" y="400" type="curve"/>
      <point x="65" y="400" type="line"/>
      <point x="65" y="279" type="line"/>
      <point x="301" y="279" type="line"/>
      <point x="387" y="279"/>
      <point x="414" y="243"/>
      <point x="414" y="201" type="curve" smooth="yes"/>
      <point x="414" y="151"/>
      <point x="378" y="123"/>
      <point x="300" y="123" type="curve"/>
      <point x="65" y="123" type="line"/>
      <point x="65" y="0" type="line"/>
      <point x="356" y="0" type="line"/>
      <point x="491" y="0"/>
      <point x="570" y="79"/>
      <point x="570" y="183" type="curve" smooth="yes"/>
      <point x="570" y="277"/>
      <point x="514" y="323"/>
      <point x="453" y="341" type="curve"/>
      <point x="512" y="360"/>
      <point x="554" y="417"/>
    </contour>
    <contour>
      <point x="65" y="0" type="line"/>
      <point x="219" y="0" type="line"/>
      <point x="219" y="674" type="line"/>
      <point x="65" y="674" type="line"/>
    </contour>
  </outline>
</glyph>
<glyph name="C" format="1">
  <advance width="613"/>
  <unicode hex="0043"/>
  <outline>
    <contour>
      <point x="205" y="335" type="curve" smooth="yes"/>
      <point x="205" y="208"/>
      <point x="288" y="133"/>
      <point x="402" y="133" type="curve" smooth="yes"/>
      <point x="455" y="133"/>
      <point x="518" y="149"/>
      <point x="563" y="181" type="curve"/>
      <point x="563" y="30" type="line"/>
      <point x="508" y="-4"/>
      <point x="435" y="-8"/>
      <point x="387" y="-8" type="curve" smooth="yes"/>
      <point x="193" y="-8"/>
      <point x="40" y="129"/>
      <point x="40" y="335" type="curve" smooth="yes"/>
      <point x="40" y="540"/>
      <point x="180" y="683"/>
      <point x="388" y="683" type="curve" smooth="yes"/>
      <point x="436" y="683"/>
      <point x="508" y="679"/>
      <point x="563" y="645" type="curve"/>
      <point x="563" y="497" type="line"/>
      <point x="503" y="534"/>
      <point x="456" y="543"/>
      <point x="396" y="543" type="curve" smooth="yes"/>
      <point x="292" y="543"/>
      <point x="205" y="466"/>
    </contour>
  </outline>
</glyph>
<glyph name="D" format="1">
  <advance width="683"/>
  <unicode hex="0044"/>
  <outline>
    <contour>
      <point x="65" y="0" type="line"/>
      <point x="223" y="0" type="line"/>
      <point x="223" y="674" type="line"/>
      <point x="65" y="674" type="line"/>
    </contour>
    <contour>
      <point x="295" y="0" type="line"/>
      <point x="502" y="0"/>
      <point x="643" y="130"/>
      <point x="643" y="348" type="curve" smooth="yes"/>
      <point x="643" y="530"/>
      <point x="503" y="674"/>
      <point x="297" y="674" type="curve" smooth="yes"/>
      <point x="65" y="674" type="line"/>
      <point x="65" y="547" type="line"/>
      <point x="292" y="547" type="line"/>
      <point x="419" y="547"/>
      <point x="487" y="464"/>
      <point x="487" y="348" type="curve" smooth="yes"/>
      <point x="487" y="207"/>
      <point x="418" y="126"/>
      <point x="293" y="126" type="curve" smooth="yes"/>
      <point x="65" y="126" type="line"/>
      <point x="65" y="0" type="line"/>
    </contour>
  </outline>
</glyph>
<glyph name="E" format="1">
  <advance width="544"/>
  <unicode hex="0045"/>
  <outline>
    <contour>
      <point x="123" y="0" type="line"/>
      <point x="484" y="0" type="line"/>
      <point x="484" y="123" type="line"/>
      <point x="123" y="123" type="line"/>
    </contour>
    <contour>
      <point x="65" y="0" type="line"/>
      <point x="220" y="0" type="line"/>
      <point x="220" y="674" type="line"/>
      <point x="65" y="674" type="line"/>
    </contour>
    <contour>
      <point x="123" y="276" type="line"/>
      <point x="452" y="276" type="line"/>
      <point x="452" y="398" type="line"/>
      <point x="123" y="398" type="line"/>
    </contour>
    <contour>
      <point x="123" y="551" type="line"/>
      <point x="480" y="551" type="line"/>
      <point x="480" y="674" type="line"/>
      <point x="123" y="674" type="line"/>
    </contour>
  </outline>
</glyph>
<glyph name="H" format="1">
  <advance width="686"/>
  <unicode hex="0048"/>
  <outline>
    <contour>
      <point x="134" y="269" type="line"/>
      <point x="527" y="269" type="line"/>
      <point x="527" y="400" type="line"/>
      <point x="134" y="400" type="line"/>
    </contour>
    <contour>
      <point x="466" y="0" type="line"/>
      <point x="621" y="0" type="line"/>
      <point x="621" y="674" type="line"/>
      <point x="466" y="674" type="line"/>
    </contour>
    <contour>
      <point x="65" y="0" type="line"/>
      <point x="219" y="0" type="line"/>
      <point x="219" y="674" type="line"/>
      <point x="65" y="674" type="line"/>
    </contour>
  </outline>
</glyph>
<glyph name="K" format="1">
  <advance width="662"/>
  <unicode hex="004B"/>
  <outline>
    <contour>
      <point x="65" y="0" type="line"/>
      <point x="219" y="0" type="line"/>
      <point x="219" y="674" type="line"/>
      <point x="65" y="674" type="line"/>
    </contour>
    <contour>
      <point x="226" y="335" type="line"/>
      <point x="452" y="0" type="line"/>
      <point x="645" y="0" type="line"/>
      <point x="406" y="337" type="line"/>
    </contour>
    <contour>
      <point x="406" y="337" type="line"/>
      <point x="627" y="674" type="line"/>
      <point x="444" y="674" type="line"/>
      <point x="226" y="335" type="line"/>
    </contour>
  </outline>
</glyph>
<glyph name="M" format="1">
  <advance width="893"/>
  <unicode hex="004D"/>
  <outline>
    <contour>
      <point x="50" y="0" type="line"/>
      <point x="204" y="0" type="line"/>
      <point x="225" y="261" type="line" smooth="yes"/>
      <point x="230" y="331"/>
      <point x="234" y="400"/>
      <point x="234" y="458" type="curve" smooth="yes"/>
      <point x="234" y="458"/>
      <point x="248" y="400"/>
      <point x="299" y="261" type="curve" smooth="yes"/>
      <point x="393" y="7" type="line"/>
      <point x="484" y="7" type="line"/>
      <point x="579" y="261" type="line" smooth="yes"/>
      <point x="625" y="383"/>
      <point x="651" y="458"/>
      <point x="651" y="458" type="curve"/>
      <point x="651" y="458"/>
      <point x="653" y="382"/>
      <point x="664" y="261" type="curve" smooth="yes"/>
      <point x="689" y="0" type="line"/>
      <point x="843" y="0" type="line"/>
      <point x="773" y="674" type="line"/>
      <point x="604" y="674" type="line"/>
      <point x="509" y="430" type="line" smooth="yes"/>
      <point x="455" y="292"/>
      <point x="439" y="226"/>
      <point x="439" y="226" type="curve"/>
      <point x="439" y="226"/>
      <point x="424" y="293"/>
      <point x="371" y="430" type="curve" smooth="yes"/>
      <point x="277" y="674" type="line"/>
      <point x="108" y="674" type="line"/>
    </contour>
  </outline>
</glyph>
<glyph name="P" format="1">
  <advance width="563"/>
  <unicode hex="0050"/>
  <outline>
    <contour>
      <point x="297" y="218" type="line"/>
      <point x="430" y="218"/>
      <point x="548" y="295"/>
      <point x="548" y="451" type="curve" smooth="yes"/>
      <point x="548" y="578"/>
      <point x="449" y="674"/>
      <point x="297" y="674" type="curve"/>
      <point x="65" y="674" type="line"/>
      <point x="65" y="551" type="line"/>
      <point x="295" y="551" type="line"/>
      <point x="359" y="547"/>
      <point x="392" y="497"/>
      <point x="392" y="451" type="curve" smooth="yes"/>
      <point x="392" y="394"/>
      <point x="359" y="348"/>
      <point x="295" y="340" type="curve"/>
      <point x="65" y="340" type="line"/>
      <point x="65" y="218" type="line"/>
    </contour>
    <contour>
      <point x="65" y="0" type="line"/>
      <point x="219" y="0" type="line"/>
      <point x="219" y="674" type="line"/>
      <point x="65" y="674" type="line"/>
    </contour>
  </outline>
</glyph>
<glyph name="Q" format="1">
  <advance width="741"/>
  <unicode hex="0051"/>
  <outline>
    <contour>
      <point x="40" y="339" type="curve" smooth="yes"/>
      <point x="40" y="132"/>
      <point x="167" y="-7"/>
      <point x="368" y="-7" type="curve" smooth="yes"/>
      <point x="568" y="-7"/>
      <point x="696" y="133"/>
      <point x="696" y="339" type="curve" smooth="yes"/>
      <point x="696" y="546"/>
      <point x="569" y="685"/>
      <point x="368" y="685" type="curve" smooth="yes"/>
      <point x="168" y="685"/>
      <point x="40" y="545"/>
    </contour>
    <contour>
      <point x="205" y="339" type="curve" smooth="yes"/>
      <point x="205" y="465"/>
      <point x="268" y="545"/>
      <point x="368" y="545" type="curve" smooth="yes"/>
      <point x="468" y="545"/>
      <point x="531" y="465"/>
      <point x="531" y="339" type="curve" smooth="yes"/>
      <point x="531" y="213"/>
      <point x="468" y="133"/>
      <point x="368" y="133" type="curve" smooth="yes"/>
      <point x="268" y="133"/>
      <point x="205" y="213"/>
    </contour>
    <contour>
      <point x="287" y="49" type="line"/>
      <point x="563" y="-151" type="line"/>
      <point x="738" y="-84" type="line"/>
      <point x="445" y="80" type="line"/>
    </contour>
  </outline>
</glyph>
<glyph name="U" format="1">
  <advance width="668"/>
  <unicode hex="0055"/>
  <outline>
    <contour>
      <point x="454" y="260" type="line"/>
      <point x="454" y="158"/>
      <point x="400" y="130"/>
      <point x="334" y="130" type="curve" smooth="yes"/>
      <point x="271" y="130"/>
      <point x="214" y="158"/>
      <point x="214" y="255" type="curve"/>
      <point x="214" y="674" type="line"/>
      <point x="60" y="674" type="line"/>
      <point x="60" y="254" type="line"/>
      <point x="60" y="81"/>
      <point x="174" y="-10"/>
      <point x="334" y="-10" type="curve" smooth="yes"/>
      <point x="497" y="-10"/>
      <point x="608" y="81"/>
      <point x="608" y="261" type="curve"/>
      <point x="608" y="674" type="line"/>
      <point x="454" y="674" type="line"/>
    </contour>
  </outline>
</glyph>
<glyph name="V" format="1">
  <advance width="659"/>
  <unicode hex="0056"/>
  <outline>
    <contour>
      <point x="640" y="674" type="line"/>
      <point x="476" y="674" type="line"/>
      <point x="395" y="405" type="line" smooth="yes"/>
      <point x="346" y="243"/>
      <point x="330" y="139"/>
      <point x="330" y="139" type="curve"/>
      <point x="330" y="139"/>
      <point x="315" y="243"/>
      <point x="266" y="405" type="curve" smooth="yes"/>
      <point x="185" y="674" type="line"/>
      <point x="19" y="674" type="line"/>
      <point x="243" y="0" type="line"/>
      <point x="413" y="0" type="line"/>
    </contour>
  </outline>
</glyph>
<glyph name="W" format="1">
  <advance width="971"/>
  <unicode hex="0057"/>
  <outline>
    <contour>
      <point x="545" y="664" type="line"/>
      <point x="611" y="426" type="line" smooth="yes"/>
      <point x="658" y="257"/>
      <point x="677" y="168"/>
      <point x="677" y="168" type="curve"/>
      <point x="677" y="168"/>
      <point x="690" y="257"/>
      <point x="733" y="427" type="curve" smooth="yes"/>
      <point x="795" y="674" type="line"/>
      <point x="952" y="674" type="line"/>
      <point x="772" y="0" type="line"/>
      <point x="600" y="0" type="line"/>
      <point x="541" y="213" type="line" smooth="yes"/>
      <point x="493" y="386"/>
      <point x="488" y="426"/>
      <point x="488" y="426" type="curve"/>
      <point x="488" y="426"/>
      <point x="485" y="385"/>
      <point x="434" y="213" type="curve" smooth="yes"/>
      <point x="372" y="0" type="line"/>
      <point x="200" y="0" type="line"/>
      <point x="19" y="674" type="line"/>
      <point x="181" y="674" type="line"/>
      <point x="243" y="426" type="line" smooth="yes"/>
      <point x="287" y="246"/>
      <point x="296" y="168"/>
      <point x="296" y="168" type="curve"/>
      <point x="296" y="168"/>
      <point x="313" y="246"/>
      <point x="364" y="426" type="curve" smooth="yes"/>
      <point x="431" y="664" type="line"/>
    </contour>
  </outline>
</glyph>
<glyph name="Y" format="1">
  <advance width="643"/>
  <unicode hex="0059"/>
  <outline>
    <contour>
      <point x="260" y="215" type="line"/>
      <point x="13" y="674" type="line"/>
      <point x="193" y="674" type="line"/>
      <point x="234" y="576" type="line" smooth="yes"/>
      <point x="305" y="405"/>
      <point x="319" y="360"/>
      <point x="319" y="360" type="curve"/>
      <point x="319" y="360"/>
      <point x="329" y="405"/>
      <point x="407" y="576" type="curve" smooth="yes"/>
      <point x="451" y="674" type="line"/>
      <point x="630" y="674" type="line"/>
      <point x="379" y="215" type="line"/>
    </contour>
    <contour>
      <point x="243" y="252" type="line"/>
      <point x="397" y="252" type="line"/>
      <point x="397" y="0" type="line"/>
      <point x="243" y="0" type="line"/>
    </contour>
  </outline>
</glyph>
<glyph name="Z" format="1">
  <advance width="621"/>
  <unicode hex="005A"/>
  <outline>
    <contour>
      <point x="549" y="674" type="line"/>
      <point x="66" y="674" type="line"/>
      <point x="66" y="550" type="line"/>
      <point x="362" y="550" type="line"/>
      <point x="60" y="113" type="line"/>
      <point x="60" y="0" type="line"/>
      <point x="561" y="0" type="line"/>
      <point x="561" y="124" type="line"/>
      <point x="245" y="124" type="line"/>
      <point x="549" y="565" type="line"/>
    </contour>
  </outline>
</glyph>
<glyph name="backslash" format="1">
  <advance width="464"/>
  <unicode hex="005C"/>
  <outline>
    <contour>
      <point x="466" y="-103" type="line"/>
      <point x="315" y="-103" type="line"/>
      <point x="-45" y="707" type="line"/>
      <point x="107" y="707" type="line"/>
    </contour>
  </outline>
</glyph>
<glyph name="asciicircum" format="1">
  <advance width="491"/>
  <unicode hex="005E"/>
  <outline>
    <contour>
      <point x="33" y="332" type="line"/>
      <point x="168" y="332" type="line"/>
      <point x="307" y="594" type="line"/>
      <point x="184" y="594" type="line"/>
    </contour>
    <contour>
      <point x="307" y="594" type="line"/>
      <point x="184" y="594" type="line"/>
      <point x="323" y="332" type="line"/>
      <point x="458" y="332" type="line"/>
    </contour>
  </outline>
</glyph>
<glyph name="c" format="1">
  <advance width="469"/>
  <unicode hex="0063"/>
  <outline>
    <contour>
      <point x="183" y="252" type="curve"/>
      <point x="184" y="347"/>
      <point x="243" y="394"/>
      <point x="321" y="394" type="curve" smooth="yes"/>
      <point x="361" y="394"/>
      <point x="404" y="383"/>
      <point x="439" y="361" type="curve"/>
      <point x="439" y="486" type="line"/>
      <point x="393" y="510"/>
      <point x="346" y="515"/>
      <point x="306" y="515" type="curve" smooth="yes"/>
      <point x="134" y="515"/>
      <point x="37" y="398"/>
      <point x="35" y="252" type="curve"/>
      <point x="35" y="98"/>
      <point x="146" y="-8"/>
      <point x="297" y="-8" type="curve" smooth="yes"/>
      <point x="349" y="-8"/>
      <point x="400" y="3"/>
      <point x="439" y="24" type="curve"/>
      <point x="439" y="146" type="line"/>
      <point x="401" y="123"/>
      <point x="358" y="111"/>
      <point x="318" y="111" type="curve" smooth="yes"/>
      <point x="239" y="111"/>
      <point x="188" y="163"/>
    </contour>
  </outline>
</glyph>
<glyph name="e" format="1">
  <advance width="533"/>
  <unicode hex="0065"/>
  <outline>
    <contour>
      <point x="127" y="196" type="line"/>
      <point x="481" y="196" type="line"/>
      <point x="484" y="217"/>
      <point x="489" y="253"/>
      <point x="489" y="275" type="curve" smooth="yes"/>
      <point x="489" y="437"/>
      <point x="400" y="512"/>
      <point x="269" y="512" type="curve" smooth="yes"/>
      <point x="143" y="512"/>
      <point x="35" y="422"/>
      <point x="35" y="254" type="curve" smooth="yes"/>
      <point x="35" y="107"/>
      <point x="127" y="-5"/>
      <point x="299" y="-5" type="curve" smooth="yes"/>
      <point x="350" y="-5"/>
      <point x="421" y="5"/>
      <point x="458" y="29" type="curve"/>
      <point x="458" y="151" type="line"/>
      <point x="426" y="127"/>
      <point x="384" y="108"/>
      <point x="324" y="108" type="curve" smooth="yes"/>
      <point x="236" y="108"/>
      <point x="173" y="160"/>
      <point x="173" y="254" type="curve"/>
      <point x="173" y="356"/>
      <point x="224" y="401"/>
      <point x="275" y="401" type="curve" smooth="yes"/>
      <point x="331" y="401"/>
      <point x="349" y="361"/>
      <point x="353" y="312" type="curve" smooth="yes"/>
      <point x="353" y="308"/>
      <point x="353" y="304"/>
      <point x="353" y="300" type="curve"/>
      <point x="127" y="300" type="line"/>
    </contour>
  </outline>
</glyph>
<glyph name="i" format="1">
  <advance width="276"/>
  <unicode hex="0069"/>
  <outline>
    <contour>
      <point x="65" y="0" type="line"/>
      <point x="211" y="0" type="line"/>
      <point x="211" y="507" type="line"/>
      <point x="65" y="507" type="line"/>
    </contour>
    <contour>
      <point x="53" y="654" type="curve" smooth="yes"/>
      <point x="53" y="607"/>
      <point x="91" y="569"/>
      <point x="138" y="569" type="curve" smooth="yes"/>
      <point x="185" y="569"/>
      <point x="223" y="607"/>
      <point x="223" y="654" type="curve" smooth="yes"/>
      <point x="223" y="701"/>
      <point x="185" y="739"/>
      <point x="138" y="739" type="curve" smooth="yes"/>
      <point x="91" y="739"/>
      <point x="53" y="701"/>
    </contour>
  </outline>
</glyph>
<glyph name="j" format="1">
  <advance width="274"/>
  <unicode hex="006A"/>
  <outline>
    <contour>
      <point x="-40" y="-182" type="line"/>
      <point x="-7" y="-194"/>
      <point x="16" y="-198"/>
      <point x="39" y="-198" type="curve" smooth="yes"/>
      <point x="155" y="-198"/>
      <point x="214" y="-125"/>
      <point x="214" y="-21" type="curve" smooth="yes"/>
      <point x="214" y="507" type="line"/>
      <point x="69" y="507" type="line"/>
      <point x="69" y="-19" type="line"/>
      <point x="69" y="-68"/>
      <point x="47" y="-86"/>
      <point x="17" y="-86" type="curve" smooth="yes"/>
      <point x="0" y="-86"/>
      <point x="-20" y="-80"/>
      <point x="-40" y="-71" type="curve"/>
    </contour>
    <contour>
      <point x="56" y="654" type="curve" smooth="yes"/>
      <point x="56" y="607"/>
      <point x="94" y="569"/>
      <point x="141" y="569" type="curve" smooth="yes"/>
      <point x="188" y="569"/>
      <point x="226" y="607"/>
      <point x="226" y="654" type="curve" smooth="yes"/>
      <point x="226" y="701"/>
      <point x="188" y="739"/>
      <point x="141" y="739" type="curve" smooth="yes"/>
      <point x="94" y="739"/>
      <point x="56" y="701"/>
    </contour>
  </outline>
</glyph>
<glyph name="k" format="1">
  <advance width="548"/>
  <unicode hex="006B"/>
  <outline>
    <contour>
      <point x="195" y="264" type="line"/>
      <point x="358" y="264" type="line"/>
      <point x="534" y="507" type="line"/>
      <point x="366" y="507" type="line"/>
    </contour>
    <contour>
      <point x="60" y="0" type="line"/>
      <point x="206" y="0" type="line"/>
      <point x="206" y="690" type="line"/>
      <point x="60" y="690" type="line"/>
    </contour>
    <contour>
      <point x="368" y="0" type="line"/>
      <point x="537" y="0" type="line"/>
      <point x="358" y="264" type="line"/>
      <point x="196" y="264" type="line"/>
    </contour>
  </outline>
</glyph>
<glyph name="l" format="1">
  <advance width="276"/>
  <unicode hex="006C"/>
  <outline>
    <contour>
      <point x="65" y="0" type="line"/>
      <point x="211" y="0" type="line"/>
      <point x="211" y="707" type="line"/>
      <point x="65" y="707" type="line"/>
    </contour>
  </outline>
</glyph>
<glyph name="n" format="1">
  <advance width="580"/>
  <unicode hex="006E"/>
  <outline>
    <contour>
      <point x="60" y="0" type="line"/>
      <point x="206" y="0" type="line"/>
      <point x="206" y="507" type="line"/>
      <point x="60" y="507" type="line"/>
    </contour>
    <contour>
      <point x="379" y="0" type="line"/>
      <point x="525" y="0" type="line"/>
      <point x="525" y="329" type="line" smooth="yes"/>
      <point x="525" y="451"/>
      <point x="460" y="512"/>
      <point x="359" y="512" type="curve" smooth="yes"/>
      <point x="251" y="512"/>
      <point x="189" y="437"/>
      <point x="189" y="339" type="curve"/>
      <point x="189" y="268" type="line"/>
      <point x="206" y="268" type="line"/>
      <point x="206" y="356"/>
      <point x="249" y="394"/>
      <point x="299" y="394" type="curve" smooth="yes"/>
      <point x="348" y="394"/>
      <point x="379" y="364"/>
      <point x="379" y="302" type="curve" smooth="yes"/>
    </contour>
  </outline>
</glyph>
<glyph name="o" format="1">
  <advance width="567"/>
  <unicode hex="006F"/>
  <outline>
    <contour>
      <point x="284" y="-8" type="curve" smooth="yes"/>
      <point x="445" y="-8"/>
      <point x="532" y="108"/>
      <point x="532" y="256" type="curve" smooth="yes"/>
      <point x="532" y="400"/>
      <point x="448" y="515"/>
      <point x="284" y="515" type="curve" smooth="yes"/>
      <point x="130" y="515"/>
      <point x="35" y="400"/>
      <point x="35" y="247" type="curve" smooth="yes"/>
      <point x="35" y="105"/>
      <point x="119" y="-8"/>
    </contour>
    <contour>
      <point x="283" y="400" type="curve" smooth="yes"/>
      <point x="356" y="400"/>
      <point x="380" y="332"/>
      <point x="380" y="251" type="curve" smooth="yes"/>
      <point x="380" y="170"/>
      <point x="353" y="105"/>
      <point x="285" y="105" type="curve" smooth="yes"/>
      <point x="217" y="105"/>
      <point x="187" y="172"/>
      <point x="187" y="253" type="curve" smooth="yes"/>
      <point x="187" y="334"/>
      <point x="216" y="400"/>
    </contour>
  </outline>
</glyph>
<glyph name="s" format="1">
  <advance width="436"/>
  <unicode hex="0073"/>
  <outline>
    <contour>
      <point x="380" y="492" type="line"/>
      <point x="345" y="506"/>
      <point x="297" y="513"/>
      <point x="250" y="513" type="curve" smooth="yes"/>
      <point x="143" y="513"/>
      <point x="53" y="459"/>
      <point x="53" y="357" type="curve" smooth="yes"/>
      <point x="53" y="277"/>
      <point x="103" y="237"/>
      <point x="154" y="213" type="curve" smooth="yes"/>
      <point x="204" y="190"/>
      <point x="256" y="176"/>
      <point x="256" y="144" type="curve" smooth="yes"/>
      <point x="256" y="121"/>
      <point x="235" y="109"/>
      <point x="201" y="109" type="curve" smooth="yes"/>
      <point x="143" y="109"/>
      <point x="88" y="134"/>
      <point x="55" y="157" type="curve"/>
      <point x="55" y="27" type="line"/>
      <point x="89" y="10"/>
      <point x="146" y="-4"/>
      <point x="209" y="-4" type="curve" smooth="yes"/>
      <point x="324" y="-4"/>
      <point x="406" y="50"/>
      <point x="406" y="153" type="curve" smooth="yes"/>
      <point x="406" y="226"/>
      <point x="354" y="263"/>
      <point x="304" y="289" type="curve" smooth="yes"/>
      <point x="253" y="315"/>
      <point x="202" y="329"/>
      <point x="202" y="361" type="curve" smooth="yes"/>
      <point x="202" y="382"/>
      <point x="220" y="398"/>
      <point x="256" y="398" type="curve" smooth="yes"/>
      <point x="303" y="398"/>
      <point x="349" y="385"/>
      <point x="380" y="367" type="curve"/>
    </contour>
  </outline>
</glyph>
<glyph name="v" format="1">
  <advance width="536"/>
  <unicode hex="0076"/>
  <outline>
    <contour>
      <point x="5" y="507" type="line"/>
      <point x="158" y="507" type="line"/>
      <point x="224" y="291" type="line" smooth="yes"/>
      <point x="258" y="178"/>
      <point x="268" y="113"/>
      <point x="268" y="113" type="curve"/>
      <point x="268" y="113"/>
      <point x="277" y="178"/>
      <point x="313" y="291" type="curve" smooth="yes"/>
      <point x="381" y="507" type="line"/>
      <point x="531" y="507" type="line"/>
      <point x="342" y="0" type="line"/>
      <point x="192" y="0" type="line"/>
    </contour>
  </outline>
</glyph>
<glyph name="x" format="1">
  <advance width="526"/>
  <unicode hex="0078"/>
  <outline>
    <contour>
      <point x="509" y="0" type="line"/>
      <point x="350" y="0" type="line"/>
      <point x="265" y="152" type="line"/>
      <point x="174" y="0" type="line"/>
      <point x="16" y="0" type="line"/>
      <point x="197" y="254" type="line"/>
      <point x="27" y="507" type="line"/>
      <point x="189" y="507" type="line"/>
      <point x="271" y="356" type="line"/>
      <point x="362" y="507" type="line"/>
      <point x="522" y="507" type="line"/>
      <point x="340" y="253" type="line"/>
    </contour>
  </outline>
</glyph>
<glyph name="braceleft" format="1">
  <advance width="380"/>
  <unicode hex="007B"/>
  <outline>
    <contour>
      <point x="169" y="255" type="curve"/>
      <point x="229" y="263"/>
      <point x="285" y="322"/>
      <point x="285" y="407" type="curve" smooth="yes"/>
      <point x="285" y="451"/>
      <point x="273" y="494"/>
      <point x="273" y="522" type="curve" smooth="yes"/>
      <point x="273" y="555"/>
      <point x="297" y="577"/>
      <point x="324" y="577" type="curve" smooth="yes"/>
      <point x="334" y="577"/>
      <point x="345" y="574"/>
      <point x="355" y="568" type="curve"/>
      <point x="355" y="568"/>
      <point x="355" y="704"/>
      <point x="355" y="703" type="curve"/>
      <point x="332" y="711"/>
      <point x="310" y="715"/>
      <point x="289" y="715" type="curve" smooth="yes"/>
      <point x="196" y="715"/>
      <point x="130" y="639"/>
      <point x="130" y="535" type="curve" smooth="yes"/>
      <point x="130" y="493"/>
      <point x="142" y="455"/>
      <point x="142" y="421" type="curve" smooth="yes"/>
      <point x="142" y="374"/>
      <point x="112" y="325"/>
      <point x="57" y="325" type="curve" smooth="yes"/>
      <point x="47" y="325"/>
      <point x="40" y="325"/>
      <point x="40" y="325" type="curve"/>
      <point x="40" y="325"/>
      <point x="40" y="184"/>
      <point x="40" y="184" type="curve"/>
      <point x="40" y="184"/>
      <point x="47" y="185"/>
      <point x="57" y="185" type="curve" smooth="yes"/>
      <point x="112" y="185"/>
      <point x="142" y="135"/>
      <point x="142" y="88" type="curve" smooth="yes"/>
      <point x="142" y="54"/>
      <point x="130" y="16"/>
      <point x="130" y="-26" type="curve" smooth="yes"/>
      <point x="130" y="-130"/>
      <point x="196" y="-206"/>
      <point x="289" y="-206" type="curve" smooth="yes"/>
      <point x="310" y="-206"/>
      <point x="332" y="-202"/>
      <point x="355" y="-194" type="curve"/>
      <point x="355" y="-195"/>
      <point x="355" y="-59"/>
      <point x="355" y="-59" type="curve"/>
      <point x="345" y="-65"/>
      <point x="334" y="-68"/>
      <point x="324" y="-68" type="curve" smooth="yes"/>
      <point x="297" y="-68"/>
      <point x="273" y="-46"/>
      <point x="273" y="-13" type="curve" smooth="yes"/>
      <point x="273" y="15"/>
      <point x="285" y="58"/>
      <point x="285" y="102" type="curve" smooth="yes"/>
      <point x="285" y="187"/>
      <point x="229" y="247"/>
    </contour>
  </outline>
</glyph>
<glyph name="bar" format="1">
  <advance width="280"/>
  <unicode hex="007C"/>
  <outline>
    <contour>
      <point x="70" y="-194" type="line"/>
      <point x="210" y="-194" type="line"/>
      <point x="210" y="695" type="line"/>
      <point x="70" y="695" type="line"/>
    </contour>
  </outline>
</glyph>
<glyph name="braceright" format="1">
  <advance width="380"/>
  <unicode hex="007D"/>
  <outline>
    <contour>
      <point x="211" y="255" type="curve"/>
      <point x="151" y="247"/>
      <point x="95" y="187"/>
      <point x="95" y="102" type="curve" smooth="yes"/>
      <point x="95" y="58"/>
      <point x="107" y="15"/>
      <point x="107" y="-13" type="curve" smooth="yes"/>
      <point x="107" y="-46"/>
      <point x="83" y="-68"/>
      <point x="56" y="-68" type="curve" smooth="yes"/>
      <point x="46" y="-68"/>
      <point x="35" y="-65"/>
      <point x="25" y="-59" type="curve"/>
      <point x="25" y="-59"/>
      <point x="25" y="-195"/>
      <point x="25" y="-194" type="curve"/>
      <point x="48" y="-202"/>
      <point x="70" y="-206"/>
      <point x="91" y="-206" type="curve" smooth="yes"/>
      <point x="184" y="-206"/>
      <point x="250" y="-130"/>
      <point x="250" y="-26" type="curve" smooth="yes"/>
      <point x="250" y="16"/>
      <point x="238" y="54"/>
      <point x="238" y="88" type="curve" smooth="yes"/>
      <point x="238" y="135"/>
      <point x="268" y="185"/>
      <point x="323" y="185" type="curve" smooth="yes"/>
      <point x="333" y="185"/>
      <point x="340" y="184"/>
      <point x="340" y="184" type="curve"/>
      <point x="340" y="184"/>
      <point x="340" y="325"/>
      <point x="340" y="325" type="curve"/>
      <point x="340" y="325"/>
      <point x="333" y="325"/>
      <point x="323" y="325" type="curve" smooth="yes"/>
      <point x="268" y="325"/>
      <point x="238" y="374"/>
      <point x="238" y="421" type="curve" smooth="yes"/>
      <point x="238" y="455"/>
      <point x="250" y="493"/>
      <point x="250" y="535" type="curve" smooth="yes"/>
      <point x="250" y="639"/>
      <point x="184" y="715"/>
      <point x="91" y="715" type="curve" smooth="yes"/>
      <point x="70" y="715"/>
      <point x="48" y="711"/>
      <point x="25" y="703" type="curve"/>
      <point x="25" y="704"/>
      <point x="25" y="568"/>
      <point x="25" y="568" type="curve"/>
      <point x="35" y="574"/>
      <point x="46" y="577"/>
      <point x="56" y="577" type="curve" smooth="yes"/>
      <point x="83" y="577"/>
      <point x="107" y="555"/>
      <point x="107" y="522" type="curve" smooth="yes"/>
      <point x="107" y="494"/>
      <point x="95" y="451"/>
      <point x="95" y="407" type="curve" smooth="yes"/>
      <point x="95" y="322"/>
      <point x="151" y="263"/>
    </contour>
  </outline>
</glyph>
<glyph name="exclamdown" format="1">
  <advance width="289"/>
  <unicode hex="00A1"/>
  <outline>
    <contour>
      <point x="75" y="273" type="line"/>
      <point x="214" y="273" type="line"/>
      <point x="214" y="-165" type="line"/>
      <point x="75" y="-165" type="line"/>
    </contour>
    <contour>
      <point x="52" y="426" type="curve" smooth="yes"/>
      <point x="52" y="477"/>
      <point x="92" y="517"/>
      <point x="143" y="517" type="curve" smooth="yes"/>
      <point x="194" y="517"/>
      <point x="234" y="477"/>
      <point x="234" y="426" type="curve" smooth="yes"/>
      <point x="234" y="375"/>
      <point x="194" y="335"/>
      <point x="143" y="335" type="curve" smooth="yes"/>
      <point x="92" y="335"/>
      <point x="52" y="375"/>
    </contour>
  </outline>
</glyph>
<glyph name="currency" format="1">
  <advance width="571"/>
  <unicode hex="00A4"/>
  <outline>
    <contour>
      <point x="58" y="311" type="curve" smooth="yes"/>
      <point x="58" y="271"/>
      <point x="69" y="231"/>
      <point x="87" y="199" type="curve"/>
      <point x="28" y="142" type="line"/>
      <point x="113" y="60" type="line"/>
      <point x="171" y="117" type="line"/>
      <point x="205" y="99"/>
      <point x="244" y="90"/>
      <point x="286" y="90" type="curve" smooth="yes"/>
      <point x="328" y="90"/>
      <point x="366" y="99"/>
      <point x="399" y="116" type="curve"/>
      <point x="458" y="60" type="line"/>
      <point x="543" y="142" type="line"/>
      <point x="484" y="199" type="line"/>
      <point x="502" y="231"/>
      <point x="514" y="271"/>
      <point x="514" y="311" type="curve" smooth="yes"/>
      <point x="514" y="351"/>
      <point x="502" y="390"/>
      <point x="485" y="421" type="curve"/>
      <point x="543" y="478" type="line"/>
      <point x="458" y="560" type="line"/>
      <point x="400" y="504" type="line"/>
      <point x="367" y="521"/>
      <point x="328" y="531"/>
      <point x="286" y="531" type="curve" smooth="yes"/>
      <point x="243" y="531"/>
      <point x="204" y="521"/>
      <point x="171" y="503" type="curve"/>
      <point x="113" y="560" type="line"/>
      <point x="28" y="478" type="line"/>
      <point x="86" y="421" type="line"/>
      <point x="69" y="390"/>
      <point x="58" y="350"/>
    </contour>
    <contour>
      <point x="180" y="311" type="curve" smooth="yes"/>
      <point x="180" y="368"/>
      <point x="223" y="418"/>
      <point x="286" y="418" type="curve" smooth="yes"/>
      <point x="349" y="418"/>
      <point x="392" y="368"/>
      <point x="392" y="311" type="curve" smooth="yes"/>
      <point x="392" y="254"/>
      <point x="349" y="204"/>
      <point x="286" y="204" type="curve" smooth="yes"/>
      <point x="223" y="204"/>
      <point x="180" y="254"/>
    </contour>
  </outline>
</glyph>
<glyph name="brokenbar" format="1">
  <advance width="280"/>
  <unicode hex="00A6"/>
  <outline>
    <contour>
      <point x="210" y="369" type="line"/>
      <point x="210" y="707" type="line"/>
      <point x="70" y="707" type="line"/>
      <point x="70" y="369" type="line"/>
    </contour>
    <contour>
      <point x="210" y="-117" type="line"/>
      <point x="210" y="221" type="line"/>
      <point x="70" y="221" type="line"/>
      <point x="70" y="-117" type="line"/>
    </contour>
  </outline>
</glyph>
<glyph name="dieresis" format="1">
  <advance width="500"/>
  <unicode hex="00A8"/>
  <outline>
    <contour>
      <point x="33" y="710" type="curve" smooth="yes"/>
      <point x="33" y="664"/>
      <point x="68" y="628"/>
      <point x="116" y="628" type="curve" smooth="yes"/>
      <point x="163" y="628"/>
      <point x="198" y="664"/>
      <point x="198" y="710" type="curve" smooth="yes"/>
      <point x="198" y="755"/>
      <point x="163" y="791"/>
      <point x="116" y="791" type="curve" smooth="yes"/>
      <point x="68" y="791"/>
      <point x="33" y="755"/>
    </contour>
    <contour>
      <point x="301" y="710" type="curve" smooth="yes"/>
      <point x="301" y="664"/>
      <point x="336" y="628"/>
      <point x="384" y="628" type="curve" smooth="yes"/>
      <point x="431" y="628"/>
      <point x="467" y="664"/>
      <point x="467" y="710" type="curve" smooth="yes"/>
      <point x="467" y="755"/>
      <point x="431" y="791"/>
      <point x="384" y="791" type="curve" smooth="yes"/>
      <point x="336" y="791"/>
      <point x="301" y="755"/>
    </contour>
  </outline>
</glyph>
<glyph name="ordfeminine" format="1">
  <advance width="400"/>
  <unicode hex="00AA"/>
  <outline>
    <contour>
      <point x="244" y="536" type="line"/>
      <point x="244" y="500"/>
      <point x="223" y="476"/>
      <point x="189" y="476" type="curve" smooth="yes"/>
      <point x="154" y="476"/>
      <point x="138" y="492"/>
      <point x="138" y="519" type="curve" smooth="yes"/>
      <point x="138" y="547"/>
      <point x="161" y="568"/>
      <point x="203" y="568" type="curve" smooth="yes"/>
      <point x="272" y="568" type="line"/>
      <point x="272" y="645" type="line"/>
      <point x="189" y="645" type="line" smooth="yes"/>
      <point x="67" y="645"/>
      <point x="10" y="592"/>
      <point x="10" y="514" type="curve" smooth="yes"/>
      <point x="10" y="444"/>
      <point x="56" y="389"/>
      <point x="142" y="389" type="curve" smooth="yes"/>
      <point x="205" y="389"/>
      <point x="237" y="416"/>
      <point x="250" y="444" type="curve"/>
      <point x="250" y="392" type="line"/>
      <point x="370" y="392" type="line"/>
      <point x="370" y="668" type="line" smooth="yes"/>
      <point x="370" y="778"/>
      <point x="311" y="828"/>
      <point x="189" y="828" type="curve" smooth="yes"/>
      <point x="123" y="828"/>
      <point x="68" y="814"/>
      <point x="42" y="800" type="curve"/>
      <point x="42" y="689" type="line"/>
      <point x="75" y="710"/>
      <point x="122" y="727"/>
      <point x="171" y="727" type="curve" smooth="yes"/>
      <point x="226" y="727"/>
      <point x="244" y="706"/>
      <point x="244" y="673" type="curve" smooth="yes"/>
    </contour>
  </outline>
</glyph>
<glyph name="guillemotleft" format="1">
  <advance width="592"/>
  <unicode hex="00AB"/>
  <outline>
    <contour>
      <point x="26" y="253" type="line"/>
      <point x="178" y="415" type="line"/>
      <point x="330" y="415" type="line"/>
      <point x="184" y="253" type="line"/>
    </contour>
    <contour>
      <point x="184" y="253" type="line"/>
      <point x="330" y="91" type="line"/>
      <point x="178" y="91" type="line"/>
      <point x="26" y="253" type="line"/>
    </contour>
    <contour>
      <point x="246" y="253" type="line"/>
      <point x="398" y="415" type="line"/>
      <point x="550" y="415" type="line"/>
      <point x="404" y="253" type="line"/>
    </contour>
    <contour>
      <point x="404" y="253" type="line"/>
      <point x="550" y="91" type="line"/>
      <point x="398" y="91" type="line"/>
      <point x="246" y="253" type="line"/>
    </contour>
  </outline>
</glyph>
<glyph name="registered" format="1">
  <advance width="492"/>
  <unicode hex="00AE"/>
  <outline>
    <contour>
      <point x="220" y="561" type="line"/>
      <point x="291" y="440" type="line"/>
      <point x="357" y="440" type="line"/>
      <point x="281" y="561" type="line"/>
    </contour>
    <contour>
      <point x="278" y="602" type="curve" smooth="yes"/>
      <point x="278" y="586"/>
      <point x="269" y="571"/>
      <point x="250" y="571" type="curve"/>
      <point x="174" y="571" type="line"/>
      <point x="174" y="526" type="line"/>
      <point x="247" y="526" type="line"/>
      <point x="305" y="526"/>
      <point x="335" y="555"/>
      <point x="335" y="602" type="curve" smooth="yes"/>
      <point x="335" y="648"/>
      <point x="308" y="677"/>
      <point x="244" y="677" type="curve"/>
      <point x="174" y="677" type="line"/>
      <point x="174" y="632" type="line"/>
      <point x="246" y="632" type="line"/>
      <point x="267" y="632"/>
      <point x="278" y="624"/>
    </contour>
    <contour>
      <point x="174" y="440" type="line"/>
      <point x="228" y="440" type="line"/>
      <point x="228" y="677" type="line"/>
      <point x="174" y="677" type="line"/>
    </contour>
    <contour>
      <point x="10" y="551" type="curve" smooth="yes"/>
      <point x="10" y="414"/>
      <point x="109" y="317"/>
      <point x="246" y="317" type="curve" smooth="yes"/>
      <point x="382" y="317"/>
      <point x="482" y="414"/>
      <point x="482" y="551" type="curve" smooth="yes"/>
      <point x="482" y="688"/>
      <point x="382" y="786"/>
      <point x="246" y="786" type="curve" smooth="yes"/>
      <point x="109" y="786"/>
      <point x="10" y="688"/>
    </contour>
    <contour>
      <point x="72" y="551" type="curve" smooth="yes"/>
      <point x="72" y="656"/>
      <point x="140" y="728"/>
      <point x="247" y="728" type="curve" smooth="yes"/>
      <point x="353" y="728"/>
      <point x="421" y="656"/>
      <point x="421" y="551" type="curve" smooth="yes"/>
      <point x="421" y="446"/>
      <point x="353" y="376"/>
      <point x="247" y="376" type="curve" smooth="yes"/>
      <point x="140" y="376"/>
      <point x="72" y="446"/>
    </contour>
  </outline>
</glyph>
<glyph name="threesuperior" format="1">
  <advance width="353"/>
  <unicode hex="00B3"/>
  <outline>
    <contour>
      <point x="123" y="654" type="line"/>
      <point x="168" y="654"/>
      <point x="200" y="666"/>
      <point x="200" y="695" type="curve" smooth="yes"/>
      <point x="200" y="723"/>
      <point x="179" y="736"/>
      <point x="148" y="736" type="curve" smooth="yes"/>
      <point x="118" y="736"/>
      <point x="80" y="723"/>
      <point x="51" y="701" type="curve"/>
      <point x="51" y="802" type="line"/>
      <point x="82" y="820"/>
      <point x="120" y="829"/>
      <point x="158" y="829" type="curve" smooth="yes"/>
      <point x="254" y="829"/>
      <point x="311" y="778"/>
      <point x="311" y="708" type="curve" smooth="yes"/>
      <point x="311" y="655"/>
      <point x="280" y="620"/>
      <point x="230" y="610" type="curve"/>
      <point x="277" y="605"/>
      <point x="318" y="572"/>
      <point x="318" y="510" type="curve" smooth="yes"/>
      <point x="318" y="438"/>
      <point x="260" y="388"/>
      <point x="165" y="388" type="curve" smooth="yes"/>
      <point x="125" y="388"/>
      <point x="68" y="397"/>
      <point x="35" y="415" type="curve"/>
      <point x="35" y="509" type="line"/>
      <point x="69" y="491"/>
      <point x="106" y="479"/>
      <point x="148" y="479" type="curve" smooth="yes"/>
      <point x="187" y="479"/>
      <point x="209" y="499"/>
      <point x="209" y="524" type="curve" smooth="yes"/>
      <point x="209" y="546"/>
      <point x="193" y="565"/>
      <point x="124" y="565" type="curve" smooth="yes"/>
      <point x="109" y="565" type="line"/>
      <point x="109" y="654" type="line"/>
    </contour>
  </outline>
</glyph>
<glyph name="mu.math" format="1">
  <advance width="585"/>
  <unicode hex="00B5"/>
  <outline>
    <contour>
      <point x="525" y="507" type="line"/>
      <point x="379" y="507" type="line"/>
      <point x="379" y="0" type="line"/>
      <point x="525" y="0" type="line"/>
    </contour>
    <contour>
      <point x="206" y="431" type="line"/>
      <point x="110" y="431" type="line"/>
      <point x="110" y="168" type="line" smooth="yes"/>
      <point x="110" y="60"/>
      <point x="186" y="-4"/>
      <point x="275" y="-4" type="curve" smooth="yes"/>
      <point x="365" y="-4"/>
      <point x="408" y="82"/>
      <point x="396" y="177" type="curve"/>
      <point x="379" y="239" type="line"/>
      <point x="379" y="143"/>
      <point x="350" y="112"/>
      <point x="294" y="112" type="curve" smooth="yes"/>
      <point x="245" y="112"/>
      <point x="206" y="142"/>
      <point x="206" y="201" type="curve" smooth="yes"/>
    </contour>
    <contour>
      <point x="206" y="507" type="line"/>
      <point x="60" y="507" type="line"/>
      <point x="60" y="-180" type="line"/>
      <point x="206" y="-180" type="line"/>
    </contour>
  </outline>
</glyph>
<glyph name="ordmasculine" format="1">
  <advance width="442"/>
  <unicode hex="00BA"/>
  <outline>
    <contour>
      <point x="222" y="386" type="curve" smooth="yes"/>
      <point x="358" y="386"/>
      <point x="432" y="484"/>
      <point x="432" y="610" type="curve" smooth="yes"/>
      <point x="432" y="733"/>
      <point x="361" y="830"/>
      <point x="222" y="830" type="curve" smooth="yes"/>
      <point x="90" y="830"/>
      <point x="10" y="733"/>
      <point x="10" y="602" type="curve" smooth="yes"/>
      <point x="10" y="482"/>
      <point x="81" y="386"/>
    </contour>
    <contour>
      <point x="220" y="733" type="curve" smooth="yes"/>
      <point x="283" y="733"/>
      <point x="303" y="675"/>
      <point x="303" y="605" type="curve" smooth="yes"/>
      <point x="303" y="537"/>
      <point x="280" y="482"/>
      <point x="223" y="482" type="curve" smooth="yes"/>
      <point x="164" y="482"/>
      <point x="139" y="538"/>
      <point x="139" y="607" type="curve" smooth="yes"/>
      <point x="139" y="677"/>
      <point x="163" y="733"/>
    </contour>
  </outline>
</glyph>
<glyph name="onehalf" format="1">
  <advance width="833"/>
  <unicode hex="00BD"/>
  <outline>
    <contour>
      <point x="522" y="0" type="line"/>
      <point x="817" y="0" type="line"/>
      <point x="817" y="90" type="line"/>
      <point x="655" y="90" type="line"/>
      <point x="739" y="144"/>
      <point x="803" y="213"/>
      <point x="803" y="300" type="curve" smooth="yes"/>
      <point x="803" y="387"/>
      <point x="739" y="437"/>
      <point x="649" y="437" type="curve" smooth="yes"/>
      <point x="605" y="437"/>
      <point x="562" y="423"/>
      <point x="532" y="404" type="curve"/>
      <point x="532" y="299" type="line"/>
      <point x="563" y="321"/>
      <point x="602" y="336"/>
      <point x="631" y="336" type="curve" smooth="yes"/>
      <point x="672" y="336"/>
      <point x="692" y="316"/>
      <point x="692" y="285" type="curve" smooth="yes"/>
      <point x="692" y="221"/>
      <point x="606" y="138"/>
      <point x="522" y="77" type="curve"/>
    </contour>
    <contour>
      <point x="10" y="537" type="line"/>
      <point x="126" y="599" type="line"/>
      <point x="126" y="278" type="line"/>
      <point x="229" y="278" type="line"/>
      <point x="229" y="711" type="line"/>
      <point x="144" y="711" type="line"/>
      <point x="10" y="635" type="line"/>
    </contour>
    <contour>
      <point x="123" y="0" type="line"/>
      <point x="232" y="0" type="line"/>
      <point x="660" y="711" type="line"/>
      <point x="552" y="711" type="line"/>
    </contour>
  </outline>
</glyph>
<glyph name="threequarters" format="1">
  <advance width="898"/>
  <unicode hex="00BE"/>
  <outline>
    <contour>
      <point x="526" y="171" type="line"/>
      <point x="874" y="171" type="line"/>
      <point x="874" y="86" type="line"/>
      <point x="526" y="86" type="line"/>
    </contour>
    <contour>
      <point x="659" y="430" type="line"/>
      <point x="758" y="430" type="line"/>
      <point x="631" y="171" type="line"/>
      <point x="526" y="171" type="line"/>
    </contour>
    <contour>
      <point x="720" y="430" type="line"/>
      <point x="822" y="430" type="line"/>
      <point x="822" y="0" type="line"/>
      <point x="720" y="0" type="line"/>
    </contour>
    <contour>
      <point x="176" y="0" type="line"/>
      <point x="285" y="0" type="line"/>
      <point x="713" y="711" type="line"/>
      <point x="605" y="711" type="line"/>
    </contour>
    <contour>
      <point x="111" y="539" type="line" smooth="yes"/>
      <point x="156" y="539"/>
      <point x="188" y="551"/>
      <point x="188" y="580" type="curve" smooth="yes"/>
      <point x="188" y="608"/>
      <point x="167" y="621"/>
      <point x="136" y="621" type="curve" smooth="yes"/>
      <point x="106" y="621"/>
      <point x="68" y="608"/>
      <point x="39" y="586" type="curve"/>
      <point x="39" y="687" type="line"/>
      <point x="70" y="705"/>
      <point x="108" y="714"/>
      <point x="146" y="714" type="curve" smooth="yes"/>
      <point x="242" y="714"/>
      <point x="299" y="663"/>
      <point x="299" y="593" type="curve" smooth="yes"/>
      <point x="299" y="540"/>
      <point x="268" y="505"/>
      <point x="218" y="495" type="curve"/>
      <point x="265" y="490"/>
      <point x="306" y="457"/>
      <point x="306" y="395" type="curve" smooth="yes"/>
      <point x="306" y="323"/>
      <point x="248" y="273"/>
      <point x="153" y="273" type="curve" smooth="yes"/>
      <point x="113" y="273"/>
      <point x="56" y="282"/>
      <point x="23" y="300" type="curve"/>
      <point x="23" y="394" type="line"/>
      <point x="57" y="376"/>
      <point x="94" y="364"/>
      <point x="136" y="364" type="curve" smooth="yes"/>
      <point x="175" y="364"/>
      <point x="197" y="384"/>
      <point x="197" y="409" type="curve" smooth="yes"/>
      <point x="197" y="431"/>
      <point x="181" y="450"/>
      <point x="112" y="450" type="curve" smooth="yes"/>
      <point x="97" y="450" type="line"/>
      <point x="97" y="539" type="line"/>
    </contour>
  </outline>
</glyph>
<glyph name="Eth" format="1">
  <advance width="749"/>
  <unicode hex="00D0"/>
  <outline>
    <contour>
      <point x="131" y="0" type="line"/>
      <point x="289" y="0" type="line"/>
      <point x="289" y="674" type="line"/>
      <point x="131" y="674" type="line"/>
    </contour>
    <contour>
      <point x="361" y="0" type="line"/>
      <point x="568" y="0"/>
      <point x="709" y="130"/>
      <point x="709" y="348" type="curve" smooth="yes"/>
      <point x="709" y="530"/>
      <point x="569" y="674"/>
      <point x="363" y="674" type="curve" smooth="yes"/>
      <point x="131" y="674" type="line"/>
      <point x="131" y="547" type="line"/>
      <point x="358" y="547" type="line" smooth="yes"/>
      <point x="485" y="547"/>
      <point x="553" y="464"/>
      <point x="553" y="348" type="curve" smooth="yes"/>
      <point x="553" y="207"/>
      <point x="484" y="126"/>
      <point x="359" y="126" type="curve" smooth="yes"/>
      <point x="131" y="126" type="line"/>
      <point x="131" y="0" type="line"/>
    </contour>
    <contour>
      <point x="427" y="269" type="line"/>
      <point x="427" y="393" type="line"/>
      <point x="65" y="393" type="line"/>
      <point x="65" y="269" type="line"/>
    </contour>
  </outline>
</glyph>
<glyph name="Oslash" format="1">
  <advance width="714"/>
  <unicode hex="00D8"/>
  <outline>
    <contour>
      <point x="38" y="339" type="curve" smooth="yes"/>
      <point x="38" y="132"/>
      <point x="165" y="-7"/>
      <point x="366" y="-7" type="curve" smooth="yes"/>
      <point x="566" y="-7"/>
      <point x="694" y="133"/>
      <point x="694" y="339" type="curve" smooth="yes"/>
      <point x="694" y="546"/>
      <point x="567" y="685"/>
      <point x="366" y="685" type="curve" smooth="yes"/>
      <point x="166" y="685"/>
      <point x="38" y="545"/>
    </contour>
    <contour>
      <point x="196" y="339" type="curve" smooth="yes"/>
      <point x="196" y="470"/>
      <point x="262" y="553"/>
      <point x="366" y="553" type="curve" smooth="yes"/>
      <point x="470" y="553"/>
      <point x="536" y="475"/>
      <point x="536" y="339" type="curve" smooth="yes"/>
      <point x="536" y="208"/>
      <point x="470" y="125"/>
      <point x="366" y="125" type="curve" smooth="yes"/>
      <point x="262" y="125"/>
      <point x="196" y="202"/>
    </contour>
    <contour>
      <point x="39" y="-7" type="line"/>
      <point x="185" y="-7" type="line"/>
      <point x="695" y="684" type="line"/>
      <point x="550" y="684" type="line"/>
    </contour>
  </outline>
</glyph>
<glyph name="germandbls" format="1">
  <advance width="598"/>
  <unicode hex="00DF"/>
  <outline>
    <contour>
      <point x="280" y="138" type="line"/>
      <point x="320" y="112"/>
      <point x="346" y="105"/>
      <point x="381" y="105" type="curve" smooth="yes"/>
      <point x="416" y="105"/>
      <point x="442" y="124"/>
      <point x="442" y="157" type="curve" smooth="yes"/>
      <point x="442" y="231"/>
      <point x="297" y="247"/>
      <point x="297" y="351" type="curve" smooth="yes"/>
      <point x="297" y="422"/>
      <point x="354" y="454"/>
      <point x="354" y="506" type="curve" smooth="yes"/>
      <point x="354" y="540"/>
      <point x="335" y="563"/>
      <point x="292" y="563" type="curve" smooth="yes"/>
      <point x="233" y="563"/>
      <point x="202" y="536"/>
      <point x="202" y="470" type="curve" smooth="yes"/>
      <point x="202" y="0" type="line"/>
      <point x="60" y="0" type="line"/>
      <point x="60" y="461" type="line" smooth="yes"/>
      <point x="60" y="606"/>
      <point x="139" y="690"/>
      <point x="283" y="690" type="curve" smooth="yes"/>
      <point x="418" y="690"/>
      <point x="502" y="608"/>
      <point x="502" y="519" type="curve" smooth="yes"/>
      <point x="502" y="430"/>
      <point x="447" y="405"/>
      <point x="447" y="366" type="curve" smooth="yes"/>
      <point x="447" y="329"/>
      <point x="578" y="304"/>
      <point x="578" y="159" type="curve" smooth="yes"/>
      <point x="578" y="58"/>
      <point x="507" y="-9"/>
      <point x="397" y="-9" type="curve" smooth="yes"/>
      <point x="361" y="-9"/>
      <point x="307" y="-3"/>
      <point x="280" y="15" type="curve"/>
    </contour>
  </outline>
</glyph>
<glyph name="idieresis" format="1">
  <advance width="276"/>
  <unicode hex="00EF"/>
  <outline>
    <contour>
      <point x="65" y="0" type="line"/>
      <point x="211" y="0" type="line"/>
      <point x="211" y="507" type="line"/>
      <point x="65" y="507" type="line"/>
    </contour>
    <component base="dieresis" xOffset="-111" yOffset="-67"/>
  </outline>
</glyph>
<glyph name="divide" format="1">
  <advance width="589"/>
  <unicode hex="00F7"/>
  <outline>
    <contour>
      <point x="214" y="516" type="curve" smooth="yes"/>
      <point x="214" y="475"/>
      <point x="249" y="440"/>
      <point x="290" y="440" type="curve" smooth="yes"/>
      <point x="331" y="440"/>
      <point x="366" y="475"/>
      <point x="366" y="516" type="curve" smooth="yes"/>
      <point x="366" y="557"/>
      <point x="331" y="592"/>
      <point x="290" y="592" type="curve" smooth="yes"/>
      <point x="249" y="592"/>
      <point x="214" y="557"/>
    </contour>
    <contour>
      <point x="45" y="275" type="line"/>
      <point x="544" y="275" type="line"/>
      <point x="544" y="405" type="line"/>
      <point x="45" y="405" type="line"/>
    </contour>
    <contour>
      <point x="214" y="164" type="curve" smooth="yes"/>
      <point x="214" y="123"/>
      <point x="249" y="88"/>
      <point x="290" y="88" type="curve" smooth="yes"/>
      <point x="331" y="88"/>
      <point x="366" y="123"/>
      <point x="366" y="164" type="curve" smooth="yes"/>
      <point x="366" y="205"/>
      <point x="331" y="240"/>
      <point x="290" y="240" type="curve" smooth="yes"/>
      <point x="249" y="240"/>
      <point x="214" y="205"/>
    </contour>
  </outline>
</glyph>
<glyph name="oslash" format="1">
  <advance width="562"/>
  <unicode hex="00F8"/>
  <outline>
    <contour>
      <point x="284" y="-8" type="curve" smooth="yes"/>
      <point x="445" y="-8"/>
      <point x="532" y="108"/>
      <point x="532" y="256" type="curve" smooth="yes"/>
      <point x="532" y="400"/>
      <point x="448" y="515"/>
      <point x="284" y="515" type="curve" smooth="yes"/>
      <point x="130" y="515"/>
      <point x="35" y="400"/>
      <point x="35" y="247" type="curve" smooth="yes"/>
      <point x="35" y="105"/>
      <point x="119" y="-8"/>
    </contour>
    <contour>
      <point x="283" y="416" type="curve" smooth="yes"/>
      <point x="370" y="416"/>
      <point x="398" y="340"/>
      <point x="398" y="251" type="curve" smooth="yes"/>
      <point x="398" y="161"/>
      <point x="365" y="89"/>
      <point x="285" y="89" type="curve" smooth="yes"/>
      <point x="205" y="89"/>
      <point x="169" y="164"/>
      <point x="169" y="253" type="curve" smooth="yes"/>
      <point x="169" y="343"/>
      <point x="204" y="416"/>
    </contour>
    <contour>
      <point x="35" y="-8" type="line"/>
      <point x="156" y="-8" type="line"/>
      <point x="532" y="515" type="line"/>
      <point x="410" y="515" type="line"/>
    </contour>
  </outline>
</glyph>
<glyph name="thorn" format="1">
  <advance width="611"/>
  <unicode hex="00FE"/>
  <outline>
    <contour>
      <point x="60" y="-187" type="line"/>
      <point x="206" y="-187" type="line"/>
      <point x="206" y="707" type="line"/>
      <point x="60" y="707" type="line"/>
    </contour>
    <contour>
      <point x="206" y="259" type="curve" smooth="yes"/>
      <point x="206" y="349"/>
      <point x="264" y="392"/>
      <point x="320" y="392" type="curve" smooth="yes"/>
      <point x="379" y="392"/>
      <point x="428" y="348"/>
      <point x="428" y="252" type="curve" smooth="yes"/>
      <point x="428" y="166"/>
      <point x="383" y="116"/>
      <point x="320" y="116" type="curve" smooth="yes"/>
      <point x="254" y="116"/>
      <point x="206" y="171"/>
    </contour>
    <contour>
      <point x="165" y="258" type="curve" smooth="yes"/>
      <point x="165" y="66"/>
      <point x="250" y="-6"/>
      <point x="359" y="-6" type="curve" smooth="yes"/>
      <point x="500" y="-6"/>
      <point x="576" y="111"/>
      <point x="576" y="255" type="curve" smooth="yes"/>
      <point x="576" y="415"/>
      <point x="489" y="513"/>
      <point x="359" y="513" type="curve" smooth="yes"/>
      <point x="252" y="513"/>
      <point x="165" y="433"/>
    </contour>
  </outline>
</glyph>
<glyph name="Aogonek" format="1">
  <advance width="680"/>
  <unicode hex="0104"/>
  <outline>
    <contour>
      <point x="18" y="0" type="line"/>
      <point x="179" y="0" type="line"/>
      <point x="264" y="286" type="line" smooth="yes"/>
      <point x="330" y="507"/>
      <point x="338" y="562"/>
      <point x="338" y="562" type="curve"/>
      <point x="338" y="562"/>
      <point x="346" y="507"/>
      <point x="412" y="286" type="curve" smooth="yes"/>
      <point x="497" y="0" type="line"/>
      <point x="662" y="0" type="line"/>
      <point x="437" y="674" type="line"/>
      <point x="243" y="674" type="line"/>
    </contour>
    <contour>
      <point x="194" y="138" type="line"/>
      <point x="509" y="138" type="line"/>
      <point x="509" y="262" type="line"/>
      <point x="194" y="262" type="line"/>
    </contour>
    <contour>
      <point x="674" y="-235" type="curve"/>
      <point x="674" y="-134" type="line"/>
      <point x="651" y="-150"/>
      <point x="623" y="-164"/>
      <point x="587" y="-164" type="curve" smooth="yes"/>
      <point x="560" y="-164"/>
      <point x="544" y="-152"/>
      <point x="544" y="-130" type="curve" smooth="yes"/>
      <point x="544" y="-86"/>
      <point x="604" y="-36"/>
      <point x="662" y="0" type="curve"/>
      <point x="596" y="64" type="line"/>
      <point x="538" y="39"/>
      <point x="428" y="-31"/>
      <point x="428" y="-143" type="curve" smooth="yes"/>
      <point x="428" y="-206"/>
      <point x="466" y="-260"/>
      <point x="565" y="-260" type="curve" smooth="yes"/>
      <point x="611" y="-260"/>
      <point x="645" y="-250"/>
    </contour>
  </outline>
</glyph>
<glyph name="aogonek" format="1">
  <advance width="511"/>
  <unicode hex="0105"/>
  <outline>
    <contour>
      <point x="311" y="171" type="line"/>
      <point x="311" y="128"/>
      <point x="288" y="100"/>
      <point x="246" y="100" type="curve" smooth="yes"/>
      <point x="206" y="100"/>
      <point x="187" y="118"/>
      <point x="187" y="151" type="curve" smooth="yes"/>
      <point x="187" y="184"/>
      <point x="214" y="208"/>
      <point x="264" y="208" type="curve" smooth="yes"/>
      <point x="328" y="208" type="line"/>
      <point x="328" y="298" type="line"/>
      <point x="247" y="298" type="line" smooth="yes"/>
      <point x="103" y="298"/>
      <point x="35" y="238"/>
      <point x="35" y="144" type="curve" smooth="yes"/>
      <point x="35" y="63"/>
      <point x="90" y="-3"/>
      <point x="192" y="-3" type="curve" smooth="yes"/>
      <point x="266" y="-3"/>
      <point x="302" y="30"/>
      <point x="318" y="62" type="curve"/>
      <point x="318" y="0" type="line"/>
      <point x="461" y="0" type="line"/>
      <point x="461" y="325" type="line" smooth="yes"/>
      <point x="461" y="456"/>
      <point x="390" y="516"/>
      <point x="247" y="516" type="curve" smooth="yes"/>
      <point x="168" y="516"/>
      <point x="104" y="499"/>
      <point x="74" y="482" type="curve"/>
      <point x="74" y="351" type="line"/>
      <point x="112" y="376"/>
      <point x="167" y="397"/>
      <point x="226" y="397" type="curve" smooth="yes"/>
      <point x="291" y="397"/>
      <point x="311" y="371"/>
      <point x="311" y="333" type="curve" smooth="yes"/>
    </contour>
    <contour>
      <point x="473" y="-235" type="curve"/>
      <point x="473" y="-134" type="line"/>
      <point x="450" y="-150"/>
      <point x="422" y="-164"/>
      <point x="386" y="-164" type="curve" smooth="yes"/>
      <point x="359" y="-164"/>
      <point x="343" y="-152"/>
      <point x="343" y="-130" type="curve" smooth="yes"/>
      <point x="343" y="-86"/>
      <point x="403" y="-36"/>
      <point x="461" y="0" type="curve"/>
      <point x="412" y="64" type="line"/>
      <point x="354" y="39"/>
      <point x="227" y="-31"/>
      <point x="227" y="-143" type="curve" smooth="yes"/>
      <point x="227" y="-206"/>
      <point x="265" y="-260"/>
      <point x="364" y="-260" type="curve" smooth="yes"/>
      <point x="410" y="-260"/>
      <point x="444" y="-250"/>
    </contour>
  </outline>
</glyph>
<glyph name="kcommaaccent" format="1">
  <advance width="548"/>
  <unicode hex="0137"/>
  <outline>
    <contour>
      <point x="148" y="-262" type="line"/>
      <point x="254" y="-262" type="line"/>
      <point x="370" y="-51" type="line"/>
      <point x="219" y="-51" type="line"/>
    </contour>
    <contour>
      <point x="368" y="0" type="line"/>
      <point x="537" y="0" type="line"/>
      <point x="358" y="264" type="line"/>
      <point x="196" y="264" type="line"/>
    </contour>
    <contour>
      <point x="60" y="0" type="line"/>
      <point x="206" y="0" type="line"/>
      <point x="206" y="690" type="line"/>
      <point x="60" y="690" type="line"/>
    </contour>
    <contour>
      <point x="195" y="264" type="line"/>
      <point x="358" y="264" type="line"/>
      <point x="534" y="507" type="line"/>
      <point x="366" y="507" type="line"/>
    </contour>
  </outline>
</glyph>
<glyph name="lcommaaccent" format="1">
  <advance width="276"/>
  <unicode hex="013C"/>
  <outline>
    <contour>
      <point x="65" y="0" type="line"/>
      <point x="211" y="0" type="line"/>
      <point x="211" y="707" type="line"/>
      <point x="65" y="707" type="line"/>
    </contour>
    <contour>
      <point x="-11" y="-262" type="line"/>
      <point x="95" y="-262" type="line"/>
      <point x="211" y="-51" type="line"/>
      <point x="60" y="-51" type="line"/>
    </contour>
  </outline>
</glyph>
<glyph name="Lcaron" format="1">
  <advance width="488"/>
  <unicode hex="013D"/>
  <outline>
    <contour>
      <point x="65" y="674" type="line"/>
      <point x="219" y="674" type="line"/>
      <point x="219" y="0" type="line"/>
      <point x="65" y="0" type="line"/>
    </contour>
    <contour>
      <point x="123" y="135" type="line"/>
      <point x="468" y="135" type="line"/>
      <point x="468" y="0" type="line"/>
      <point x="123" y="0" type="line"/>
    </contour>
    <contour>
      <point x="279" y="488" type="line"/>
      <point x="385" y="488" type="line"/>
      <point x="501" y="699" type="line"/>
      <point x="350" y="699" type="line"/>
    </contour>
  </outline>
</glyph>
<glyph name="lcaron" format="1">
  <advance width="276"/>
  <unicode hex="013E"/>
  <outline>
    <contour>
      <point x="65" y="0" type="line"/>
      <point x="211" y="0" type="line"/>
      <point x="211" y="707" type="line"/>
      <point x="65" y="707" type="line"/>
    </contour>
    <contour>
      <point x="269" y="498" type="line"/>
      <point x="375" y="498" type="line"/>
      <point x="491" y="709" type="line"/>
      <point x="340" y="709" type="line"/>
    </contour>
  </outline>
</glyph>
<glyph name="OE" format="1">
  <advance width="1000"/>
  <unicode hex="0152"/>
  <outline>
    <contour>
      <point x="40" y="339" type="curve"/>
      <point x="40" y="132"/>
      <point x="162" y="-7"/>
      <point x="363" y="-7" type="curve" smooth="yes"/>
      <point x="533" y="-7"/>
      <point x="656" y="143"/>
      <point x="656" y="339" type="curve" smooth="yes"/>
      <point x="656" y="536"/>
      <point x="534" y="685"/>
      <point x="363" y="685" type="curve" smooth="yes"/>
      <point x="163" y="685"/>
      <point x="40" y="545"/>
    </contour>
    <contour>
      <point x="205" y="339" type="curve"/>
      <point x="205" y="465"/>
      <point x="263" y="545"/>
      <point x="363" y="545" type="curve" smooth="yes"/>
      <point x="463" y="545"/>
      <point x="521" y="465"/>
      <point x="521" y="339" type="curve" smooth="yes"/>
      <point x="521" y="213"/>
      <point x="463" y="133"/>
      <point x="363" y="133" type="curve" smooth="yes"/>
      <point x="263" y="133"/>
      <point x="205" y="213"/>
    </contour>
    <contour>
      <point x="579" y="0" type="line"/>
      <point x="940" y="0" type="line"/>
      <point x="940" y="123" type="line"/>
      <point x="579" y="123" type="line"/>
    </contour>
    <contour>
      <point x="521" y="0" type="line"/>
      <point x="666" y="0" type="line"/>
      <point x="666" y="674" type="line"/>
      <point x="521" y="674" type="line"/>
    </contour>
    <contour>
      <point x="579" y="276" type="line"/>
      <point x="908" y="276" type="line"/>
      <point x="908" y="398" type="line"/>
      <point x="579" y="398" type="line"/>
    </contour>
    <contour>
      <point x="579" y="551" type="line"/>
      <point x="936" y="551" type="line"/>
      <point x="936" y="674" type="line"/>
      <point x="579" y="674" type="line"/>
    </contour>
  </outline>
</glyph>
<glyph name="oe" format="1">
  <advance width="879"/>
  <unicode hex="0153"/>
  <outline>
    <contour>
      <point x="284" y="-8" type="curve" smooth="yes"/>
      <point x="432" y="-8"/>
      <point x="525" y="108"/>
      <point x="525" y="256" type="curve" smooth="yes"/>
      <point x="525" y="400"/>
      <point x="435" y="515"/>
      <point x="284" y="515" type="curve" smooth="yes"/>
      <point x="130" y="515"/>
      <point x="35" y="400"/>
      <point x="35" y="247" type="curve" smooth="yes"/>
      <point x="35" y="105"/>
      <point x="119" y="-8"/>
    </contour>
    <contour>
      <point x="283" y="400" type="curve" smooth="yes"/>
      <point x="356" y="400"/>
      <point x="387" y="332"/>
      <point x="387" y="251" type="curve" smooth="yes"/>
      <point x="387" y="170"/>
      <point x="353" y="105"/>
      <point x="285" y="105" type="curve" smooth="yes"/>
      <point x="217" y="105"/>
      <point x="187" y="172"/>
      <point x="187" y="253" type="curve" smooth="yes"/>
      <point x="187" y="334"/>
      <point x="216" y="400"/>
    </contour>
    <contour>
      <point x="479" y="196" type="line"/>
      <point x="833" y="196" type="line"/>
      <point x="836" y="217"/>
      <point x="841" y="253"/>
      <point x="841" y="275" type="curve" smooth="yes"/>
      <point x="841" y="437"/>
      <point x="752" y="512"/>
      <point x="621" y="512" type="curve" smooth="yes"/>
      <point x="508" y="512"/>
      <point x="387" y="422"/>
      <point x="387" y="254" type="curve" smooth="yes"/>
      <point x="387" y="107"/>
      <point x="492" y="-5"/>
      <point x="651" y="-5" type="curve" smooth="yes"/>
      <point x="702" y="-5"/>
      <point x="773" y="5"/>
      <point x="810" y="29" type="curve"/>
      <point x="810" y="151" type="line"/>
      <point x="778" y="127"/>
      <point x="736" y="108"/>
      <point x="676" y="108" type="curve" smooth="yes"/>
      <point x="588" y="108"/>
      <point x="525" y="160"/>
      <point x="525" y="254" type="curve"/>
      <point x="525" y="356"/>
      <point x="576" y="401"/>
      <point x="627" y="401" type="curve" smooth="yes"/>
      <point x="679" y="401"/>
      <point x="699" y="366"/>
      <point x="704" y="321" type="curve" smooth="yes"/>
      <point x="704" y="314"/>
      <point x="705" y="307"/>
      <point x="705" y="300" type="curve"/>
      <point x="479" y="300" type="line"/>
    </contour>
  </outline>
</glyph>
<glyph name="Rcommaaccent" format="1">
  <advance width="614"/>
  <unicode hex="0156"/>
  <outline>
    <contour>
      <point x="165" y="-262" type="line"/>
      <point x="271" y="-262" type="line"/>
      <point x="387" y="-51" type="line"/>
      <point x="236" y="-51" type="line"/>
    </contour>
    <contour>
      <point x="208" y="326" type="line"/>
      <point x="412" y="0" type="line"/>
      <point x="596" y="0" type="line"/>
      <point x="381" y="326" type="line"/>
    </contour>
    <contour>
      <point x="392" y="457" type="curve" smooth="yes"/>
      <point x="392" y="393"/>
      <point x="362" y="359"/>
      <point x="292" y="359" type="curve"/>
      <point x="65" y="359" type="line"/>
      <point x="65" y="234" type="line"/>
      <point x="298" y="234" type="line" smooth="yes"/>
      <point x="430" y="234"/>
      <point x="548" y="301"/>
      <point x="548" y="458" type="curve" smooth="yes"/>
      <point x="548" y="585"/>
      <point x="450" y="674"/>
      <point x="298" y="674" type="curve" smooth="yes"/>
      <point x="65" y="674" type="line"/>
      <point x="65" y="549" type="line"/>
      <point x="295" y="549" type="line" smooth="yes"/>
      <point x="354" y="549"/>
      <point x="392" y="515"/>
    </contour>
    <contour>
      <point x="65" y="0" type="line"/>
      <point x="219" y="0" type="line"/>
      <point x="219" y="674" type="line"/>
      <point x="65" y="674" type="line"/>
    </contour>
  </outline>
</glyph>
<glyph name="tcedilla" format="1">
  <advance width="386"/>
  <unicode hex="0163"/>
  <outline>
    <contour>
      <point x="83" y="168" type="line"/>
      <point x="83" y="56"/>
      <point x="140" y="-5"/>
      <point x="256" y="-5" type="curve" smooth="yes"/>
      <point x="284" y="-5"/>
      <point x="328" y="-1"/>
      <point x="356" y="11" type="curve"/>
      <point x="356" y="132" type="line"/>
      <point x="334" y="118"/>
      <point x="308" y="112"/>
      <point x="285" y="112" type="curve" smooth="yes"/>
      <point x="254" y="112"/>
      <point x="229" y="129"/>
      <point x="229" y="167" type="curve" smooth="yes"/>
      <point x="229" y="627" type="line"/>
      <point x="83" y="627" type="line"/>
    </contour>
    <contour>
      <point x="10" y="400" type="line"/>
      <point x="347" y="400" type="line"/>
      <point x="347" y="507" type="line"/>
      <point x="10" y="507" type="line"/>
    </contour>
    <contour>
      <point x="85" y="-262" type="line"/>
      <point x="191" y="-262" type="line"/>
      <point x="307" y="-51" type="line"/>
      <point x="156" y="-51" type="line"/>
    </contour>
  </outline>
</glyph>
<glyph name="florin" format="1">
  <advance width="522"/>
  <unicode hex="0192"/>
  <outline>
    <contour>
      <point x="492" y="551" type="line"/>
      <point x="474" y="558"/>
      <point x="451" y="562"/>
      <point x="435" y="562" type="curve" smooth="yes"/>
      <point x="381" y="562"/>
      <point x="357" y="522"/>
      <point x="347" y="455" type="curve" smooth="yes"/>
      <point x="270" y="-42" type="line" smooth="yes"/>
      <point x="251" y="-165"/>
      <point x="187" y="-256"/>
      <point x="66" y="-256" type="curve" smooth="yes"/>
      <point x="28" y="-256"/>
      <point x="-9" y="-250"/>
      <point x="-30" y="-241" type="curve"/>
      <point x="-30" y="-123" type="line"/>
      <point x="-8" y="-134"/>
      <point x="16" y="-139"/>
      <point x="42" y="-139" type="curve" smooth="yes"/>
      <point x="96" y="-139"/>
      <point x="115" y="-99"/>
      <point x="125" y="-32" type="curve" smooth="yes"/>
      <point x="202" y="465" type="line" smooth="yes"/>
      <point x="221" y="588"/>
      <point x="285" y="679"/>
      <point x="406" y="679" type="curve" smooth="yes"/>
      <point x="432" y="679"/>
      <point x="466" y="678"/>
      <point x="492" y="669" type="curve"/>
    </contour>
    <contour>
      <point x="86" y="386" type="line"/>
      <point x="432" y="386" type="line"/>
      <point x="432" y="279" type="line"/>
      <point x="86" y="279" type="line"/>
    </contour>
  </outline>
</glyph>
<glyph name="Scommaaccent" format="1">
  <advance width="514"/>
  <unicode hex="0218"/>
  <outline>
    <contour>
      <point x="454" y="644" type="line"/>
      <point x="400" y="669"/>
      <point x="336" y="678"/>
      <point x="280" y="678" type="curve"/>
      <point x="127" y="678"/>
      <point x="39" y="598"/>
      <point x="39" y="484" type="curve"/>
      <point x="39" y="376"/>
      <point x="112" y="326"/>
      <point x="183" y="293" type="curve" smooth="yes"/>
      <point x="260" y="257"/>
      <point x="320" y="239"/>
      <point x="320" y="190" type="curve"/>
      <point x="320" y="150"/>
      <point x="285" y="123"/>
      <point x="239" y="123" type="curve"/>
      <point x="176" y="123"/>
      <point x="111" y="141"/>
      <point x="45" y="189" type="curve"/>
      <point x="45" y="34" type="line"/>
      <point x="95" y="6"/>
      <point x="169" y="-8"/>
      <point x="239" y="-8" type="curve"/>
      <point x="387" y="-8"/>
      <point x="484" y="75"/>
      <point x="484" y="196" type="curve"/>
      <point x="484" y="319"/>
      <point x="390" y="367"/>
      <point x="306" y="404" type="curve" smooth="yes"/>
      <point x="249" y="429"/>
      <point x="206" y="453"/>
      <point x="206" y="490" type="curve"/>
      <point x="206" y="522"/>
      <point x="232" y="547"/>
      <point x="286" y="547" type="curve"/>
      <point x="343" y="547"/>
      <point x="404" y="529"/>
      <point x="454" y="500" type="curve"/>
    </contour>
    <contour>
      <point x="119" y="-262" type="line"/>
      <point x="225" y="-262" type="line"/>
      <point x="341" y="-51" type="line"/>
      <point x="190" y="-51" type="line"/>
    </contour>
  </outline>
</glyph>
<glyph name="Tcommaaccent" format="1">
  <advance width="544"/>
  <unicode hex="021A"/>
  <outline>
    <contour>
      <point x="195" y="0" type="line"/>
      <point x="350" y="0" type="line"/>
      <point x="350" y="653" type="line"/>
      <point x="195" y="653" type="line"/>
    </contour>
    <contour>
      <point x="30" y="550" type="line"/>
      <point x="514" y="550" type="line"/>
      <point x="514" y="674" type="line"/>
      <point x="30" y="674" type="line"/>
    </contour>
    <contour>
      <point x="125" y="-262" type="line"/>
      <point x="231" y="-262" type="line"/>
      <point x="347" y="-51" type="line"/>
      <point x="196" y="-51" type="line"/>
    </contour>
  </outline>
</glyph>
<glyph name="circumflex" format="1">
  <advance width="500"/>
  <unicode hex="02C6"/>
  <outline>
    <contour>
      <point x="312" y="798" type="line"/>
      <point x="468" y="621" type="line"/>
      <point x="329" y="621" type="line"/>
      <point x="250" y="717" type="line"/>
      <point x="171" y="621" type="line"/>
      <point x="32" y="621" type="line"/>
      <point x="188" y="798" type="line"/>
    </contour>
  </outline>
</glyph>
<glyph name="breve" format="1">
  <advance width="500"/>
  <unicode hex="02D8"/>
  <outline>
    <contour>
      <point x="250" y="709" type="curve" smooth="yes"/>
      <point x="300" y="709"/>
      <point x="336" y="740"/>
      <point x="336" y="798" type="curve"/>
      <point x="448" y="798" type="line"/>
      <point x="448" y="667"/>
      <point x="360" y="617"/>
      <point x="250" y="617" type="curve"/>
      <point x="140" y="617"/>
      <point x="52" y="667"/>
      <point x="52" y="798" type="curve"/>
      <point x="164" y="798" type="line"/>
      <point x="164" y="740"/>
      <point x="200" y="709"/>
    </contour>
  </outline>
</glyph>
<glyph name="dotaccent" format="1">
  <advance width="500"/>
  <unicode hex="02D9"/>
  <outline>
    <contour>
      <point x="167" y="711" type="curve" smooth="yes"/>
      <point x="167" y="665"/>
      <point x="202" y="629"/>
      <point x="250" y="629" type="curve" smooth="yes"/>
      <point x="297" y="629"/>
      <point x="332" y="665"/>
      <point x="332" y="711" type="curve" smooth="yes"/>
      <point x="332" y="756"/>
      <point x="297" y="792"/>
      <point x="250" y="792" type="curve" smooth="yes"/>
      <point x="202" y="792"/>
      <point x="167" y="756"/>
    </contour>
  </outline>
</glyph>
<glyph name="ring" format="1">
  <advance width="500"/>
  <unicode hex="02DA"/>
  <outline>
    <contour>
      <point x="114" y="710" type="curve" smooth="yes"/>
      <point x="114" y="635"/>
      <point x="175" y="574"/>
      <point x="250" y="574" type="curve" smooth="yes"/>
      <point x="325" y="574"/>
      <point x="386" y="635"/>
      <point x="386" y="710" type="curve" smooth="yes"/>
      <point x="386" y="785"/>
      <point x="325" y="846"/>
      <point x="250" y="846" type="curve" smooth="yes"/>
      <point x="175" y="846"/>
      <point x="114" y="785"/>
    </contour>
    <contour>
      <point x="197" y="713" type="curve" smooth="yes"/>
      <point x="197" y="742"/>
      <point x="218" y="769"/>
      <point x="250" y="769" type="curve" smooth="yes"/>
      <point x="282" y="769"/>
      <point x="303" y="742"/>
      <point x="303" y="713" type="curve" smooth="yes"/>
      <point x="303" y="684"/>
      <point x="282" y="657"/>
      <point x="250" y="657" type="curve" smooth="yes"/>
      <point x="218" y="657"/>
      <point x="197" y="684"/>
    </contour>
  </outline>
</glyph>
<glyph name="ogonek" format="1">
  <advance width="500"/>
  <unicode hex="02DB"/>
  <outline>
    <contour>
      <point x="373" y="-221" type="curve"/>
      <point x="373" y="-120" type="line"/>
      <point x="350" y="-136"/>
      <point x="322" y="-150"/>
      <point x="286" y="-150" type="curve" smooth="yes"/>
      <point x="259" y="-150"/>
      <point x="243" y="-138"/>
      <point x="243" y="-116" type="curve" smooth="yes"/>
      <point x="243" y="-72"/>
      <point x="303" y="-22"/>
      <point x="361" y="14" type="curve"/>
      <point x="312" y="78" type="line"/>
      <point x="254" y="53"/>
      <point x="127" y="-17"/>
      <point x="127" y="-129" type="curve" smooth="yes"/>
      <point x="127" y="-192"/>
      <point x="165" y="-246"/>
      <point x="264" y="-246" type="curve" smooth="yes"/>
      <point x="310" y="-246"/>
      <point x="344" y="-236"/>
    </contour>
  </outline>
</glyph>
<glyph name="tilde" format="1">
  <advance width="500"/>
  <unicode hex="02DC"/>
  <outline>
    <contour>
      <point x="374" y="767" type="line"/>
      <point x="361" y="741"/>
      <point x="337" y="724"/>
      <point x="304" y="724" type="curve" smooth="yes"/>
      <point x="260" y="724"/>
      <point x="235" y="759"/>
      <point x="168" y="759" type="curve" smooth="yes"/>
      <point x="116" y="759"/>
      <point x="72" y="719"/>
      <point x="52" y="677" type="curve"/>
      <point x="117" y="613" type="line"/>
      <point x="144" y="645"/>
      <point x="157" y="656"/>
      <point x="192" y="656" type="curve" smooth="yes"/>
      <point x="228" y="656"/>
      <point x="252" y="621"/>
      <point x="312" y="621" type="curve" smooth="yes"/>
      <point x="375" y="621"/>
      <point x="422" y="654"/>
      <point x="448" y="706" type="curve"/>
    </contour>
  </outline>
</glyph>
<glyph name="pi" format="1">
  <advance width="606"/>
  <unicode hex="03C0"/>
  <outline>
    <contour>
      <point x="370" y="0" type="line"/>
      <point x="516" y="0" type="line"/>
      <point x="516" y="466" type="line"/>
      <point x="370" y="466" type="line"/>
    </contour>
    <contour>
      <point x="100" y="201" type="line"/>
      <point x="100" y="133"/>
      <point x="82" y="119"/>
      <point x="39" y="119" type="curve"/>
      <point x="39" y="0" type="line"/>
      <point x="182" y="0"/>
      <point x="246" y="51"/>
      <point x="246" y="216" type="curve" smooth="yes"/>
      <point x="246" y="466" type="line"/>
      <point x="100" y="466" type="line"/>
    </contour>
    <contour>
      <point x="20" y="400" type="line"/>
      <point x="596" y="400" type="line"/>
      <point x="596" y="507" type="line"/>
      <point x="20" y="507" type="line"/>
    </contour>
  </outline>
</glyph>
<glyph name="dvCandrabindu" format="1">
  <advance width="0"/>
  <unicode hex="0901"/>
  <outline>
    <contour>
      <point x="-70" y="671" type="move" name="_abvm.candra"/>
    </contour>
    <contour>
      <point x="-139" y="733" type="curve" smooth="yes"/>
      <point x="-16" y="733"/>
      <point x="94" y="802"/>
      <point x="94" y="922" type="curve"/>
      <point x="-42" y="922" type="line"/>
      <point x="-42" y="870"/>
      <point x="-80" y="833"/>
      <point x="-139" y="833" type="curve" smooth="yes"/>
      <point x="-201" y="833"/>
      <point x="-240" y="870"/>
      <point x="-240" y="922" type="curve"/>
      <point x="-376" y="922" type="line"/>
      <point x="-376" y="796"/>
      <point x="-278" y="733"/>
    </contour>
    <contour>
      <point x="-210" y="977" type="curve" smooth="yes"/>
      <point x="-210" y="938"/>
      <point x="-179" y="907"/>
      <point x="-140" y="907" type="curve" smooth="yes"/>
      <point x="-101" y="907"/>
      <point x="-70" y="938"/>
      <point x="-70" y="977" type="curve" smooth="yes"/>
      <point x="-70" y="1016"/>
      <point x="-101" y="1047"/>
      <point x="-140" y="1047" type="curve" smooth="yes"/>
      <point x="-179" y="1047"/>
      <point x="-210" y="1016"/>
    </contour>
  </outline>
</glyph>
<glyph name="dvAnusvara" format="1">
  <advance width="0"/>
  <unicode hex="0902"/>
  <outline>
    <contour>
      <point x="-70" y="671" type="move" name="_abvm.bindu"/>
    </contour>
    <contour>
      <point x="-222" y="818" type="curve" smooth="yes"/>
      <point x="-222" y="772"/>
      <point x="-186" y="736"/>
      <point x="-140" y="736" type="curve" smooth="yes"/>
      <point x="-94" y="736"/>
      <point x="-58" y="772"/>
      <point x="-58" y="818" type="curve" smooth="yes"/>
      <point x="-58" y="864"/>
      <point x="-94" y="900"/>
      <point x="-140" y="900" type="curve" smooth="yes"/>
      <point x="-186" y="900"/>
      <point x="-222" y="864"/>
    </contour>
  </outline>
</glyph>
<glyph name="dvVisarga" format="1">
  <advance width="285"/>
  <unicode hex="0903"/>
  <outline>
    <contour>
      <point x="88" y="484" type="curve" smooth="yes"/>
      <point x="88" y="438"/>
      <point x="124" y="402"/>
      <point x="170" y="402" type="curve" smooth="yes"/>
      <point x="216" y="402"/>
      <point x="252" y="438"/>
      <point x="252" y="484" type="curve" smooth="yes"/>
      <point x="252" y="530"/>
      <point x="216" y="566"/>
      <point x="170" y="566" type="curve" smooth="yes"/>
      <point x="124" y="566"/>
      <point x="88" y="530"/>
    </contour>
    <contour>
      <point x="88" y="153" type="curve" smooth="yes"/>
      <point x="88" y="107"/>
      <point x="124" y="71"/>
      <point x="170" y="71" type="curve" smooth="yes"/>
      <point x="216" y="71"/>
      <point x="252" y="107"/>
      <point x="252" y="153" type="curve" smooth="yes"/>
      <point x="252" y="199"/>
      <point x="216" y="235"/>
      <point x="170" y="235" type="curve" smooth="yes"/>
      <point x="124" y="235"/>
      <point x="88" y="199"/>
    </contour>
  </outline>
</glyph>
<glyph name="dvA" format="1">
  <advance width="702"/>
  <unicode hex="0905"/>
  <outline>
    <contour>
      <point x="481" y="671" type="move" name="abvm.bindu"/>
    </contour>
    <contour>
      <point x="481" y="671" type="move" name="abvm.candra"/>
    </contour>
    <contour>
      <point x="490" y="612" type="line"/>
      <point x="490" y="0" type="line"/>
      <point x="632" y="0" type="line"/>
      <point x="632" y="612" type="line"/>
    </contour>
    <contour>
      <point x="30" y="67" type="line"/>
      <point x="73" y="52"/>
      <point x="122" y="45"/>
      <point x="166" y="45" type="curve" smooth="yes"/>
      <point x="316" y="45"/>
      <point x="383" y="124"/>
      <point x="383" y="225" type="curve" smooth="yes"/>
      <point x="383" y="302"/>
      <point x="343" y="365"/>
      <point x="262" y="375" type="curve"/>
      <point x="328" y="394"/>
      <point x="366" y="445"/>
      <point x="366" y="515" type="curve" smooth="yes"/>
      <point x="366" y="614"/>
      <point x="296" y="678"/>
      <point x="166" y="678" type="curve" smooth="yes"/>
      <point x="129" y="678"/>
      <point x="76" y="669"/>
      <point x="50" y="659" type="curve"/>
      <point x="50" y="532" type="line"/>
      <point x="80" y="546"/>
      <point x="119" y="557"/>
      <point x="155" y="557" type="curve" smooth="yes"/>
      <point x="199" y="557"/>
      <point x="225" y="536"/>
      <point x="225" y="497" type="curve" smooth="yes"/>
      <point x="225" y="455"/>
      <point x="194" y="435"/>
      <point x="142" y="435" type="curve" smooth="yes"/>
      <point x="111" y="435" type="line"/>
      <point x="111" y="317" type="line"/>
      <point x="152" y="317" type="line" smooth="yes"/>
      <point x="231" y="317"/>
      <point x="247" y="284"/>
      <point x="247" y="247" type="curve" smooth="yes"/>
      <point x="247" y="183"/>
      <point x="207" y="163"/>
      <point x="159" y="163" type="curve" smooth="yes"/>
      <point x="121" y="163"/>
      <point x="79" y="171"/>
      <point x="30" y="197" type="curve"/>
    </contour>
    <contour>
      <point x="413" y="559" type="line"/>
      <point x="732" y="559" type="line"/>
      <point x="732" y="671" type="line"/>
      <point x="413" y="671" type="line"/>
    </contour>
    <contour>
      <point x="588" y="232" type="line"/>
      <point x="588" y="346" type="line"/>
      <point x="306" y="346" type="line"/>
      <point x="306" y="232" type="line"/>
    </contour>
  </outline>
</glyph>
<glyph name="dvAA" format="1">
  <advance width="981"/>
  <unicode hex="0906"/>
  <outline>
    <contour>
      <point x="770" y="671" type="move" name="abvm.bindu"/>
    </contour>
    <contour>
      <point x="770" y="671" type="move" name="abvm.candra"/>
    </contour>
    <component base="dvA"/>
    <component base="dvmAA" xOffset="700"/>
  </outline>
</glyph>
<glyph name="dvI" format="1">
  <advance width="529"/>
  <unicode hex="0907"/>
  <outline>
    <contour>
      <point x="339" y="671" type="move" name="abvm.bindu"/>
    </contour>
    <contour>
      <point x="339" y="671" type="move" name="abvm.candra"/>
    </contour>
    <contour>
      <point x="499" y="164" type="curve" smooth="yes"/>
      <point x="499" y="274"/>
      <point x="434" y="329"/>
      <point x="273" y="329" type="curve" smooth="yes"/>
      <point x="224" y="329"/>
      <point x="201" y="339"/>
      <point x="201" y="365" type="curve" smooth="yes"/>
      <point x="201" y="393"/>
      <point x="227" y="402"/>
      <point x="252" y="402" type="curve" smooth="yes"/>
      <point x="454" y="402" type="line"/>
      <point x="433" y="514" type="line"/>
      <point x="258" y="514" type="line" smooth="yes"/>
      <point x="149" y="514"/>
      <point x="58" y="468"/>
      <point x="58" y="357" type="curve" smooth="yes"/>
      <point x="58" y="228"/>
      <point x="179" y="210"/>
      <point x="273" y="210" type="curve" smooth="yes"/>
      <point x="313" y="210"/>
      <point x="360" y="207"/>
      <point x="360" y="160" type="curve" smooth="yes"/>
      <point x="360" y="127"/>
      <point x="331" y="102"/>
      <point x="295" y="102" type="curve" smooth="yes"/>
      <point x="240" y="102"/>
      <point x="197" y="135"/>
      <point x="180" y="181" type="curve"/>
      <point x="137" y="66" type="line"/>
      <point x="176" y="22"/>
      <point x="238" y="-3"/>
      <point x="311" y="-3" type="curve" smooth="yes"/>
      <point x="424" y="-3"/>
      <point x="499" y="75"/>
    </contour>
    <contour>
      <point x="-30" y="559" type="line"/>
      <point x="314" y="559" type="line"/>
      <point x="314" y="405" type="line"/>
      <point x="454" y="405" type="line"/>
      <point x="454" y="559" type="line"/>
      <point x="559" y="559" type="line"/>
      <point x="559" y="671" type="line"/>
      <point x="-30" y="671" type="line"/>
    </contour>
    <contour>
      <point x="50" y="-71" type="line"/>
      <point x="190" y="-71" type="line"/>
      <point x="190" y="130" type="line"/>
      <point x="180" y="181" type="line"/>
      <point x="50" y="181" type="line"/>
    </contour>
  </outline>
</glyph>
<glyph name="dvU" format="1">
  <advance width="464"/>
  <unicode hex="0909"/>
  <outline>
    <contour>
      <point x="300" y="671" type="move" name="abvm.bindu"/>
    </contour>
    <contour>
      <point x="300" y="671" type="move" name="abvm.candra"/>
    </contour>
    <contour>
      <point x="494" y="559" type="line"/>
      <point x="494" y="671" type="line"/>
      <point x="-30" y="671" type="line"/>
      <point x="-30" y="559" type="line"/>
    </contour>
    <contour>
      <point x="172" y="592" type="line"/>
      <point x="207" y="577"/>
      <point x="252" y="541"/>
      <point x="252" y="488" type="curve" smooth="yes"/>
      <point x="252" y="419"/>
      <point x="205" y="407"/>
      <point x="142" y="407" type="curve" smooth="yes"/>
      <point x="111" y="407" type="line"/>
      <point x="111" y="289" type="line"/>
      <point x="152" y="289" type="line" smooth="yes"/>
      <point x="257" y="289"/>
      <point x="287" y="254"/>
      <point x="287" y="212" type="curve" smooth="yes"/>
      <point x="287" y="156"/>
      <point x="254" y="128"/>
      <point x="169" y="128" type="curve" smooth="yes"/>
      <point x="131" y="128"/>
      <point x="79" y="136"/>
      <point x="30" y="162" type="curve"/>
      <point x="30" y="32" type="line"/>
      <point x="73" y="17"/>
      <point x="132" y="10"/>
      <point x="176" y="10" type="curve" smooth="yes"/>
      <point x="334" y="10"/>
      <point x="429" y="77"/>
      <point x="429" y="199" type="curve" smooth="yes"/>
      <point x="429" y="285"/>
      <point x="369" y="338"/>
      <point x="262" y="348" type="curve"/>
      <point x="343" y="358"/>
      <point x="394" y="402"/>
      <point x="394" y="480" type="curve" smooth="yes"/>
      <point x="394" y="526"/>
      <point x="372" y="567"/>
      <point x="332" y="592" type="curve"/>
    </contour>
  </outline>
</glyph>
<glyph name="dvUU" format="1">
  <advance width="726"/>
  <unicode hex="090A"/>
  <outline>
    <contour>
      <point x="446" y="671" type="move" name="abvm.bindu"/>
    </contour>
    <contour>
      <point x="446" y="671" type="move" name="abvm.candra"/>
    </contour>
    <contour>
      <point x="465" y="19" type="line"/>
      <point x="476" y="17"/>
      <point x="487" y="16"/>
      <point x="498" y="16" type="curve" smooth="yes"/>
      <point x="636" y="16"/>
      <point x="707" y="110"/>
      <point x="707" y="232" type="curve" smooth="yes"/>
      <point x="707" y="348"/>
      <point x="635" y="426"/>
      <point x="512" y="426" type="curve" smooth="yes"/>
      <point x="404" y="426"/>
      <point x="352" y="359"/>
      <point x="350" y="269" type="curve"/>
      <point x="429" y="202" type="line"/>
      <point x="429" y="265"/>
      <point x="454" y="313"/>
      <point x="500" y="313" type="curve" smooth="yes"/>
      <point x="544" y="313"/>
      <point x="566" y="276"/>
      <point x="566" y="228" type="curve" smooth="yes"/>
      <point x="566" y="159"/>
      <point x="542" y="128"/>
      <point x="482" y="128" type="curve" smooth="yes"/>
      <point x="477" y="128"/>
      <point x="473" y="128"/>
      <point x="465" y="130" type="curve"/>
    </contour>
    <contour>
      <point x="172" y="592" type="line"/>
      <point x="207" y="577"/>
      <point x="252" y="541"/>
      <point x="252" y="488" type="curve" smooth="yes"/>
      <point x="252" y="419"/>
      <point x="205" y="407"/>
      <point x="142" y="407" type="curve" smooth="yes"/>
      <point x="111" y="407" type="line"/>
      <point x="111" y="289" type="line"/>
      <point x="152" y="289" type="line" smooth="yes"/>
      <point x="257" y="289"/>
      <point x="287" y="254"/>
      <point x="287" y="212" type="curve" smooth="yes"/>
      <point x="287" y="156"/>
      <point x="254" y="128"/>
      <point x="169" y="128" type="curve" smooth="yes"/>
      <point x="131" y="128"/>
      <point x="79" y="136"/>
      <point x="30" y="162" type="curve"/>
      <point x="30" y="32" type="line"/>
      <point x="73" y="17"/>
      <point x="132" y="10"/>
      <point x="176" y="10" type="curve" smooth="yes"/>
      <point x="334" y="10"/>
      <point x="429" y="77"/>
      <point x="429" y="199" type="curve" smooth="yes"/>
      <point x="429" y="285"/>
      <point x="369" y="338"/>
      <point x="262" y="348" type="curve"/>
      <point x="343" y="358"/>
      <point x="394" y="402"/>
      <point x="394" y="480" type="curve" smooth="yes"/>
      <point x="394" y="526"/>
      <point x="372" y="567"/>
      <point x="332" y="592" type="curve"/>
    </contour>
    <contour>
      <point x="756" y="559" type="line"/>
      <point x="756" y="671" type="line"/>
      <point x="-30" y="671" type="line"/>
      <point x="-30" y="559" type="line"/>
    </contour>
  </outline>
</glyph>
<glyph name="dvEcandra" format="1">
  <advance width="577"/>
  <unicode hex="090D"/>
  <outline>
    <contour>
      <point x="382" y="877" type="move" name="abvm.bindu"/>
    </contour>
    <contour>
      <point x="311" y="733" type="curve" smooth="yes"/>
      <point x="434" y="733"/>
      <point x="534" y="802"/>
      <point x="534" y="922" type="curve"/>
      <point x="398" y="922" type="line"/>
      <point x="398" y="870"/>
      <point x="370" y="833"/>
      <point x="311" y="833" type="curve" smooth="yes"/>
      <point x="249" y="833"/>
      <point x="220" y="870"/>
      <point x="220" y="922" type="curve"/>
      <point x="84" y="922" type="line"/>
      <point x="84" y="796"/>
      <point x="172" y="733"/>
    </contour>
    <contour>
      <point x="297" y="275" type="line"/>
      <point x="325" y="268"/>
      <point x="338" y="268"/>
      <point x="364" y="268" type="curve" smooth="yes"/>
      <point x="455" y="268"/>
      <point x="532" y="319"/>
      <point x="532" y="438" type="curve" smooth="yes"/>
      <point x="532" y="619" type="line"/>
      <point x="393" y="619" type="line"/>
      <point x="393" y="450" type="line" smooth="yes"/>
      <point x="393" y="398"/>
      <point x="372" y="381"/>
      <point x="332" y="381" type="curve" smooth="yes"/>
      <point x="318" y="381"/>
      <point x="311" y="383"/>
      <point x="297" y="385" type="curve"/>
    </contour>
    <contour>
      <point x="206" y="619" type="line"/>
      <point x="65" y="619" type="line"/>
      <point x="65" y="264" type="line" smooth="yes"/>
      <point x="65" y="98"/>
      <point x="185" y="25"/>
      <point x="343" y="25" type="curve" smooth="yes"/>
      <point x="418" y="25"/>
      <point x="468" y="37"/>
      <point x="511" y="52" type="curve"/>
      <point x="511" y="179" type="line"/>
      <point x="468" y="160"/>
      <point x="416" y="146"/>
      <point x="354" y="146" type="curve" smooth="yes"/>
      <point x="264" y="146"/>
      <point x="206" y="185"/>
      <point x="206" y="263" type="curve" smooth="yes"/>
    </contour>
    <contour>
      <point x="607" y="671" type="line"/>
      <point x="-30" y="671" type="line"/>
      <point x="-30" y="559" type="line"/>
      <point x="607" y="559" type="line"/>
    </contour>
  </outline>
</glyph>
<glyph name="dvO" format="1">
  <advance width="983"/>
  <unicode hex="0913"/>
  <outline>
    <contour>
      <point x="1051" y="671" type="move" name="abvm.bindu"/>
    </contour>
    <contour>
      <point x="1152" y="671" type="move" name="abvm.candra"/>
    </contour>
    <component base="dvA"/>
    <component base="dvmAA" xOffset="702"/>
    <component base="dvmE" xOffset="983"/>
  </outline>
</glyph>
<glyph name="dvAU" format="1">
  <advance width="983"/>
  <unicode hex="0914"/>
  <outline>
    <contour>
      <point x="1052" y="671" type="move" name="abvm.bindu"/>
    </contour>
    <contour>
      <point x="1147" y="671" type="move" name="abvm.candra"/>
    </contour>
    <component base="dvA"/>
    <component base="dvmAA" xOffset="702"/>
    <component base="dvmAI" xOffset="984"/>
  </outline>
</glyph>
<glyph name="dvKHA" format="1">
  <advance width="841"/>
  <unicode hex="0916"/>
  <outline>
    <contour>
      <point x="771" y="0" type="line"/>
      <point x="771" y="612" type="line"/>
      <point x="629" y="612" type="line"/>
      <point x="629" y="0" type="line"/>
    </contour>
    <contour>
      <point x="573" y="478" type="line"/>
      <point x="566" y="479"/>
      <point x="555" y="480"/>
      <point x="545" y="480" type="curve" smooth="yes"/>
      <point x="434" y="480"/>
      <point x="350" y="402"/>
      <point x="350" y="296" type="curve" smooth="yes"/>
      <point x="350" y="181"/>
      <point x="431" y="106"/>
      <point x="534" y="106" type="curve" smooth="yes"/>
      <point x="629" y="106"/>
      <point x="688" y="165"/>
      <point x="702" y="258" type="curve"/>
      <point x="629" y="283" type="line"/>
      <point x="629" y="231"/>
      <point x="599" y="210"/>
      <point x="557" y="210" type="curve" smooth="yes"/>
      <point x="515" y="210"/>
      <point x="482" y="241"/>
      <point x="482" y="291" type="curve" smooth="yes"/>
      <point x="482" y="337"/>
      <point x="512" y="375"/>
      <point x="563" y="375" type="curve" smooth="yes"/>
      <point x="573" y="375" type="line"/>
    </contour>
    <contour>
      <point x="871" y="559" type="line"/>
      <point x="871" y="671" type="line"/>
      <point x="375" y="671" type="line"/>
      <point x="375" y="559" type="line"/>
    </contour>
    <contour>
      <point x="35" y="256" type="line"/>
      <point x="233" y="0" type="line"/>
      <point x="403" y="0" type="line"/>
      <point x="200" y="260" type="line"/>
      <point x="211" y="262" type="line" smooth="yes"/>
      <point x="295" y="282"/>
      <point x="343" y="344"/>
      <point x="343" y="435" type="curve" smooth="yes"/>
      <point x="343" y="559" type="line"/>
      <point x="452" y="559" type="line"/>
      <point x="452" y="671" type="line"/>
      <point x="-30" y="671" type="line"/>
      <point x="-30" y="559" type="line"/>
      <point x="203" y="559" type="line"/>
      <point x="203" y="443" type="line" smooth="yes"/>
      <point x="203" y="398"/>
      <point x="176" y="366"/>
      <point x="111" y="366" type="curve" smooth="yes"/>
      <point x="35" y="366" type="line"/>
    </contour>
  </outline>
</glyph>
<glyph name="dvGA" format="1">
  <advance width="585"/>
  <unicode hex="0917"/>
  <outline>
    <contour>
      <point x="30" y="217" type="line"/>
      <point x="65" y="205"/>
      <point x="87" y="203"/>
      <point x="119" y="203" type="curve" smooth="yes"/>
      <point x="198" y="203"/>
      <point x="264" y="244"/>
      <point x="264" y="345" type="curve"/>
      <point x="264" y="619" type="line"/>
      <point x="123" y="619" type="line"/>
      <point x="123" y="361" type="line" smooth="yes"/>
      <point x="123" y="338"/>
      <point x="114" y="315"/>
      <point x="79" y="315" type="curve" smooth="yes"/>
      <point x="52" y="315"/>
      <point x="30" y="327"/>
      <point x="30" y="327" type="curve"/>
    </contour>
    <contour>
      <point x="-30" y="559" type="line"/>
      <point x="375" y="559" type="line"/>
      <point x="375" y="0" type="line"/>
      <point x="515" y="0" type="line"/>
      <point x="515" y="559" type="line"/>
      <point x="615" y="559" type="line"/>
      <point x="615" y="671" type="line"/>
      <point x="-30" y="671" type="line"/>
    </contour>
  </outline>
</glyph>
<glyph name="dvNGA" format="1">
  <advance width="655"/>
  <unicode hex="0919"/>
  <outline>
    <contour>
      <point x="433" y="671" type="move" name="abvm.bindu"/>
    </contour>
    <contour>
      <point x="433" y="671" type="move" name="abvm.reph"/>
    </contour>
    <contour>
      <point x="433" y="671" type="move" name="abvm.candra"/>
    </contour>
    <contour>
      <point x="433" y="671" type="move" name="abvm.e"/>
    </contour>
    <contour>
      <point x="192" y="-35" type="move" name="blwm.u"/>
    </contour>
    <contour>
      <point x="192" y="0" type="move" name="blwm.virama"/>
    </contour>
    <contour>
      <point x="489" y="175" type="curve"/>
      <point x="489" y="261"/>
      <point x="439" y="328"/>
      <point x="289" y="328" type="curve" smooth="yes"/>
      <point x="219" y="328"/>
      <point x="173" y="330"/>
      <point x="173" y="365" type="curve" smooth="yes"/>
      <point x="173" y="393"/>
      <point x="196" y="404"/>
      <point x="224" y="404" type="curve" smooth="yes"/>
      <point x="433" y="404" type="line"/>
      <point x="412" y="516" type="line"/>
      <point x="225" y="516" type="line" smooth="yes"/>
      <point x="133" y="516"/>
      <point x="34" y="472"/>
      <point x="34" y="362" type="curve" smooth="yes"/>
      <point x="34" y="242"/>
      <point x="146" y="211"/>
      <point x="243" y="211" type="curve" smooth="yes"/>
      <point x="318" y="211"/>
      <point x="349" y="205"/>
      <point x="349" y="167" type="curve" smooth="yes"/>
      <point x="349" y="140"/>
      <point x="318" y="117"/>
      <point x="252" y="117" type="curve" smooth="yes"/>
      <point x="170" y="117"/>
      <point x="100" y="142"/>
      <point x="35" y="182" type="curve"/>
      <point x="35" y="52" type="line"/>
      <point x="80" y="27"/>
      <point x="148" y="0"/>
      <point x="251" y="0" type="curve" smooth="yes"/>
      <point x="401" y="0"/>
      <point x="487" y="77"/>
    </contour>
    <contour>
      <point x="-30" y="559" type="line"/>
      <point x="293" y="559" type="line"/>
      <point x="293" y="407" type="line"/>
      <point x="433" y="407" type="line"/>
      <point x="433" y="559" type="line"/>
      <point x="685" y="559" type="line"/>
      <point x="685" y="671" type="line"/>
      <point x="-30" y="671" type="line"/>
    </contour>
    <contour>
      <point x="476" y="359" type="curve" smooth="yes"/>
      <point x="476" y="317"/>
      <point x="510" y="283"/>
      <point x="552" y="283" type="curve" smooth="yes"/>
      <point x="594" y="283"/>
      <point x="628" y="317"/>
      <point x="628" y="359" type="curve" smooth="yes"/>
      <point x="628" y="401"/>
      <point x="594" y="435"/>
      <point x="552" y="435" type="curve" smooth="yes"/>
      <point x="510" y="435"/>
      <point x="476" y="401"/>
    </contour>
  </outline>
</glyph>
<glyph name="dvCA" format="1">
  <advance width="660"/>
  <unicode hex="091A"/>
  <outline>
    <contour>
      <point x="269" y="91" type="curve" smooth="yes"/>
      <point x="396" y="91"/>
      <point x="454" y="157"/>
      <point x="469" y="205" type="curve"/>
      <point x="450" y="323" type="line"/>
      <point x="450" y="284"/>
      <point x="404" y="204"/>
      <point x="307" y="204" type="curve" smooth="yes"/>
      <point x="250" y="204"/>
      <point x="214" y="228"/>
      <point x="214" y="273" type="curve" smooth="yes"/>
      <point x="214" y="337"/>
      <point x="276" y="359"/>
      <point x="379" y="359" type="curve"/>
      <point x="215" y="382" type="line"/>
      <point x="161" y="381"/>
      <point x="79" y="356"/>
      <point x="79" y="253" type="curve" smooth="yes"/>
      <point x="79" y="167"/>
      <point x="148" y="91"/>
    </contour>
    <contour>
      <point x="590" y="0" type="line"/>
      <point x="590" y="641" type="line"/>
      <point x="450" y="641" type="line"/>
      <point x="450" y="0" type="line"/>
    </contour>
    <contour>
      <point x="690" y="559" type="line"/>
      <point x="690" y="671" type="line"/>
      <point x="-30" y="671" type="line"/>
      <point x="-30" y="559" type="line"/>
    </contour>
    <contour>
      <point x="379" y="359" type="line"/>
      <point x="379" y="474" type="line"/>
      <point x="20" y="474" type="line"/>
      <point x="20" y="359" type="line"/>
    </contour>
  </outline>
</glyph>
<glyph name="dvDHA" format="1">
  <advance width="643"/>
  <unicode hex="0927"/>
  <outline>
    <contour>
      <point x="130" y="571" type="line"/>
      <point x="76" y="559"/>
      <point x="53" y="523"/>
      <point x="53" y="475" type="curve" smooth="yes"/>
      <point x="53" y="408"/>
      <point x="106" y="370"/>
      <point x="196" y="368" type="curve"/>
      <point x="100" y="361"/>
      <point x="39" y="317"/>
      <point x="39" y="237" type="curve" smooth="yes"/>
      <point x="39" y="129"/>
      <point x="138" y="69"/>
      <point x="257" y="69" type="curve" smooth="yes"/>
      <point x="322" y="69"/>
      <point x="392" y="88"/>
      <point x="433" y="136" type="curve"/>
      <point x="433" y="0" type="line"/>
      <point x="573" y="0" type="line"/>
      <point x="573" y="626" type="line"/>
      <point x="433" y="626" type="line"/>
      <point x="433" y="332" type="line" smooth="yes"/>
      <point x="433" y="229"/>
      <point x="365" y="186"/>
      <point x="273" y="186" type="curve" smooth="yes"/>
      <point x="221" y="186"/>
      <point x="181" y="207"/>
      <point x="181" y="251" type="curve" smooth="yes"/>
      <point x="181" y="292"/>
      <point x="217" y="309"/>
      <point x="276" y="309" type="curve" smooth="yes"/>
      <point x="324" y="309" type="line"/>
      <point x="324" y="427" type="line"/>
      <point x="284" y="427" type="line" smooth="yes"/>
      <point x="226" y="427"/>
      <point x="195" y="445"/>
      <point x="195" y="488" type="curve" smooth="yes"/>
      <point x="195" y="535"/>
      <point x="228" y="559"/>
      <point x="292" y="559" type="curve"/>
    </contour>
    <contour>
      <point x="673" y="559" type="line"/>
      <point x="673" y="671" type="line"/>
      <point x="433" y="671" type="line"/>
      <point x="433" y="559" type="line"/>
    </contour>
    <contour>
      <point x="295" y="559" type="line"/>
      <point x="295" y="671" type="line"/>
      <point x="-30" y="671" type="line"/>
      <point x="-30" y="559" type="line"/>
    </contour>
  </outline>
</glyph>
<glyph name="dvPA" format="1">
  <advance width="577"/>
  <unicode hex="092A"/>
  <outline>
    <contour>
      <point x="607" y="559" type="line"/>
      <point x="607" y="671" type="line"/>
      <point x="-30" y="671" type="line"/>
      <point x="-30" y="559" type="line"/>
    </contour>
    <contour>
      <point x="248" y="171" type="curve" smooth="yes"/>
      <point x="345" y="171"/>
      <point x="402" y="232"/>
      <point x="424" y="311" type="curve"/>
      <point x="365" y="376" type="line"/>
      <point x="365" y="315"/>
      <point x="326" y="283"/>
      <point x="276" y="283" type="curve" smooth="yes"/>
      <point x="228" y="283"/>
      <point x="202" y="308"/>
      <point x="202" y="369" type="curve" smooth="yes"/>
      <point x="202" y="620" type="line"/>
      <point x="60" y="620" type="line"/>
      <point x="60" y="375" type="line" smooth="yes"/>
      <point x="60" y="232"/>
      <point x="134" y="171"/>
    </contour>
    <contour>
      <point x="365" y="0" type="line"/>
      <point x="507" y="0" type="line"/>
      <point x="507" y="620" type="line"/>
      <point x="365" y="620" type="line"/>
    </contour>
  </outline>
</glyph>
<glyph name="dvPHA" format="1">
  <advance width="844"/>
  <unicode hex="092B"/>
  <outline>
    <contour>
      <point x="507" y="671" type="move" name="abvm.bindu"/>
    </contour>
    <contour>
      <point x="507" y="671" type="move" name="abvm.candra"/>
    </contour>
    <contour>
      <point x="507" y="671" type="move" name="abvm.reph"/>
    </contour>
    <contour>
      <point x="507" y="671" type="move" name="abvm.e"/>
    </contour>
    <contour>
      <point x="365" y="0" type="move" name="blwm.u"/>
    </contour>
    <contour>
      <point x="365" y="0" type="move" name="blwm.virama"/>
    </contour>
    <contour>
      <point x="874" y="559" type="line"/>
      <point x="874" y="671" type="line"/>
      <point x="-30" y="671" type="line"/>
      <point x="-30" y="559" type="line"/>
    </contour>
    <contour>
      <point x="248" y="171" type="curve" smooth="yes"/>
      <point x="345" y="171"/>
      <point x="402" y="232"/>
      <point x="424" y="311" type="curve"/>
      <point x="365" y="376" type="line"/>
      <point x="365" y="315"/>
      <point x="326" y="283"/>
      <point x="276" y="283" type="curve" smooth="yes"/>
      <point x="228" y="283"/>
      <point x="202" y="308"/>
      <point x="202" y="369" type="curve" smooth="yes"/>
      <point x="202" y="620" type="line"/>
      <point x="60" y="620" type="line"/>
      <point x="60" y="375" type="line" smooth="yes"/>
      <point x="60" y="232"/>
      <point x="134" y="171"/>
    </contour>
    <contour>
      <point x="365" y="0" type="line"/>
      <point x="507" y="0" type="line"/>
      <point x="507" y="620" type="line"/>
      <point x="365" y="620" type="line"/>
    </contour>
    <contour>
      <point x="566" y="101" type="line"/>
      <point x="574" y="100"/>
      <point x="583" y="100"/>
      <point x="591" y="100" type="curve" smooth="yes"/>
      <point x="709" y="100"/>
      <point x="809" y="165"/>
      <point x="809" y="305" type="curve" smooth="yes"/>
      <point x="809" y="408"/>
      <point x="745" y="500"/>
      <point x="624" y="500" type="curve" smooth="yes"/>
      <point x="527" y="500"/>
      <point x="470" y="439"/>
      <point x="448" y="360" type="curve"/>
      <point x="507" y="295" type="line"/>
      <point x="507" y="356"/>
      <point x="546" y="388"/>
      <point x="596" y="388" type="curve" smooth="yes"/>
      <point x="642" y="388"/>
      <point x="668" y="348"/>
      <point x="668" y="304" type="curve" smooth="yes"/>
      <point x="668" y="243"/>
      <point x="639" y="213"/>
      <point x="582" y="213" type="curve" smooth="yes"/>
      <point x="577" y="213"/>
      <point x="572" y="213"/>
      <point x="566" y="214" type="curve"/>
    </contour>
  </outline>
</glyph>
<glyph name="dvBA" format="1">
  <advance width="632"/>
  <unicode hex="092C"/>
  <outline>
    <contour>
      <point x="562" y="0" type="line"/>
      <point x="562" y="664" type="line"/>
      <point x="420" y="664" type="line"/>
      <point x="420" y="0" type="line"/>
    </contour>
    <contour>
      <point x="265" y="74" type="curve" smooth="yes"/>
      <point x="373" y="74"/>
      <point x="450" y="138"/>
      <point x="479" y="226" type="curve"/>
      <point x="420" y="291" type="line"/>
      <point x="420" y="224"/>
      <point x="349" y="184"/>
      <point x="285" y="184" type="curve" smooth="yes"/>
      <point x="223" y="184"/>
      <point x="178" y="224"/>
      <point x="178" y="288" type="curve" smooth="yes"/>
      <point x="178" y="353"/>
      <point x="221" y="391"/>
      <point x="279" y="391" type="curve" smooth="yes"/>
      <point x="300" y="391"/>
      <point x="327" y="388"/>
      <point x="348" y="381" type="curve"/>
      <point x="348" y="503" type="line"/>
      <point x="326" y="508"/>
      <point x="293" y="511"/>
      <point x="267" y="511" type="curve" smooth="yes"/>
      <point x="123" y="511"/>
      <point x="35" y="414"/>
      <point x="35" y="292" type="curve" smooth="yes"/>
      <point x="35" y="164"/>
      <point x="144" y="74"/>
    </contour>
    <contour>
      <point x="662" y="559" type="line"/>
      <point x="662" y="671" type="line"/>
      <point x="-30" y="671" type="line"/>
      <point x="-30" y="559" type="line"/>
    </contour>
    <contour>
      <point x="462" y="206" type="line"/>
      <point x="146" y="466" type="line"/>
      <point x="113" y="413" type="line"/>
      <point x="411" y="163" type="line"/>
    </contour>
  </outline>
</glyph>
<glyph name="dvBHA" format="1">
  <advance width="591"/>
  <unicode hex="092D"/>
  <outline>
    <contour>
      <point x="383" y="378" type="line"/>
      <point x="230" y="378" type="line"/>
      <point x="230" y="531" type="line" smooth="yes"/>
      <point x="230" y="626"/>
      <point x="181" y="676"/>
      <point x="77" y="676" type="curve" smooth="yes"/>
      <point x="47" y="676"/>
      <point x="10" y="666"/>
      <point x="-9" y="656" type="curve"/>
      <point x="-9" y="547" type="line"/>
      <point x="3" y="553"/>
      <point x="23" y="561"/>
      <point x="45" y="561" type="curve" smooth="yes"/>
      <point x="77" y="561"/>
      <point x="91" y="543"/>
      <point x="91" y="514" type="curve" smooth="yes"/>
      <point x="91" y="371" type="line"/>
      <point x="62" y="363"/>
      <point x="45" y="339"/>
      <point x="45" y="306" type="curve" smooth="yes"/>
      <point x="45" y="284"/>
      <point x="52" y="260"/>
      <point x="72" y="218" type="curve" smooth="yes"/>
      <point x="108" y="141" type="line"/>
      <point x="230" y="141" type="line"/>
      <point x="230" y="266" type="line"/>
      <point x="383" y="266" type="line"/>
      <point x="383" y="0" type="line"/>
      <point x="521" y="0" type="line"/>
      <point x="521" y="559" type="line"/>
      <point x="621" y="559" type="line"/>
      <point x="621" y="671" type="line"/>
      <point x="383" y="671" type="line"/>
    </contour>
  </outline>
</glyph>
<glyph name="dvMA" format="1">
  <advance width="585"/>
  <unicode hex="092E"/>
  <outline>
    <contour>
      <point x="-30" y="559" type="line"/>
      <point x="80" y="559" type="line"/>
      <point x="80" y="366" type="line"/>
      <point x="51" y="358"/>
      <point x="35" y="341"/>
      <point x="35" y="311" type="curve" smooth="yes"/>
      <point x="35" y="289"/>
      <point x="45" y="262"/>
      <point x="64" y="219" type="curve" smooth="yes"/>
      <point x="100" y="139" type="line"/>
      <point x="219" y="139" type="line"/>
      <point x="219" y="261" type="line"/>
      <point x="377" y="261" type="line"/>
      <point x="377" y="0" type="line"/>
      <point x="515" y="0" type="line"/>
      <point x="515" y="559" type="line"/>
      <point x="615" y="559" type="line"/>
      <point x="615" y="671" type="line"/>
      <point x="-30" y="671" type="line"/>
    </contour>
    <contour>
      <point x="377" y="559" type="line"/>
      <point x="377" y="373" type="line"/>
      <point x="219" y="373" type="line"/>
      <point x="219" y="559" type="line"/>
    </contour>
  </outline>
</glyph>
<glyph name="dvVA" format="1">
  <advance width="603"/>
  <unicode hex="0935"/>
  <outline>
    <contour>
      <point x="533" y="0" type="line"/>
      <point x="533" y="664" type="line"/>
      <point x="391" y="664" type="line"/>
      <point x="391" y="0" type="line"/>
    </contour>
    <contour>
      <point x="328" y="497" type="line"/>
      <point x="309" y="502"/>
      <point x="283" y="505"/>
      <point x="258" y="505" type="curve" smooth="yes"/>
      <point x="122" y="505"/>
      <point x="35" y="412"/>
      <point x="35" y="292" type="curve" smooth="yes"/>
      <point x="35" y="158"/>
      <point x="136" y="86"/>
      <point x="252" y="86" type="curve" smooth="yes"/>
      <point x="347" y="86"/>
      <point x="420" y="136"/>
      <point x="450" y="226" type="curve"/>
      <point x="391" y="291" type="line"/>
      <point x="391" y="235"/>
      <point x="330" y="198"/>
      <point x="281" y="198" type="curve" smooth="yes"/>
      <point x="213" y="198"/>
      <point x="178" y="234"/>
      <point x="178" y="296" type="curve" smooth="yes"/>
      <point x="178" y="351"/>
      <point x="219" y="384"/>
      <point x="269" y="384" type="curve" smooth="yes"/>
      <point x="291" y="384"/>
      <point x="309" y="380"/>
      <point x="328" y="375" type="curve"/>
    </contour>
    <contour>
      <point x="633" y="559" type="line"/>
      <point x="633" y="671" type="line"/>
      <point x="-30" y="671" type="line"/>
      <point x="-30" y="559" type="line"/>
    </contour>
  </outline>
</glyph>
<glyph name="dvSHA" format="1">
  <advance width="720"/>
  <unicode hex="0936"/>
  <outline>
    <contour>
      <point x="442" y="479" type="curve" smooth="yes"/>
      <point x="442" y="594"/>
      <point x="364" y="677"/>
      <point x="240" y="677" type="curve" smooth="yes"/>
      <point x="127" y="677"/>
      <point x="57" y="600"/>
      <point x="57" y="513" type="curve" smooth="yes"/>
      <point x="57" y="488"/>
      <point x="63" y="462"/>
      <point x="75" y="439" type="curve"/>
      <point x="210" y="439" type="line"/>
      <point x="199" y="460"/>
      <point x="193" y="476"/>
      <point x="193" y="501" type="curve" smooth="yes"/>
      <point x="193" y="533"/>
      <point x="209" y="560"/>
      <point x="242" y="560" type="curve" smooth="yes"/>
      <point x="279" y="560"/>
      <point x="303" y="536"/>
      <point x="303" y="480" type="curve" smooth="yes"/>
      <point x="303" y="398"/>
      <point x="244" y="351"/>
      <point x="142" y="351" type="curve" smooth="yes"/>
      <point x="30" y="351" type="line"/>
      <point x="69" y="239" type="line"/>
      <point x="177" y="239" type="line" smooth="yes"/>
      <point x="303" y="239"/>
      <point x="442" y="310"/>
    </contour>
    <contour>
      <point x="30" y="234" type="line"/>
      <point x="251" y="0" type="line"/>
      <point x="431" y="0" type="line"/>
      <point x="163" y="271" type="line"/>
      <point x="30" y="351" type="line"/>
    </contour>
    <contour>
      <point x="508" y="0" type="line"/>
      <point x="650" y="0" type="line"/>
      <point x="650" y="559" type="line"/>
      <point x="750" y="559" type="line"/>
      <point x="750" y="671" type="line"/>
      <point x="508" y="671" type="line"/>
    </contour>
  </outline>
</glyph>
<glyph name="dvSSA" format="1">
  <advance width="610"/>
  <unicode hex="0937"/>
  <outline>
    <contour>
      <point x="474" y="200" type="line"/>
      <point x="528" y="248" type="line"/>
      <point x="155" y="636" type="line"/>
      <point x="73" y="607" type="line"/>
    </contour>
    <contour>
      <point x="640" y="559" type="line"/>
      <point x="640" y="671" type="line"/>
      <point x="-30" y="671" type="line"/>
      <point x="-30" y="559" type="line"/>
    </contour>
    <contour>
      <point x="264" y="166" type="curve" smooth="yes"/>
      <point x="357" y="166"/>
      <point x="439" y="215"/>
      <point x="460" y="306" type="curve"/>
      <point x="401" y="371" type="line"/>
      <point x="401" y="314"/>
      <point x="342" y="277"/>
      <point x="294" y="277" type="curve" smooth="yes"/>
      <point x="239" y="277"/>
      <point x="195" y="305"/>
      <point x="195" y="369" type="curve" smooth="yes"/>
      <point x="195" y="620" type="line"/>
      <point x="60" y="620" type="line"/>
      <point x="60" y="375" type="line" smooth="yes"/>
      <point x="60" y="232"/>
      <point x="150" y="166"/>
    </contour>
    <contour>
      <point x="401" y="0" type="line"/>
      <point x="540" y="0" type="line"/>
      <point x="540" y="620" type="line"/>
      <point x="401" y="620" type="line"/>
    </contour>
  </outline>
</glyph>
<glyph name="dvHA" format="1">
  <advance width="551"/>
  <unicode hex="0939"/>
  <outline>
    <contour>
      <point x="483" y="671" type="move" name="abvm.bindu"/>
    </contour>
    <contour>
      <point x="483" y="671" type="move" name="abvm.candra"/>
    </contour>
    <contour>
      <point x="483" y="671" type="move" name="abvm.e"/>
    </contour>
    <contour>
      <point x="483" y="671" type="move" name="abvm.reph"/>
    </contour>
    <contour>
      <point x="245" y="-79" type="move" name="blwm.u"/>
    </contour>
    <contour>
      <point x="245" y="-44" type="move" name="blwm.virama"/>
    </contour>
    <contour>
      <point x="465" y="88" type="line"/>
      <point x="383" y="70"/>
      <point x="361" y="69"/>
      <point x="327" y="69" type="curve" smooth="yes"/>
      <point x="226" y="69"/>
      <point x="191" y="104"/>
      <point x="191" y="150" type="curve" smooth="yes"/>
      <point x="191" y="190"/>
      <point x="226" y="219"/>
      <point x="296" y="219" type="curve" smooth="yes"/>
      <point x="342" y="219"/>
      <point x="369" y="199"/>
      <point x="369" y="175" type="curve" smooth="yes"/>
      <point x="369" y="166"/>
      <point x="369" y="144"/>
      <point x="359" y="125" type="curve"/>
      <point x="497" y="125" type="line"/>
      <point x="506" y="145"/>
      <point x="506" y="169"/>
      <point x="506" y="183" type="curve" smooth="yes"/>
      <point x="506" y="269"/>
      <point x="423" y="334"/>
      <point x="301" y="334" type="curve" smooth="yes"/>
      <point x="129" y="334"/>
      <point x="49" y="244"/>
      <point x="49" y="151" type="curve" smooth="yes"/>
      <point x="49" y="57"/>
      <point x="133" y="-44"/>
      <point x="321" y="-44" type="curve" smooth="yes"/>
      <point x="365" y="-44"/>
      <point x="394" y="-42"/>
      <point x="465" y="-27" type="curve"/>
    </contour>
    <contour>
      <point x="234" y="316" type="line"/>
      <point x="206" y="332"/>
      <point x="191" y="353"/>
      <point x="191" y="374" type="curve" smooth="yes"/>
      <point x="191" y="392"/>
      <point x="205" y="401"/>
      <point x="228" y="401" type="curve" smooth="yes"/>
      <point x="483" y="401" type="line"/>
      <point x="483" y="559" type="line"/>
      <point x="581" y="559" type="line"/>
      <point x="581" y="671" type="line"/>
      <point x="-30" y="671" type="line"/>
      <point x="-30" y="559" type="line"/>
      <point x="343" y="559" type="line"/>
      <point x="343" y="511" type="line"/>
      <point x="199" y="511" type="line" smooth="yes"/>
      <point x="112" y="511"/>
      <point x="45" y="471"/>
      <point x="45" y="391" type="curve" smooth="yes"/>
      <point x="45" y="305"/>
      <point x="131" y="274"/>
      <point x="131" y="274" type="curve"/>
    </contour>
  </outline>
</glyph>
<glyph name="dvNukta" format="1">
  <advance width="0"/>
  <unicode hex="093C"/>
  <outline>
    <contour>
      <point x="-361" y="-132" type="curve" smooth="yes"/>
      <point x="-361" y="-174"/>
      <point x="-327" y="-208"/>
      <point x="-285" y="-208" type="curve" smooth="yes"/>
      <point x="-243" y="-208"/>
      <point x="-209" y="-174"/>
      <point x="-209" y="-132" type="curve" smooth="yes"/>
      <point x="-209" y="-90"/>
      <point x="-243" y="-56"/>
      <point x="-285" y="-56" type="curve" smooth="yes"/>
      <point x="-327" y="-56"/>
      <point x="-361" y="-90"/>
    </contour>
  </outline>
</glyph>
<glyph name="dvmII" format="1">
  <advance width="281"/>
  <unicode hex="0940"/>
  <outline>
    <contour>
      <point x="-30" y="559" type="line"/>
      <point x="70" y="559" type="line"/>
      <point x="70" y="0" type="line"/>
      <point x="211" y="0" type="line"/>
      <point x="211" y="559" type="line"/>
      <point x="311" y="559" type="line"/>
      <point x="311" y="671" type="line"/>
      <point x="-30" y="671" type="line"/>
    </contour>
    <contour>
      <point x="-218" y="736" type="curve" smooth="yes"/>
      <point x="-218" y="706" type="line"/>
      <point x="-76" y="706" type="line"/>
      <point x="-76" y="731" type="line" smooth="yes"/>
      <point x="-76" y="782"/>
      <point x="-54" y="808"/>
      <point x="-6" y="808" type="curve" smooth="yes"/>
      <point x="42" y="808"/>
      <point x="69" y="780"/>
      <point x="69" y="731" type="curve" smooth="yes"/>
      <point x="69" y="589" type="line"/>
      <point x="210" y="589" type="line"/>
      <point x="210" y="737" type="line" smooth="yes"/>
      <point x="210" y="869"/>
      <point x="109" y="926"/>
      <point x="-6" y="926" type="curve" smooth="yes"/>
      <point x="-120" y="926"/>
      <point x="-218" y="868"/>
    </contour>
  </outline>
</glyph>
<glyph name="dvmU" format="1">
  <advance width="0"/>
  <unicode hex="0941"/>
  <outline>
    <contour>
      <point x="-211" y="0" type="move" name="_blwm.u"/>
    </contour>
    <contour>
      <point x="-438" y="-190" type="line"/>
      <point x="-386" y="-234"/>
      <point x="-274" y="-307"/>
      <point x="-149" y="-307" type="curve" smooth="yes"/>
      <point x="-21" y="-307"/>
      <point x="47" y="-232"/>
      <point x="47" y="-142" type="curve" smooth="yes"/>
      <point x="47" y="-48"/>
      <point x="-26" y="12"/>
      <point x="-148" y="12" type="curve" smooth="yes"/>
      <point x="-188" y="12"/>
      <point x="-228" y="4"/>
      <point x="-257" y="-6" type="curve"/>
      <point x="-257" y="-128" type="line"/>
      <point x="-230" y="-115"/>
      <point x="-189" y="-101"/>
      <point x="-151" y="-101" type="curve" smooth="yes"/>
      <point x="-113" y="-101"/>
      <point x="-89" y="-117"/>
      <point x="-89" y="-142" type="curve" smooth="yes"/>
      <point x="-89" y="-171"/>
      <point x="-111" y="-192"/>
      <point x="-154" y="-192" type="curve" smooth="yes"/>
      <point x="-258" y="-192"/>
      <point x="-379" y="-97"/>
      <point x="-438" y="-36" type="curve"/>
    </contour>
  </outline>
</glyph>
<glyph name="dvmvR" format="1">
  <advance width="0"/>
  <unicode hex="0943"/>
  <outline>
    <contour>
      <point x="-211" y="0" type="move" name="_blwm.virama"/>
    </contour>
    <contour>
      <point x="-352" y="-161" type="curve" smooth="yes"/>
      <point x="-352" y="-251"/>
      <point x="-277" y="-319"/>
      <point x="-168" y="-319" type="curve" smooth="yes"/>
      <point x="-133" y="-319"/>
      <point x="-90" y="-308"/>
      <point x="-63" y="-293" type="curve"/>
      <point x="-63" y="-186" type="line"/>
      <point x="-84" y="-199"/>
      <point x="-121" y="-213"/>
      <point x="-156" y="-213" type="curve" smooth="yes"/>
      <point x="-193" y="-213"/>
      <point x="-215" y="-196"/>
      <point x="-215" y="-168" type="curve" smooth="yes"/>
      <point x="-215" y="-129"/>
      <point x="-184" y="-115"/>
      <point x="-119" y="-115" type="curve" smooth="yes"/>
      <point x="-70" y="-115" type="line"/>
      <point x="-70" y="12" type="line"/>
      <point x="-211" y="12" type="line"/>
      <point x="-211" y="-13" type="line"/>
      <point x="-297" y="-26"/>
      <point x="-352" y="-78"/>
    </contour>
  </outline>
</glyph>
<glyph name="dvmEcandra" format="1">
  <advance width="0"/>
  <unicode hex="0945"/>
  <outline>
    <contour>
      <point x="-70" y="671" type="move" name="_abvm.candra"/>
    </contour>
    <contour>
      <point x="-139" y="733" type="curve" smooth="yes"/>
      <point x="-16" y="733"/>
      <point x="84" y="802"/>
      <point x="84" y="922" type="curve"/>
      <point x="-52" y="922" type="line"/>
      <point x="-52" y="870"/>
      <point x="-80" y="833"/>
      <point x="-139" y="833" type="curve" smooth="yes"/>
      <point x="-201" y="833"/>
      <point x="-230" y="870"/>
      <point x="-230" y="922" type="curve"/>
      <point x="-366" y="922" type="line"/>
      <point x="-366" y="796"/>
      <point x="-278" y="733"/>
    </contour>
  </outline>
</glyph>
<glyph name="dvmE" format="1">
  <advance width="0"/>
  <unicode hex="0947"/>
  <outline>
    <contour>
      <point x="-70" y="671" type="move" name="_abvm.e"/>
    </contour>
    <contour>
      <point x="-427" y="800" type="line"/>
      <point x="-407" y="806"/>
      <point x="-384" y="810"/>
      <point x="-363" y="810" type="curve" smooth="yes"/>
      <point x="-331" y="810"/>
      <point x="-307" y="799"/>
      <point x="-287" y="769" type="curve" smooth="yes"/>
      <point x="-215" y="664" type="line"/>
      <point x="-64" y="664" type="line"/>
      <point x="-174" y="833" type="line" smooth="yes"/>
      <point x="-218" y="901"/>
      <point x="-273" y="924"/>
      <point x="-351" y="925" type="curve" smooth="yes"/>
      <point x="-375" y="925"/>
      <point x="-401" y="923"/>
      <point x="-427" y="918" type="curve"/>
    </contour>
  </outline>
</glyph>
<glyph name="dvmAI" format="1">
  <advance width="0"/>
  <unicode hex="0948"/>
  <outline>
    <contour>
      <point x="-70" y="671" type="move" name="_abvm.e"/>
    </contour>
    <contour>
      <point x="-477" y="870" type="line"/>
      <point x="-457" y="876"/>
      <point x="-424" y="880"/>
      <point x="-403" y="880" type="curve" smooth="yes"/>
      <point x="-344" y="880"/>
      <point x="-311" y="856"/>
      <point x="-274" y="813" type="curve" smooth="yes"/>
      <point x="-148" y="664" type="line"/>
      <point x="-74" y="664" type="line"/>
      <point x="-194" y="862" type="line" smooth="yes"/>
      <point x="-242" y="941"/>
      <point x="-304" y="984"/>
      <point x="-394" y="984" type="curve" smooth="yes"/>
      <point x="-429" y="984"/>
      <point x="-462" y="980"/>
      <point x="-477" y="975" type="curve"/>
    </contour>
    <contour>
      <point x="-137" y="664" type="line"/>
      <point x="-161" y="685" type="line" smooth="yes"/>
      <point x="-305" y="811"/>
      <point x="-346" y="828"/>
      <point x="-418" y="828" type="curve" smooth="yes"/>
      <point x="-435" y="828"/>
      <point x="-460" y="824"/>
      <point x="-477" y="819" type="curve"/>
      <point x="-477" y="719" type="line"/>
      <point x="-462" y="723"/>
      <point x="-439" y="726"/>
      <point x="-421" y="726" type="curve" smooth="yes"/>
      <point x="-354" y="726"/>
      <point x="-293" y="695"/>
      <point x="-235" y="664" type="curve"/>
    </contour>
  </outline>
</glyph>
<glyph name="dvmOcandra" format="1">
  <advance width="280"/>
  <unicode hex="0949"/>
  <outline>
    <contour>
      <point x="-30" y="559" type="line"/>
      <point x="70" y="559" type="line"/>
      <point x="70" y="0" type="line"/>
      <point x="210" y="0" type="line"/>
      <point x="210" y="559" type="line"/>
      <point x="310" y="559" type="line"/>
      <point x="310" y="671" type="line"/>
      <point x="-30" y="671" type="line"/>
    </contour>
    <contour>
      <point x="137" y="733" type="curve" smooth="yes"/>
      <point x="260" y="733"/>
      <point x="360" y="802"/>
      <point x="360" y="922" type="curve"/>
      <point x="224" y="922" type="line"/>
      <point x="224" y="870"/>
      <point x="196" y="833"/>
      <point x="137" y="833" type="curve" smooth="yes"/>
      <point x="75" y="833"/>
      <point x="46" y="870"/>
      <point x="46" y="922" type="curve"/>
      <point x="-90" y="922" type="line"/>
      <point x="-90" y="796"/>
      <point x="-2" y="733"/>
    </contour>
  </outline>
</glyph>
<glyph name="dvDDxA" format="1">
  <advance width="534"/>
  <unicode hex="095C"/>
  <outline>
    <contour>
      <point x="433" y="671" type="move" name="abvm.bindu"/>
    </contour>
    <contour>
      <point x="433" y="671" type="move" name="abvm.candra"/>
    </contour>
    <contour>
      <point x="433" y="671" type="move" name="abvm.e"/>
    </contour>
    <contour>
      <point x="433" y="671" type="move" name="abvm.reph"/>
    </contour>
    <contour>
      <point x="167" y="-243" type="move" name="blwm.u"/>
    </contour>
    <contour>
      <point x="167" y="-208" type="move" name="blwm.virama"/>
    </contour>
    <component base="dvDDA"/>
    <component base="dvNukta" xOffset="530"/>
  </outline>
</glyph>
<glyph name="dvDDHxA" format="1">
  <advance width="564"/>
  <unicode hex="095D"/>
  <outline>
    <contour>
      <point x="464" y="671" type="move" name="abvm.bindu"/>
    </contour>
    <contour>
      <point x="464" y="671" type="move" name="abvm.candra"/>
    </contour>
    <contour>
      <point x="464" y="671" type="move" name="abvm.e"/>
    </contour>
    <contour>
      <point x="464" y="671" type="move" name="abvm.reph"/>
    </contour>
    <contour>
      <point x="224" y="-243" type="move" name="blwm.u"/>
    </contour>
    <contour>
      <point x="224" y="-208" type="move" name="blwm.virama"/>
    </contour>
    <component base="dvDDHA"/>
    <component base="dvNukta" xOffset="572"/>
  </outline>
</glyph>
<glyph name="dvvRR" format="1">
  <advance width="808"/>
  <unicode hex="0960"/>
  <outline>
    <contour>
      <point x="883" y="559" type="line"/>
      <point x="883" y="671" type="line"/>
      <point x="-90" y="671" type="line"/>
      <point x="-90" y="559" type="line"/>
    </contour>
    <contour>
      <point x="461" y="0" type="line"/>
      <point x="461" y="612" type="line"/>
      <point x="318" y="612" type="line"/>
      <point x="318" y="0" type="line"/>
    </contour>
    <contour>
      <point x="681" y="505" type="line"/>
      <point x="546" y="505" type="line"/>
      <point x="546" y="403" type="line" smooth="yes"/>
      <point x="546" y="321"/>
      <point x="600" y="262"/>
      <point x="686" y="262" type="curve" smooth="yes"/>
      <point x="686" y="262"/>
      <point x="747" y="337"/>
      <point x="747" y="337" type="curve"/>
      <point x="701" y="337"/>
      <point x="681" y="372"/>
      <point x="681" y="420" type="curve" smooth="yes"/>
    </contour>
    <contour>
      <point x="372" y="214" type="line"/>
      <point x="660" y="378" type="line"/>
      <point x="599" y="471" type="line"/>
      <point x="372" y="341" type="line"/>
    </contour>
    <contour>
      <point x="80" y="366" type="curve" smooth="yes"/>
      <point x="161" y="366"/>
      <point x="180" y="310"/>
      <point x="180" y="242" type="curve"/>
      <point x="292" y="302" type="line"/>
      <point x="276" y="438"/>
      <point x="198" y="487"/>
      <point x="94" y="487" type="curve" smooth="yes"/>
      <point x="74" y="487"/>
      <point x="38" y="483"/>
      <point x="14" y="475" type="curve"/>
      <point x="14" y="352" type="line"/>
      <point x="45" y="365"/>
      <point x="67" y="366"/>
    </contour>
    <contour>
      <point x="324" y="328" type="line"/>
      <point x="15" y="159" type="line"/>
      <point x="15" y="26" type="line"/>
      <point x="324" y="198" type="line"/>
    </contour>
    <contour>
      <point x="697" y="76" type="line"/>
      <point x="616" y="76"/>
      <point x="549" y="31"/>
      <point x="549" y="-46" type="curve" smooth="yes"/>
      <point x="549" y="-141"/>
      <point x="628" y="-188"/>
      <point x="741" y="-188" type="curve" smooth="yes"/>
      <point x="778" y="-188"/>
      <point x="820" y="-182"/>
      <point x="853" y="-166" type="curve"/>
      <point x="853" y="-53" type="line"/>
      <point x="822" y="-68"/>
      <point x="789" y="-75"/>
      <point x="754" y="-75" type="curve" smooth="yes"/>
      <point x="713" y="-75"/>
      <point x="692" y="-59"/>
      <point x="692" y="-31" type="curve" smooth="yes"/>
      <point x="692" y="-1"/>
      <point x="714" y="14"/>
      <point x="756" y="14" type="curve" smooth="yes"/>
      <point x="777" y="14" type="line"/>
      <point x="777" y="126" type="line"/>
      <point x="751" y="126" type="line" smooth="yes"/>
      <point x="683" y="126"/>
      <point x="659" y="142"/>
      <point x="659" y="174" type="curve" smooth="yes"/>
      <point x="659" y="206"/>
      <point x="682" y="225"/>
      <point x="745" y="225" type="curve" smooth="yes"/>
      <point x="781" y="225" type="line"/>
      <point x="781" y="337" type="line"/>
      <point x="713" y="337" type="line"/>
      <point x="696" y="291" type="line"/>
      <point x="603" y="291"/>
      <point x="522" y="260"/>
      <point x="522" y="171" type="curve" smooth="yes"/>
      <point x="522" y="96"/>
      <point x="598" y="50"/>
      <point x="697" y="50" type="curve"/>
    </contour>
  </outline>
</glyph>
<glyph name="dvvLL" format="1">
  <advance width="845"/>
  <unicode hex="0961"/>
  <outline>
    <contour>
      <point x="727" y="619" type="line"/>
      <point x="585" y="619" type="line"/>
      <point x="585" y="318" type="line" smooth="yes"/>
      <point x="585" y="214"/>
      <point x="474" y="201"/>
      <point x="474" y="107" type="curve" smooth="yes"/>
      <point x="474" y="6"/>
      <point x="559" y="-12"/>
      <point x="659" y="-41" type="curve"/>
      <point x="725" y="-41" type="line"/>
      <point x="725" y="71" type="line"/>
      <point x="666" y="71" type="line" smooth="yes"/>
      <point x="635" y="71"/>
      <point x="614" y="85"/>
      <point x="614" y="108" type="curve" smooth="yes"/>
      <point x="614" y="172"/>
      <point x="727" y="203"/>
      <point x="727" y="318" type="curve" smooth="yes"/>
    </contour>
    <contour>
      <point x="-30" y="559" type="line"/>
      <point x="833" y="559" type="line"/>
      <point x="833" y="671" type="line"/>
      <point x="-30" y="671" type="line"/>
    </contour>
    <contour>
      <point x="454" y="-86" type="curve" smooth="yes"/>
      <point x="454" y="-181"/>
      <point x="533" y="-248"/>
      <point x="646" y="-248" type="curve" smooth="yes"/>
      <point x="687" y="-248"/>
      <point x="723" y="-242"/>
      <point x="758" y="-226" type="curve"/>
      <point x="758" y="-113" type="line"/>
      <point x="730" y="-127"/>
      <point x="694" y="-135"/>
      <point x="659" y="-135" type="curve" smooth="yes"/>
      <point x="618" y="-135"/>
      <point x="597" y="-114"/>
      <point x="597" y="-86" type="curve" smooth="yes"/>
      <point x="597" y="-61"/>
      <point x="612" y="-41"/>
      <point x="642" y="-41" type="curve" smooth="yes"/>
      <point x="727" y="-41" type="line"/>
      <point x="675" y="59" type="line"/>
      <point x="629" y="59" type="line"/>
      <point x="577" y="50" type="line" smooth="yes"/>
      <point x="511" y="38"/>
      <point x="454" y="-9"/>
    </contour>
    <contour>
      <point x="665" y="520" type="line"/>
      <point x="538" y="520" type="line" smooth="yes"/>
      <point x="468" y="520"/>
      <point x="420" y="507"/>
      <point x="386" y="473" type="curve"/>
      <point x="355" y="503"/>
      <point x="307" y="522"/>
      <point x="243" y="522" type="curve" smooth="yes"/>
      <point x="104" y="522"/>
      <point x="25" y="425"/>
      <point x="25" y="297" type="curve" smooth="yes"/>
      <point x="25" y="122"/>
      <point x="146" y="21"/>
      <point x="328" y="-9" type="curve"/>
      <point x="330" y="107" type="line"/>
      <point x="220" y="128"/>
      <point x="168" y="194"/>
      <point x="168" y="295" type="curve" smooth="yes"/>
      <point x="168" y="372"/>
      <point x="200" y="411"/>
      <point x="249" y="411" type="curve" smooth="yes"/>
      <point x="284" y="411"/>
      <point x="315" y="387"/>
      <point x="315" y="304" type="curve" smooth="yes"/>
      <point x="315" y="228" type="line"/>
      <point x="456" y="228" type="line"/>
      <point x="456" y="304" type="line" smooth="yes"/>
      <point x="456" y="381"/>
      <point x="482" y="409"/>
      <point x="543" y="409" type="curve" smooth="yes"/>
      <point x="665" y="409" type="line"/>
    </contour>
  </outline>
</glyph>
<glyph name="danda" format="1">
  <advance width="477"/>
  <unicode hex="0964"/>
  <outline>
    <contour>
      <point x="215" y="0" type="line"/>
      <point x="357" y="0" type="line"/>
      <point x="357" y="671" type="line"/>
      <point x="215" y="671" type="line"/>
    </contour>
  </outline>
</glyph>
<glyph name="endash" format="1">
  <advance width="555"/>
  <unicode hex="2013"/>
  <outline>
    <contour>
      <point x="45" y="215" type="line"/>
      <point x="510" y="215" type="line"/>
      <point x="510" y="322" type="line"/>
      <point x="45" y="322" type="line"/>
    </contour>
  </outline>
</glyph>
<glyph name="emdash" format="1">
  <advance width="836"/>
  <unicode hex="2014"/>
  <outline>
    <contour>
      <point x="45" y="218" type="line"/>
      <point x="791" y="218" type="line"/>
      <point x="791" y="325" type="line"/>
      <point x="45" y="325" type="line"/>
    </contour>
  </outline>
</glyph>
<glyph name="quoteleft" format="1">
  <advance width="267"/>
  <unicode hex="2018"/>
  <outline>
    <contour>
      <point x="289" y="694" type="line"/>
      <point x="163" y="694" type="line"/>
      <point x="27" y="433" type="line"/>
      <point x="188" y="433" type="line"/>
    </contour>
  </outline>
</glyph>
<glyph name="quotedblright" format="1">
  <advance width="452"/>
  <unicode hex="201D"/>
  <outline>
    <contour>
      <point x="213" y="433" type="line"/>
      <point x="334" y="433" type="line"/>
      <point x="475" y="694" type="line"/>
      <point x="317" y="694" type="line"/>
    </contour>
    <contour>
      <point x="28" y="433" type="line"/>
      <point x="149" y="433" type="line"/>
      <point x="270" y="694" type="line"/>
      <point x="124" y="694" type="line"/>
    </contour>
  </outline>
</glyph>
<glyph name="quotedblbase" format="1">
  <advance width="452"/>
  <unicode hex="201E"/>
  <outline>
    <contour>
      <point x="183" y="-127" type="line"/>
      <point x="304" y="-127" type="line"/>
      <point x="445" y="134" type="line"/>
      <point x="287" y="134" type="line"/>
    </contour>
    <contour>
      <point x="-2" y="-127" type="line"/>
      <point x="119" y="-127" type="line"/>
      <point x="240" y="134" type="line"/>
      <point x="94" y="134" type="line"/>
    </contour>
  </outline>
</glyph>
<glyph name="bullet" format="1">
  <advance width="425"/>
  <unicode hex="2022"/>
  <outline>
    <contour>
      <point x="80" y="356" type="curve"/>
      <point x="80" y="281"/>
      <point x="136" y="223"/>
      <point x="213" y="223" type="curve"/>
      <point x="287" y="223"/>
      <point x="345" y="281"/>
      <point x="345" y="356" type="curve"/>
      <point x="345" y="431"/>
      <point x="287" y="489"/>
      <point x="212" y="489" type="curve"/>
      <point x="136" y="489"/>
      <point x="80" y="431"/>
    </contour>
  </outline>
</glyph>
<glyph name="guilsinglleft" format="1">
  <advance width="371"/>
  <unicode hex="2039"/>
  <outline>
    <contour>
      <point x="26" y="253" type="line"/>
      <point x="178" y="415" type="line"/>
      <point x="330" y="415" type="line"/>
      <point x="184" y="253" type="line"/>
    </contour>
    <contour>
      <point x="184" y="253" type="line"/>
      <point x="330" y="91" type="line"/>
      <point x="178" y="91" type="line"/>
      <point x="26" y="253" type="line"/>
    </contour>
  </outline>
</glyph>
<glyph name="litre" format="1">
  <advance width="519"/>
  <unicode hex="2113"/>
  <outline>
    <contour>
      <point x="476" y="27" type="line"/>
      <point x="443" y="8"/>
      <point x="394" y="-5"/>
      <point x="335" y="-5" type="curve" smooth="yes"/>
      <point x="210" y="-5"/>
      <point x="136" y="65"/>
      <point x="136" y="195" type="curve" smooth="yes"/>
      <point x="136" y="465" type="line" smooth="yes"/>
      <point x="136" y="582"/>
      <point x="178" y="679"/>
      <point x="308" y="679" type="curve" smooth="yes"/>
      <point x="428" y="679"/>
      <point x="481" y="606"/>
      <point x="481" y="509" type="curve" smooth="yes"/>
      <point x="481" y="348"/>
      <point x="351" y="184"/>
      <point x="98" y="184" type="curve" smooth="yes"/>
      <point x="72" y="184"/>
      <point x="49" y="186"/>
      <point x="30" y="191" type="curve"/>
      <point x="30" y="309" type="line"/>
      <point x="46" y="305"/>
      <point x="75" y="301"/>
      <point x="98" y="301" type="curve" smooth="yes"/>
      <point x="278" y="301"/>
      <point x="361" y="405"/>
      <point x="361" y="497" type="curve" smooth="yes"/>
      <point x="361" y="527"/>
      <point x="350" y="549"/>
      <point x="323" y="549" type="curve" smooth="yes"/>
      <point x="289" y="549"/>
      <point x="280" y="511"/>
      <point x="280" y="459" type="curve" smooth="yes"/>
      <point x="280" y="207" type="line" smooth="yes"/>
      <point x="280" y="140"/>
      <point x="318" y="112"/>
      <point x="372" y="112" type="curve" smooth="yes"/>
      <point x="411" y="112"/>
      <point x="451" y="128"/>
      <point x="476" y="145" type="curve"/>
    </contour>
  </outline>
</glyph>
<glyph name="trademark" format="1">
  <advance width="753"/>
  <unicode hex="2122"/>
  <outline>
    <contour>
      <point x="305" y="331" type="line"/>
      <point x="396" y="331" type="line"/>
      <point x="405" y="442" type="line" smooth="yes"/>
      <point x="411" y="510"/>
      <point x="402" y="570"/>
      <point x="402" y="570" type="curve" smooth="yes"/>
      <point x="402" y="570"/>
      <point x="414" y="508"/>
      <point x="438" y="442" type="curve" smooth="yes"/>
      <point x="477" y="335" type="line"/>
      <point x="555" y="335" type="line"/>
      <point x="595" y="442" type="line" smooth="yes"/>
      <point x="623" y="514"/>
      <point x="633" y="570"/>
      <point x="633" y="570" type="curve"/>
      <point x="633" y="570"/>
      <point x="627" y="514"/>
      <point x="633" y="443" type="curve"/>
      <point x="643" y="331" type="line"/>
      <point x="734" y="331" type="line"/>
      <point x="699" y="674" type="line"/>
      <point x="600" y="674" type="line"/>
      <point x="564" y="581" type="line" smooth="yes"/>
      <point x="524" y="475"/>
      <point x="515" y="442"/>
      <point x="515" y="442" type="curve"/>
      <point x="515" y="442"/>
      <point x="510" y="476"/>
      <point x="469" y="581" type="curve" smooth="yes"/>
      <point x="433" y="674" type="line"/>
      <point x="334" y="674" type="line"/>
    </contour>
    <contour>
      <point x="10" y="592" type="line"/>
      <point x="94" y="592" type="line"/>
      <point x="94" y="331" type="line"/>
      <point x="188" y="331" type="line"/>
      <point x="188" y="592" type="line"/>
      <point x="271" y="592" type="line"/>
      <point x="271" y="674" type="line"/>
      <point x="10" y="674" type="line"/>
    </contour>
  </outline>
</glyph>
<glyph name="Omega.math" format="1">
  <advance width="790"/>
  <unicode hex="2126"/>
  <outline>
    <contour>
      <point x="350" y="124" type="line"/>
      <point x="275" y="147"/>
      <point x="244" y="237"/>
      <point x="244" y="344" type="curve" smooth="yes"/>
      <point x="244" y="470"/>
      <point x="297" y="545"/>
      <point x="397" y="545" type="curve" smooth="yes"/>
      <point x="497" y="545"/>
      <point x="550" y="470"/>
      <point x="550" y="344" type="curve" smooth="yes"/>
      <point x="550" y="235"/>
      <point x="517" y="145"/>
      <point x="440" y="124" type="curve"/>
      <point x="440" y="54" type="line"/>
      <point x="598" y="71"/>
      <point x="715" y="172"/>
      <point x="715" y="344" type="curve" smooth="yes"/>
      <point x="715" y="551"/>
      <point x="598" y="685"/>
      <point x="397" y="685" type="curve" smooth="yes"/>
      <point x="197" y="685"/>
      <point x="79" y="550"/>
      <point x="79" y="344" type="curve" smooth="yes"/>
      <point x="79" y="171"/>
      <point x="193" y="71"/>
      <point x="350" y="54" type="curve"/>
    </contour>
    <contour>
      <point x="440" y="0" type="line"/>
      <point x="745" y="0" type="line"/>
      <point x="745" y="124" type="line"/>
      <point x="440" y="124" type="line"/>
    </contour>
    <contour>
      <point x="45" y="0" type="line"/>
      <point x="350" y="0" type="line"/>
      <point x="350" y="124" type="line"/>
      <point x="45" y="124" type="line"/>
    </contour>
  </outline>
</glyph>
<glyph name="partialdiff" format="1">
  <advance width="552"/>
  <unicode hex="2202"/>
  <outline>
    <contour>
      <point x="302" y="674" type="line"/>
      <point x="427" y="578"/>
      <point x="502" y="413"/>
      <point x="502" y="284" type="curve" smooth="yes"/>
      <point x="502" y="96"/>
      <point x="414" y="-10"/>
      <point x="268" y="-10" type="curve" smooth="yes"/>
      <point x="114" y="-10"/>
      <point x="35" y="89"/>
      <point x="35" y="220" type="curve" smooth="yes"/>
      <point x="35" y="349"/>
      <point x="129" y="433"/>
      <point x="239" y="433" type="curve" smooth="yes"/>
      <point x="332" y="433"/>
      <point x="387" y="384"/>
      <point x="412" y="315" type="curve"/>
      <point x="406" y="226" type="line"/>
      <point x="372" y="282"/>
      <point x="336" y="309"/>
      <point x="271" y="309" type="curve" smooth="yes"/>
      <point x="221" y="309"/>
      <point x="184" y="271"/>
      <point x="184" y="213" type="curve" smooth="yes"/>
      <point x="184" y="157"/>
      <point x="213" y="120"/>
      <point x="267" y="120" type="curve" smooth="yes"/>
      <point x="318" y="120"/>
      <point x="369" y="156"/>
      <point x="369" y="289" type="curve" smooth="yes"/>
      <point x="369" y="451"/>
      <point x="244" y="585"/>
      <point x="101" y="674" type="curve"/>
    </contour>
  </outline>
</glyph>
<glyph name="product" format="1">
  <advance width="647"/>
  <unicode hex="220F"/>
  <outline>
    <contour>
      <point x="427" y="-180" type="line"/>
      <point x="582" y="-180" type="line"/>
      <point x="582" y="674" type="line"/>
      <point x="427" y="674" type="line"/>
    </contour>
    <contour>
      <point x="155" y="543" type="line"/>
      <point x="548" y="543" type="line"/>
      <point x="548" y="674" type="line"/>
      <point x="155" y="674" type="line"/>
    </contour>
    <contour>
      <point x="-15" y="-173" type="line"/>
      <point x="2" y="-179"/>
      <point x="34" y="-186"/>
      <point x="58" y="-186" type="curve" smooth="yes"/>
      <point x="194" y="-186"/>
      <point x="240" y="-88"/>
      <point x="240" y="43" type="curve" smooth="yes"/>
      <point x="240" y="674" type="line"/>
      <point x="86" y="674" type="line"/>
      <point x="86" y="42" type="line" smooth="yes"/>
      <point x="86" y="-23"/>
      <point x="73" y="-53"/>
      <point x="32" y="-53" type="curve" smooth="yes"/>
      <point x="12" y="-53"/>
      <point x="0" y="-48"/>
      <point x="-15" y="-40" type="curve"/>
    </contour>
  </outline>
</glyph>
<glyph name="minus" format="1">
  <advance width="589"/>
  <unicode hex="2212"/>
  <outline>
    <contour>
      <point x="45" y="275" type="line"/>
      <point x="544" y="275" type="line"/>
      <point x="544" y="404" type="line"/>
      <point x="45" y="404" type="line"/>
    </contour>
  </outline>
</glyph>
<glyph name="divisionslash" format="1">
  <advance width="833"/>
  <unicode hex="2215"/>
  <outline>
    <contour>
      <point x="660" y="711" type="line"/>
      <point x="552" y="711" type="line"/>
      <point x="123" y="0" type="line"/>
      <point x="232" y="0" type="line"/>
    </contour>
  </outline>
</glyph>
<glyph name="bulletoperator" format="1">
  <advance width="316"/>
  <unicode hex="2219"/>
  <outline>
    <contour>
      <point x="69" y="337" type="curve" smooth="yes"/>
      <point x="69" y="288"/>
      <point x="109" y="248"/>
      <point x="158" y="248" type="curve" smooth="yes"/>
      <point x="207" y="248"/>
      <point x="247" y="288"/>
      <point x="247" y="337" type="curve" smooth="yes"/>
      <point x="247" y="386"/>
      <point x="207" y="426"/>
      <point x="158" y="426" type="curve" smooth="yes"/>
      <point x="109" y="426"/>
      <point x="69" y="386"/>
    </contour>
  </outline>
</glyph>
<glyph name="infinity" format="1">
  <advance width="830"/>
  <unicode hex="221E"/>
  <outline>
    <contour>
      <point x="172" y="339" type="curve" smooth="yes"/>
      <point x="172" y="379"/>
      <point x="197" y="403"/>
      <point x="240" y="403" type="curve" smooth="yes"/>
      <point x="278" y="403"/>
      <point x="311" y="372"/>
      <point x="339" y="344" type="curve"/>
      <point x="321" y="318"/>
      <point x="290" y="276"/>
      <point x="240" y="276" type="curve" smooth="yes"/>
      <point x="198" y="276"/>
      <point x="172" y="299"/>
    </contour>
    <contour>
      <point x="415" y="259" type="curve"/>
      <point x="458" y="209"/>
      <point x="512" y="168"/>
      <point x="596" y="168" type="curve" smooth="yes"/>
      <point x="709" y="168"/>
      <point x="785" y="240"/>
      <point x="785" y="346" type="curve" smooth="yes"/>
      <point x="785" y="454"/>
      <point x="718" y="518"/>
      <point x="600" y="518" type="curve" smooth="yes"/>
      <point x="505" y="518"/>
      <point x="448" y="464"/>
      <point x="414" y="425" type="curve"/>
      <point x="369" y="475"/>
      <point x="317" y="515"/>
      <point x="235" y="515" type="curve" smooth="yes"/>
      <point x="120" y="515"/>
      <point x="45" y="445"/>
      <point x="45" y="337" type="curve" smooth="yes"/>
      <point x="45" y="227"/>
      <point x="110" y="165"/>
      <point x="231" y="165" type="curve" smooth="yes"/>
      <point x="330" y="165"/>
      <point x="380" y="220"/>
    </contour>
    <contour>
      <point x="657" y="344" type="curve" smooth="yes"/>
      <point x="657" y="300"/>
      <point x="632" y="280"/>
      <point x="590" y="280" type="curve" smooth="yes"/>
      <point x="552" y="280"/>
      <point x="520" y="311"/>
      <point x="491" y="339" type="curve"/>
      <point x="510" y="365"/>
      <point x="539" y="407"/>
      <point x="593" y="407" type="curve" smooth="yes"/>
      <point x="634" y="407"/>
      <point x="657" y="379"/>
    </contour>
  </outline>
</glyph>
<glyph name="notequal" format="1">
  <advance width="589"/>
  <unicode hex="2260"/>
  <outline>
    <contour>
      <point x="45" y="398" type="line"/>
      <point x="544" y="398" type="line"/>
      <point x="544" y="514" type="line"/>
      <point x="45" y="514" type="line"/>
    </contour>
    <contour>
      <point x="45" y="166" type="line"/>
      <point x="544" y="166" type="line"/>
      <point x="544" y="282" type="line"/>
      <point x="45" y="282" type="line"/>
    </contour>
    <contour>
      <point x="213" y="86" type="line"/>
      <point x="451" y="594" type="line"/>
      <point x="376" y="594" type="line"/>
      <point x="138" y="86" type="line"/>
    </contour>
  </outline>
</glyph>
<glyph name="lessequal" format="1">
  <advance width="584"/>
  <unicode hex="2264"/>
  <outline>
    <contour>
      <point x="539" y="199" type="line"/>
      <point x="40" y="199" type="line"/>
      <point x="40" y="83" type="line"/>
      <point x="539" y="83" type="line"/>
    </contour>
    <contour>
      <point x="40" y="406" type="line"/>
      <point x="40" y="406"/>
      <point x="539" y="469"/>
      <point x="539" y="469" type="curve"/>
      <point x="539" y="595" type="line"/>
      <point x="40" y="509" type="line"/>
    </contour>
    <contour>
      <point x="40" y="329" type="line"/>
      <point x="539" y="243" type="line"/>
      <point x="539" y="369" type="line"/>
      <point x="539" y="369"/>
      <point x="40" y="432"/>
      <point x="40" y="432" type="curve"/>
    </contour>
  </outline>
</glyph>
<glyph name="fl" format="1">
  <advance width="593"/>
  <unicode hex="FB02"/>
  <outline>
    <contour>
      <point x="533" y="657" type="line"/>
      <point x="455" y="694"/>
      <point x="385" y="720"/>
      <point x="290" y="720" type="curve" smooth="yes"/>
      <point x="169" y="720"/>
      <point x="96" y="650"/>
      <point x="96" y="526" type="curve" smooth="yes"/>
      <point x="96" y="0" type="line"/>
      <point x="241" y="0" type="line"/>
      <point x="241" y="526" type="line" smooth="yes"/>
      <point x="241" y="589"/>
      <point x="270" y="603"/>
      <point x="319" y="603" type="curve" smooth="yes"/>
      <point x="386" y="603"/>
      <point x="480" y="566"/>
      <point x="533" y="529" type="curve"/>
    </contour>
    <contour>
      <point x="30" y="400" type="line"/>
      <point x="336" y="400" type="line"/>
      <point x="336" y="507" type="line"/>
      <point x="30" y="507" type="line"/>
    </contour>
    <contour>
      <point x="387" y="0" type="line"/>
      <point x="533" y="0" type="line"/>
      <point x="533" y="651" type="line"/>
      <point x="387" y="707" type="line"/>
    </contour>
  </outline>
</glyph>
<glyph name="f_f_l" format="1">
  <advance width="883"/>
  <unicode hex="FB04"/>
  <outline>
    <contour>
      <point x="465" y="681" type="line"/>
      <point x="432" y="698"/>
      <point x="355" y="720"/>
      <point x="290" y="720" type="curve" smooth="yes"/>
      <point x="169" y="720"/>
      <point x="96" y="650"/>
      <point x="96" y="526" type="curve" smooth="yes"/>
      <point x="96" y="0" type="line"/>
      <point x="241" y="0" type="line"/>
      <point x="241" y="526" type="line" smooth="yes"/>
      <point x="241" y="587"/>
      <point x="268" y="603"/>
      <point x="314" y="603" type="curve" smooth="yes"/>
      <point x="357" y="603"/>
      <point x="424" y="579"/>
      <point x="455" y="564" type="curve"/>
    </contour>
    <contour>
      <point x="30" y="400" type="line"/>
      <point x="336" y="400" type="line"/>
      <point x="336" y="507" type="line"/>
      <point x="30" y="507" type="line"/>
    </contour>
    <contour>
      <point x="823" y="657" type="line"/>
      <point x="745" y="694"/>
      <point x="675" y="720"/>
      <point x="580" y="720" type="curve" smooth="yes"/>
      <point x="459" y="720"/>
      <point x="386" y="650"/>
      <point x="386" y="526" type="curve" smooth="yes"/>
      <point x="386" y="0" type="line"/>
      <point x="531" y="0" type="line"/>
      <point x="531" y="526" type="line" smooth="yes"/>
      <point x="531" y="589"/>
      <point x="560" y="603"/>
      <point x="609" y="603" type="curve" smooth="yes"/>
      <point x="676" y="603"/>
      <point x="770" y="566"/>
      <point x="823" y="529" type="curve"/>
    </contour>
    <contour>
      <point x="320" y="400" type="line"/>
      <point x="626" y="400" type="line"/>
      <point x="626" y="507" type="line"/>
      <point x="320" y="507" type="line"/>
    </contour>
    <contour>
      <point x="677" y="0" type="line"/>
      <point x="823" y="0" type="line"/>
      <point x="823" y="651" type="line"/>
      <point x="677" y="707" type="line"/>
    </contour>
  </outline>
</glyph>
<glyph name="dvAbbreviationsign" format="1">
  <advance width="502"/>
  <outline>
    <contour>
      <point x="63" y="320" type="curve" smooth="yes"/>
      <point x="63" y="215"/>
      <point x="148" y="130"/>
      <point x="253" y="130" type="curve" smooth="yes"/>
      <point x="358" y="130"/>
      <point x="443" y="215"/>
      <point x="443" y="320" type="curve" smooth="yes"/>
      <point x="443" y="425"/>
      <point x="358" y="510"/>
      <point x="253" y="510" type="curve" smooth="yes"/>
      <point x="148" y="510"/>
      <point x="63" y="425"/>
    </contour>
    <contour>
      <point x="180" y="320" type="curve" smooth="yes"/>
      <point x="180" y="360"/>
      <point x="213" y="393"/>
      <point x="253" y="393" type="curve" smooth="yes"/>
      <point x="293" y="393"/>
      <point x="326" y="360"/>
      <point x="326" y="320" type="curve" smooth="yes"/>
      <point x="326" y="280"/>
      <point x="293" y="247"/>
      <point x="253" y="247" type="curve" smooth="yes"/>
      <point x="213" y="247"/>
      <point x="180" y="280"/>
    </contour>
  </outline>
</glyph>
<glyph name="dvAnusvara.amI" format="1">
  <advance width="0"/>
  <outline>
    <contour>
      <point x="-1" y="735" type="move" name="_abvm.i"/>
    </contour>
    <component base="dvAnusvara" xOffset="140" yOffset="160"/>
  </outline>
</glyph>
<glyph name="dvBH_NA" format="1">
  <advance width="596"/>
  <outline>
    <contour>
      <point x="388" y="428" type="line"/>
      <point x="235" y="428" type="line"/>
      <point x="235" y="531" type="line" smooth="yes"/>
      <point x="235" y="626"/>
      <point x="186" y="676"/>
      <point x="82" y="676" type="curve" smooth="yes"/>
      <point x="52" y="676"/>
      <point x="15" y="666"/>
      <point x="-4" y="656" type="curve"/>
      <point x="-4" y="547" type="line"/>
      <point x="8" y="553"/>
      <point x="28" y="561"/>
      <point x="50" y="561" type="curve" smooth="yes"/>
      <point x="82" y="561"/>
      <point x="96" y="543"/>
      <point x="96" y="514" type="curve" smooth="yes"/>
      <point x="96" y="421" type="line"/>
      <point x="67" y="413"/>
      <point x="50" y="389"/>
      <point x="50" y="356" type="curve" smooth="yes"/>
      <point x="50" y="334"/>
      <point x="57" y="310"/>
      <point x="77" y="268" type="curve" smooth="yes"/>
      <point x="113" y="191" type="line"/>
      <point x="235" y="191" type="line"/>
      <point x="235" y="317" type="line"/>
      <point x="388" y="317" type="line"/>
      <point x="388" y="0" type="line"/>
      <point x="526" y="0" type="line"/>
      <point x="526" y="559" type="line"/>
      <point x="626" y="559" type="line"/>
      <point x="626" y="671" type="line"/>
      <point x="388" y="671" type="line"/>
    </contour>
    <contour>
      <point x="153" y="113" type="line"/>
      <point x="111" y="87"/>
      <point x="94" y="57"/>
      <point x="94" y="26" type="curve" smooth="yes"/>
      <point x="94" y="-32"/>
      <point x="147" y="-85"/>
      <point x="200" y="-113" type="curve"/>
      <point x="280" y="-64" type="line"/>
      <point x="254" y="-39"/>
      <point x="237" y="-18"/>
      <point x="237" y="6" type="curve" smooth="yes"/>
      <point x="237" y="19"/>
      <point x="243" y="33"/>
      <point x="256" y="41" type="curve" smooth="yes"/>
      <point x="483" y="186" type="line"/>
      <point x="420" y="278" type="line"/>
    </contour>
  </outline>
</glyph>
<glyph name="dvB_BHA" format="1">
  <advance width="1001"/>
  <outline>
    <contour>
      <point x="793" y="378" type="line"/>
      <point x="640" y="378" type="line"/>
      <point x="640" y="523" type="line" smooth="yes"/>
      <point x="640" y="620"/>
      <point x="590" y="671"/>
      <point x="484" y="671" type="curve" smooth="yes"/>
      <point x="401" y="671" type="line"/>
      <point x="401" y="559" type="line"/>
      <point x="453" y="559" type="line" smooth="yes"/>
      <point x="488" y="559"/>
      <point x="501" y="541"/>
      <point x="501" y="509" type="curve"/>
      <point x="501" y="371" type="line"/>
      <point x="472" y="363"/>
      <point x="455" y="339"/>
      <point x="455" y="306" type="curve" smooth="yes"/>
      <point x="455" y="284"/>
      <point x="462" y="260"/>
      <point x="482" y="218" type="curve" smooth="yes"/>
      <point x="518" y="141" type="line"/>
      <point x="640" y="141" type="line"/>
      <point x="640" y="266" type="line"/>
      <point x="793" y="266" type="line"/>
      <point x="793" y="0" type="line"/>
      <point x="931" y="0" type="line"/>
      <point x="931" y="559" type="line"/>
      <point x="1031" y="559" type="line"/>
      <point x="1031" y="671" type="line"/>
      <point x="793" y="671" type="line"/>
    </contour>
    <component base="dvB"/>
  </outline>
</glyph>
<glyph name="dvB_BH_RA" format="1">
  <advance width="986"/>
  <outline>
    <contour>
      <point x="800" y="292" type="line"/>
      <point x="413" y="-40" type="line"/>
      <point x="606" y="-40" type="line"/>
      <point x="890" y="210" type="line"/>
    </contour>
    <contour>
      <point x="778" y="428" type="line"/>
      <point x="625" y="428" type="line"/>
      <point x="625" y="523" type="line" smooth="yes"/>
      <point x="625" y="620"/>
      <point x="575" y="671"/>
      <point x="469" y="671" type="curve" smooth="yes"/>
      <point x="386" y="671" type="line"/>
      <point x="386" y="559" type="line"/>
      <point x="438" y="559" type="line" smooth="yes"/>
      <point x="473" y="559"/>
      <point x="486" y="541"/>
      <point x="486" y="509" type="curve"/>
      <point x="486" y="421" type="line"/>
      <point x="457" y="413"/>
      <point x="440" y="389"/>
      <point x="440" y="356" type="curve" smooth="yes"/>
      <point x="440" y="334"/>
      <point x="447" y="310"/>
      <point x="467" y="268" type="curve" smooth="yes"/>
      <point x="503" y="191" type="line"/>
      <point x="625" y="191" type="line"/>
      <point x="625" y="317" type="line"/>
      <point x="778" y="317" type="line"/>
      <point x="778" y="0" type="line"/>
      <point x="916" y="0" type="line"/>
      <point x="916" y="559" type="line"/>
      <point x="1016" y="559" type="line"/>
      <point x="1016" y="671" type="line"/>
      <point x="777" y="671" type="line"/>
    </contour>
    <component base="dvB"/>
  </outline>
</glyph>
<glyph name="dvB_DH_VA" format="1">
  <advance width="1403"/>
  <outline>
    <contour>
      <point x="1333" y="0" type="line"/>
      <point x="1333" y="664" type="line"/>
      <point x="1191" y="664" type="line"/>
      <point x="1191" y="0" type="line"/>
    </contour>
    <contour>
      <point x="1128" y="497" type="line"/>
      <point x="1109" y="502"/>
      <point x="1083" y="505"/>
      <point x="1058" y="505" type="curve" smooth="yes"/>
      <point x="922" y="505"/>
      <point x="835" y="412"/>
      <point x="835" y="292" type="curve" smooth="yes"/>
      <point x="835" y="158"/>
      <point x="936" y="86"/>
      <point x="1052" y="86" type="curve" smooth="yes"/>
      <point x="1147" y="86"/>
      <point x="1220" y="136"/>
      <point x="1250" y="226" type="curve"/>
      <point x="1191" y="291" type="line"/>
      <point x="1191" y="235"/>
      <point x="1130" y="198"/>
      <point x="1081" y="198" type="curve" smooth="yes"/>
      <point x="1013" y="198"/>
      <point x="978" y="234"/>
      <point x="978" y="296" type="curve" smooth="yes"/>
      <point x="978" y="351"/>
      <point x="1019" y="384"/>
      <point x="1069" y="384" type="curve" smooth="yes"/>
      <point x="1091" y="384"/>
      <point x="1109" y="380"/>
      <point x="1128" y="375" type="curve"/>
    </contour>
    <contour>
      <point x="1433" y="559" type="line"/>
      <point x="1433" y="671" type="line"/>
      <point x="830" y="671" type="line"/>
      <point x="830" y="559" type="line"/>
    </contour>
    <component base="dvB"/>
    <component base="dvDH" xOffset="400"/>
  </outline>
</glyph>
<glyph name="dvB_JHA" format="1">
  <advance width="1171"/>
  <outline>
    <contour>
      <point x="289" y="29" type="curve"/>
      <point x="392" y="30"/>
      <point x="449" y="66"/>
      <point x="500" y="119" type="curve"/>
      <point x="435" y="187" type="line"/>
      <point x="402" y="157"/>
      <point x="368" y="141"/>
      <point x="313" y="141" type="curve" smooth="yes"/>
      <point x="244" y="141"/>
      <point x="178" y="182"/>
      <point x="178" y="258" type="curve" smooth="yes"/>
      <point x="178" y="323"/>
      <point x="221" y="361"/>
      <point x="279" y="361" type="curve" smooth="yes"/>
      <point x="300" y="361"/>
      <point x="327" y="358"/>
      <point x="348" y="351" type="curve"/>
      <point x="348" y="473" type="line"/>
      <point x="326" y="478"/>
      <point x="293" y="481"/>
      <point x="267" y="481" type="curve" smooth="yes"/>
      <point x="123" y="481"/>
      <point x="35" y="384"/>
      <point x="35" y="262" type="curve" smooth="yes"/>
      <point x="35" y="131"/>
      <point x="140" y="29"/>
    </contour>
    <contour>
      <point x="425" y="559" type="line"/>
      <point x="425" y="671" type="line"/>
      <point x="-30" y="671" type="line"/>
      <point x="-30" y="559" type="line"/>
    </contour>
    <contour>
      <point x="462" y="176" type="line"/>
      <point x="146" y="436" type="line"/>
      <point x="113" y="383" type="line"/>
      <point x="411" y="133" type="line"/>
    </contour>
    <contour>
      <point x="1019" y="336" type="line"/>
      <point x="669" y="336" type="line"/>
      <point x="669" y="229" type="line"/>
      <point x="1019" y="229" type="line"/>
    </contour>
    <contour>
      <point x="846" y="559" type="line"/>
      <point x="959" y="559" type="line"/>
      <point x="959" y="0" type="line"/>
      <point x="1101" y="0" type="line"/>
      <point x="1101" y="559" type="line"/>
      <point x="1201" y="559" type="line"/>
      <point x="1201" y="671" type="line"/>
      <point x="846" y="671" type="line"/>
    </contour>
    <contour>
      <point x="881" y="171" type="curve" smooth="yes"/>
      <point x="881" y="281"/>
      <point x="816" y="336"/>
      <point x="655" y="336" type="curve" smooth="yes"/>
      <point x="616" y="336"/>
      <point x="591" y="342"/>
      <point x="591" y="368" type="curve" smooth="yes"/>
      <point x="591" y="396"/>
      <point x="617" y="402"/>
      <point x="654" y="402" type="curve" smooth="yes"/>
      <point x="844" y="402" type="line"/>
      <point x="823" y="514" type="line"/>
      <point x="648" y="514" type="line" smooth="yes"/>
      <point x="539" y="514"/>
      <point x="448" y="471"/>
      <point x="448" y="360" type="curve" smooth="yes"/>
      <point x="448" y="244"/>
      <point x="548" y="217"/>
      <point x="655" y="217" type="curve" smooth="yes"/>
      <point x="702" y="217"/>
      <point x="742" y="209"/>
      <point x="742" y="163" type="curve" smooth="yes"/>
      <point x="742" y="127"/>
      <point x="715" y="107"/>
      <point x="675" y="107" type="curve" smooth="yes"/>
      <point x="629" y="107"/>
      <point x="587" y="138"/>
      <point x="564" y="187" type="curve"/>
      <point x="521" y="76" type="line"/>
      <point x="560" y="32"/>
      <point x="620" y="2"/>
      <point x="693" y="2" type="curve" smooth="yes"/>
      <point x="806" y="2"/>
      <point x="881" y="70"/>
    </contour>
    <contour>
      <point x="360" y="559" type="line"/>
      <point x="704" y="559" type="line"/>
      <point x="704" y="405" type="line"/>
      <point x="844" y="405" type="line"/>
      <point x="844" y="559" type="line"/>
      <point x="949" y="559" type="line"/>
      <point x="949" y="671" type="line"/>
      <point x="360" y="671" type="line"/>
    </contour>
    <contour>
      <point x="434" y="-51" type="line"/>
      <point x="574" y="-51" type="line"/>
      <point x="574" y="130" type="line"/>
      <point x="564" y="187" type="line"/>
      <point x="434" y="187" type="line"/>
    </contour>
  </outline>
</glyph>
<glyph name="dvB_NA" format="1">
  <advance width="632"/>
  <outline>
    <contour>
      <point x="562" y="0" type="line"/>
      <point x="562" y="664" type="line"/>
      <point x="420" y="664" type="line"/>
      <point x="420" y="0" type="line"/>
    </contour>
    <contour>
      <point x="265" y="74" type="curve" smooth="yes"/>
      <point x="373" y="74"/>
      <point x="450" y="138"/>
      <point x="479" y="226" type="curve"/>
      <point x="420" y="291" type="line"/>
      <point x="420" y="224"/>
      <point x="349" y="184"/>
      <point x="285" y="184" type="curve" smooth="yes"/>
      <point x="223" y="184"/>
      <point x="178" y="224"/>
      <point x="178" y="288" type="curve" smooth="yes"/>
      <point x="178" y="353"/>
      <point x="221" y="391"/>
      <point x="279" y="391" type="curve" smooth="yes"/>
      <point x="300" y="391"/>
      <point x="327" y="388"/>
      <point x="348" y="381" type="curve"/>
      <point x="348" y="503" type="line"/>
      <point x="326" y="508"/>
      <point x="293" y="511"/>
      <point x="267" y="511" type="curve" smooth="yes"/>
      <point x="123" y="511"/>
      <point x="35" y="414"/>
      <point x="35" y="292" type="curve" smooth="yes"/>
      <point x="35" y="164"/>
      <point x="144" y="74"/>
    </contour>
    <contour>
      <point x="662" y="559" type="line"/>
      <point x="662" y="671" type="line"/>
      <point x="-30" y="671" type="line"/>
      <point x="-30" y="559" type="line"/>
    </contour>
    <contour>
      <point x="461" y="206" type="line"/>
      <point x="145" y="466" type="line"/>
      <point x="112" y="413" type="line"/>
      <point x="410" y="163" type="line"/>
    </contour>
    <contour>
      <point x="166" y="75" type="line"/>
      <point x="122" y="51"/>
      <point x="107" y="19"/>
      <point x="107" y="-12" type="curve" smooth="yes"/>
      <point x="107" y="-70"/>
      <point x="160" y="-123"/>
      <point x="213" y="-151" type="curve"/>
      <point x="293" y="-102" type="line"/>
      <point x="272" y="-81"/>
      <point x="251" y="-58"/>
      <point x="251" y="-33" type="curve" smooth="yes"/>
      <point x="251" y="-20"/>
      <point x="256" y="-5"/>
      <point x="269" y="6" type="curve" smooth="yes"/>
      <point x="401" y="117" type="line"/>
      <point x="393" y="200" type="line"/>
    </contour>
  </outline>
</glyph>
<glyph name="dvB_RA" format="1">
  <advance width="633"/>
  <outline>
    <contour>
      <point x="182" y="89" type="curve"/>
      <point x="24" y="-65" type="line"/>
      <point x="218" y="-65" type="line"/>
      <point x="500" y="213" type="line"/>
      <point x="420" y="291" type="line"/>
      <point x="420" y="224"/>
      <point x="349" y="184"/>
      <point x="285" y="184" type="curve" smooth="yes"/>
      <point x="223" y="184"/>
      <point x="178" y="224"/>
      <point x="178" y="288" type="curve" smooth="yes"/>
      <point x="178" y="353"/>
      <point x="221" y="391"/>
      <point x="279" y="391" type="curve" smooth="yes"/>
      <point x="300" y="391"/>
      <point x="327" y="388"/>
      <point x="348" y="381" type="curve"/>
      <point x="348" y="503" type="line"/>
      <point x="326" y="508"/>
      <point x="293" y="511"/>
      <point x="267" y="511" type="curve" smooth="yes"/>
      <point x="123" y="511"/>
      <point x="35" y="414"/>
      <point x="35" y="292" type="curve" smooth="yes"/>
      <point x="35" y="194"/>
      <point x="102" y="118"/>
    </contour>
    <contour>
      <point x="563" y="0" type="line"/>
      <point x="563" y="664" type="line"/>
      <point x="421" y="664" type="line"/>
      <point x="421" y="0" type="line"/>
    </contour>
    <contour>
      <point x="663" y="559" type="line"/>
      <point x="663" y="671" type="line"/>
      <point x="-30" y="671" type="line"/>
      <point x="-30" y="559" type="line"/>
    </contour>
    <contour>
      <point x="462" y="206" type="line"/>
      <point x="146" y="466" type="line"/>
      <point x="113" y="413" type="line"/>
      <point x="411" y="163" type="line"/>
    </contour>
  </outline>
</glyph>
<glyph name="dvC" format="1">
  <advance width="429"/>
  <outline>
    <contour>
      <point x="505" y="356" type="line"/>
      <point x="474" y="269"/>
      <point x="403" y="204"/>
      <point x="307" y="204" type="curve" smooth="yes"/>
      <point x="250" y="204"/>
      <point x="214" y="231"/>
      <point x="214" y="273" type="curve" smooth="yes"/>
      <point x="214" y="337"/>
      <point x="276" y="359"/>
      <point x="379" y="359" type="curve"/>
      <point x="225" y="385" type="line"/>
      <point x="156" y="383"/>
      <point x="79" y="348"/>
      <point x="79" y="250" type="curve" smooth="yes"/>
      <point x="79" y="152"/>
      <point x="158" y="91"/>
      <point x="290" y="91" type="curve" smooth="yes"/>
      <point x="441" y="91"/>
      <point x="545" y="191"/>
      <point x="569" y="286" type="curve"/>
    </contour>
    <contour>
      <point x="459" y="559" type="line"/>
      <point x="459" y="671" type="line"/>
      <point x="-30" y="671" type="line"/>
      <point x="-30" y="559" type="line"/>
    </contour>
    <contour>
      <point x="379" y="359" type="line"/>
      <point x="379" y="474" type="line"/>
      <point x="20" y="474" type="line"/>
      <point x="20" y="359" type="line"/>
    </contour>
  </outline>
</glyph>
<glyph name="dvCH_R_YA" format="1">
  <advance width="1264"/>
  <outline>
    <contour>
      <point x="512" y="357" type="line"/>
      <point x="580" y="385"/>
      <point x="693" y="411"/>
      <point x="753" y="411" type="curve" smooth="yes"/>
      <point x="790" y="411"/>
      <point x="810" y="395"/>
      <point x="810" y="377" type="curve" smooth="yes"/>
      <point x="810" y="324"/>
      <point x="725" y="302"/>
      <point x="659" y="286" type="curve"/>
      <point x="680" y="113"/>
      <point x="778" y="36"/>
      <point x="906" y="36" type="curve" smooth="yes"/>
      <point x="973" y="36"/>
      <point x="1030" y="62"/>
      <point x="1053" y="100" type="curve"/>
      <point x="1053" y="0" type="line"/>
      <point x="1194" y="0" type="line"/>
      <point x="1194" y="579" type="line"/>
      <point x="1053" y="579" type="line"/>
      <point x="1053" y="292" type="line" smooth="yes"/>
      <point x="1053" y="202"/>
      <point x="1004" y="160"/>
      <point x="930" y="160" type="curve" smooth="yes"/>
      <point x="873" y="160"/>
      <point x="838" y="183"/>
      <point x="822" y="228" type="curve"/>
      <point x="892" y="252"/>
      <point x="948" y="306"/>
      <point x="948" y="377" type="curve" smooth="yes"/>
      <point x="948" y="465"/>
      <point x="891" y="517"/>
      <point x="753" y="517" type="curve" smooth="yes"/>
      <point x="691" y="517"/>
      <point x="582" y="500"/>
      <point x="512" y="473" type="curve"/>
    </contour>
    <contour>
      <point x="1313" y="671" type="line"/>
      <point x="600" y="671" type="line"/>
      <point x="600" y="559" type="line"/>
      <point x="1313" y="559" type="line"/>
    </contour>
    <contour>
      <point x="352" y="389" type="line"/>
      <point x="363" y="392"/>
      <point x="383" y="394"/>
      <point x="401" y="394" type="curve" smooth="yes"/>
      <point x="443" y="394"/>
      <point x="479" y="367"/>
      <point x="479" y="310" type="curve" smooth="yes"/>
      <point x="479" y="221"/>
      <point x="407" y="165"/>
      <point x="300" y="165" type="curve" smooth="yes"/>
      <point x="235" y="165"/>
      <point x="187" y="189"/>
      <point x="187" y="229" type="curve" smooth="yes"/>
      <point x="187" y="268"/>
      <point x="210" y="289"/>
      <point x="268" y="289" type="curve" smooth="yes"/>
      <point x="305" y="289" type="line"/>
      <point x="305" y="407" type="line"/>
      <point x="268" y="407" type="line" smooth="yes"/>
      <point x="220" y="407"/>
      <point x="196" y="439"/>
      <point x="196" y="477" type="curve" smooth="yes"/>
      <point x="196" y="529"/>
      <point x="230" y="565"/>
      <point x="298" y="592" type="curve"/>
      <point x="138" y="592" type="line"/>
      <point x="83" y="571"/>
      <point x="55" y="523"/>
      <point x="55" y="475" type="curve" smooth="yes"/>
      <point x="55" y="408"/>
      <point x="99" y="350"/>
      <point x="188" y="348" type="curve"/>
      <point x="97" y="343"/>
      <point x="45" y="297"/>
      <point x="45" y="222" type="curve" smooth="yes"/>
      <point x="45" y="106"/>
      <point x="168" y="49"/>
      <point x="299" y="49" type="curve" smooth="yes"/>
      <point x="484" y="49"/>
      <point x="622" y="154"/>
      <point x="622" y="322" type="curve" smooth="yes"/>
      <point x="622" y="442"/>
      <point x="538" y="508"/>
      <point x="424" y="508" type="curve" smooth="yes"/>
      <point x="402" y="508"/>
      <point x="370" y="505"/>
      <point x="352" y="500" type="curve"/>
    </contour>
    <contour>
      <point x="687" y="559" type="line"/>
      <point x="687" y="671" type="line"/>
      <point x="-30" y="671" type="line"/>
      <point x="-30" y="559" type="line"/>
    </contour>
    <contour>
      <point x="230" y="99" type="line"/>
      <point x="74" y="-100" type="line"/>
      <point x="244" y="-100" type="line"/>
      <point x="328" y="29" type="line"/>
      <point x="408" y="-100" type="line"/>
      <point x="578" y="-100" type="line"/>
      <point x="422" y="99" type="line"/>
    </contour>
  </outline>
</glyph>
<glyph name="dvCH_YA" format="1">
  <advance width="1284"/>
  <outline>
    <contour>
      <point x="532" y="357" type="line"/>
      <point x="600" y="385"/>
      <point x="713" y="411"/>
      <point x="773" y="411" type="curve" smooth="yes"/>
      <point x="810" y="411"/>
      <point x="830" y="395"/>
      <point x="830" y="377" type="curve" smooth="yes"/>
      <point x="830" y="324"/>
      <point x="745" y="302"/>
      <point x="679" y="286" type="curve"/>
      <point x="700" y="113"/>
      <point x="798" y="36"/>
      <point x="926" y="36" type="curve" smooth="yes"/>
      <point x="993" y="36"/>
      <point x="1050" y="62"/>
      <point x="1073" y="100" type="curve"/>
      <point x="1073" y="0" type="line"/>
      <point x="1214" y="0" type="line"/>
      <point x="1214" y="579" type="line"/>
      <point x="1073" y="579" type="line"/>
      <point x="1073" y="292" type="line" smooth="yes"/>
      <point x="1073" y="202"/>
      <point x="1024" y="160"/>
      <point x="950" y="160" type="curve" smooth="yes"/>
      <point x="893" y="160"/>
      <point x="858" y="183"/>
      <point x="842" y="228" type="curve"/>
      <point x="912" y="252"/>
      <point x="968" y="306"/>
      <point x="968" y="377" type="curve" smooth="yes"/>
      <point x="968" y="465"/>
      <point x="911" y="517"/>
      <point x="773" y="517" type="curve" smooth="yes"/>
      <point x="711" y="517"/>
      <point x="602" y="500"/>
      <point x="532" y="473" type="curve"/>
    </contour>
    <contour>
      <point x="1333" y="671" type="line"/>
      <point x="620" y="671" type="line"/>
      <point x="620" y="559" type="line"/>
      <point x="1333" y="559" type="line"/>
    </contour>
    <contour>
      <point x="352" y="389" type="line"/>
      <point x="363" y="392"/>
      <point x="383" y="394"/>
      <point x="401" y="394" type="curve" smooth="yes"/>
      <point x="443" y="394"/>
      <point x="479" y="367"/>
      <point x="479" y="310" type="curve" smooth="yes"/>
      <point x="479" y="221"/>
      <point x="407" y="165"/>
      <point x="300" y="165" type="curve" smooth="yes"/>
      <point x="235" y="165"/>
      <point x="187" y="189"/>
      <point x="187" y="229" type="curve" smooth="yes"/>
      <point x="187" y="268"/>
      <point x="210" y="289"/>
      <point x="268" y="289" type="curve" smooth="yes"/>
      <point x="305" y="289" type="line"/>
      <point x="305" y="407" type="line"/>
      <point x="268" y="407" type="line" smooth="yes"/>
      <point x="220" y="407"/>
      <point x="196" y="439"/>
      <point x="196" y="477" type="curve" smooth="yes"/>
      <point x="196" y="529"/>
      <point x="230" y="565"/>
      <point x="298" y="592" type="curve"/>
      <point x="138" y="592" type="line"/>
      <point x="83" y="571"/>
      <point x="55" y="523"/>
      <point x="55" y="475" type="curve" smooth="yes"/>
      <point x="55" y="408"/>
      <point x="99" y="350"/>
      <point x="188" y="348" type="curve"/>
      <point x="97" y="343"/>
      <point x="45" y="297"/>
      <point x="45" y="222" type="curve" smooth="yes"/>
      <point x="45" y="106"/>
      <point x="168" y="49"/>
      <point x="299" y="49" type="curve" smooth="yes"/>
      <point x="484" y="49"/>
      <point x="622" y="154"/>
      <point x="622" y="322" type="curve" smooth="yes"/>
      <point x="622" y="442"/>
      <point x="538" y="508"/>
      <point x="424" y="508" type="curve" smooth="yes"/>
      <point x="402" y="508"/>
      <point x="370" y="505"/>
      <point x="352" y="500" type="curve"/>
    </contour>
    <contour>
      <point x="687" y="559" type="line"/>
      <point x="687" y="671" type="line"/>
      <point x="-30" y="671" type="line"/>
      <point x="-30" y="559" type="line"/>
    </contour>
  </outline>
</glyph>
